<?xml version="1.0" encoding="UTF-8"?>
<!DOCTYPE svg PUBLIC "-//W3C//DTD SVG 1.1//EN" "http://www.w3.org/Graphics/SVG/1.1/DTD/svg11.dtd">
<!-- Creator: CorelDRAW (Versión de evaluación) -->
<svg xmlns="http://www.w3.org/2000/svg" xml:space="preserve" width="1.16994in" height="0.965764in" version="1.1" style="shape-rendering:geometricPrecision; text-rendering:geometricPrecision; image-rendering:optimizeQuality; fill-rule:evenodd; clip-rule:evenodd"
viewBox="0 0 557.14 459.91"
 xmlns:xlink="http://www.w3.org/1999/xlink"
 xmlns:xodm="http://www.corel.com/coreldraw/odm/2003">
 <defs>
  <style type="text/css">
   <![CDATA[
    .fil2 {fill:#E6E6E6}
    .fil3 {fill:white}
    .fil1 {fill:#E6E6E6;fill-rule:nonzero}
    .fil0 {fill:white;fill-rule:nonzero}
   ]]>
  </style>
 </defs>
 <g id="Layer_x0020_1">
  <metadata id="CorelCorpID_0Corel-Layer"/>
  <g id="_2391007207088">
   <path class="fil0" d="M40.14 354.36c0,0.23 -0.06,0.44 -0.18,0.6 -0.12,0.18 -0.31,0.31 -0.6,0.41 -0.29,0.1 -0.68,0.19 -1.15,0.26 -0.49,0.07 -1.06,0.1 -1.75,0.1 -0.76,0 -1.37,-0.03 -1.82,-0.1 -0.47,-0.07 -0.84,-0.16 -1.13,-0.26 -0.29,-0.1 -0.48,-0.23 -0.6,-0.41 -0.12,-0.16 -0.18,-0.37 -0.18,-0.6l0 -24.73 -25.32 0 0 24.73c0,0.23 -0.06,0.44 -0.18,0.6 -0.12,0.18 -0.31,0.31 -0.6,0.41 -0.28,0.1 -0.66,0.19 -1.13,0.26 -0.49,0.07 -1.07,0.1 -1.79,0.1 -0.69,0 -1.28,-0.03 -1.76,-0.1 -0.49,-0.07 -0.88,-0.16 -1.16,-0.26 -0.29,-0.1 -0.49,-0.23 -0.6,-0.41 -0.12,-0.16 -0.18,-0.37 -0.18,-0.6l0 -53.52c0,-0.24 0.06,-0.44 0.18,-0.6 0.12,-0.18 0.31,-0.31 0.6,-0.41 0.28,-0.1 0.68,-0.19 1.16,-0.27 0.49,-0.07 1.07,-0.1 1.76,-0.1 0.72,0 1.31,0.03 1.79,0.1 0.47,0.07 0.85,0.16 1.13,0.27 0.29,0.1 0.49,0.23 0.6,0.41 0.12,0.18 0.18,0.37 0.18,0.6l0 22.35 25.32 0 0 -22.35c0,-0.24 0.06,-0.43 0.18,-0.6 0.12,-0.18 0.31,-0.31 0.6,-0.41 0.3,-0.1 0.66,-0.19 1.13,-0.27 0.46,-0.07 1.06,-0.1 1.82,-0.1 0.69,0 1.26,0.03 1.75,0.1 0.47,0.07 0.85,0.16 1.15,0.27 0.29,0.1 0.48,0.23 0.6,0.41 0.12,0.16 0.18,0.37 0.18,0.6l0 53.52zm51.29 -19.8c0,3.16 -0.41,6.07 -1.25,8.73 -0.82,2.65 -2.07,4.94 -3.72,6.87 -1.65,1.93 -3.72,3.43 -6.19,4.5 -2.49,1.07 -5.37,1.62 -8.63,1.62 -3.19,0 -5.97,-0.47 -8.34,-1.43 -2.37,-0.94 -4.34,-2.32 -5.91,-4.13 -1.57,-1.81 -2.75,-4.01 -3.53,-6.59 -0.78,-2.59 -1.16,-5.51 -1.16,-8.79 0,-3.16 0.41,-6.07 1.22,-8.72 0.82,-2.66 2.06,-4.96 3.71,-6.88 1.65,-1.93 3.7,-3.41 6.17,-4.48 2.47,-1.06 5.35,-1.59 8.65,-1.59 3.19,0 5.97,0.47 8.34,1.43 2.37,0.94 4.34,2.32 5.91,4.13 1.57,1.81 2.77,4 3.56,6.59 0.78,2.59 1.18,5.5 1.18,8.75zm-7.41 0.45c0,-2.1 -0.19,-4.09 -0.59,-5.95 -0.38,-1.87 -1.03,-3.5 -1.93,-4.91 -0.88,-1.41 -2.1,-2.53 -3.63,-3.34 -1.51,-0.82 -3.43,-1.24 -5.7,-1.24 -2.1,0 -3.91,0.37 -5.43,1.12 -1.51,0.75 -2.75,1.81 -3.74,3.18 -0.98,1.37 -1.7,2.98 -2.17,4.85 -0.49,1.87 -0.72,3.91 -0.72,6.12 0,2.13 0.19,4.13 0.59,6 0.38,1.87 1.03,3.5 1.94,4.9 0.91,1.38 2.13,2.5 3.65,3.31 1.53,0.82 3.44,1.24 5.72,1.24 2.07,0 3.87,-0.37 5.4,-1.12 1.53,-0.75 2.78,-1.79 3.76,-3.15 0.98,-1.35 1.7,-2.97 2.16,-4.84 0.46,-1.87 0.69,-3.93 0.69,-6.16zm43.56 8.81c0,1.99 -0.37,3.75 -1.1,5.31 -0.74,1.54 -1.77,2.85 -3.12,3.91 -1.35,1.06 -2.95,1.87 -4.82,2.41 -1.87,0.54 -3.93,0.82 -6.16,0.82 -1.38,0 -2.69,-0.1 -3.94,-0.32 -1.25,-0.21 -2.37,-0.47 -3.37,-0.81 -0.99,-0.32 -1.82,-0.66 -2.51,-1.01 -0.69,-0.35 -1.19,-0.68 -1.5,-0.96 -0.32,-0.28 -0.56,-0.69 -0.69,-1.21 -0.15,-0.51 -0.22,-1.22 -0.22,-2.12 0,-0.54 0.03,-1 0.09,-1.37 0.06,-0.38 0.13,-0.68 0.21,-0.91 0.09,-0.24 0.22,-0.4 0.37,-0.5 0.16,-0.1 0.34,-0.15 0.54,-0.15 0.31,0 0.78,0.19 1.4,0.59 0.62,0.38 1.38,0.81 2.28,1.26 0.9,0.46 1.97,0.88 3.2,1.27 1.24,0.4 2.65,0.59 4.25,0.59 1.21,0 2.29,-0.13 3.26,-0.4 0.98,-0.25 1.82,-0.63 2.54,-1.15 0.72,-0.5 1.26,-1.15 1.66,-1.93 0.38,-0.78 0.57,-1.7 0.57,-2.78 0,-1.09 -0.28,-2.01 -0.84,-2.75 -0.56,-0.75 -1.29,-1.41 -2.2,-1.98 -0.93,-0.57 -1.96,-1.09 -3.1,-1.53 -1.15,-0.44 -2.32,-0.91 -3.54,-1.4 -1.21,-0.5 -2.4,-1.04 -3.56,-1.66 -1.16,-0.62 -2.19,-1.37 -3.12,-2.26 -0.91,-0.9 -1.65,-1.96 -2.21,-3.19 -0.56,-1.23 -0.84,-2.7 -0.84,-4.44 0,-1.51 0.29,-2.97 0.88,-4.37 0.59,-1.4 1.47,-2.62 2.65,-3.66 1.19,-1.04 2.66,-1.9 4.42,-2.53 1.76,-0.63 3.82,-0.94 6.19,-0.94 1.03,0 2.06,0.09 3.1,0.27 1.03,0.18 1.96,0.41 2.8,0.67 0.84,0.26 1.54,0.56 2.13,0.87 0.59,0.32 1.04,0.59 1.34,0.84 0.31,0.24 0.5,0.44 0.6,0.6 0.1,0.18 0.18,0.37 0.22,0.59 0.04,0.21 0.09,0.47 0.13,0.78 0.04,0.32 0.06,0.7 0.06,1.16 0,0.48 -0.01,0.91 -0.06,1.26 -0.04,0.35 -0.12,0.65 -0.22,0.87 -0.1,0.23 -0.22,0.4 -0.37,0.5 -0.15,0.1 -0.31,0.15 -0.47,0.15 -0.26,0 -0.63,-0.16 -1.13,-0.49 -0.48,-0.31 -1.12,-0.65 -1.9,-1.01 -0.78,-0.37 -1.69,-0.71 -2.74,-1.01 -1.04,-0.32 -2.25,-0.49 -3.6,-0.49 -1.21,0 -2.28,0.13 -3.19,0.41 -0.93,0.27 -1.68,0.65 -2.26,1.15 -0.59,0.5 -1.04,1.09 -1.34,1.78 -0.31,0.68 -0.46,1.43 -0.46,2.22 0,1.12 0.3,2.06 0.87,2.82 0.57,0.76 1.31,1.43 2.23,2 0.91,0.58 1.97,1.09 3.15,1.56 1.18,0.46 2.37,0.93 3.59,1.41 1.22,0.5 2.43,1.04 3.62,1.65 1.19,0.6 2.25,1.34 3.16,2.19 0.93,0.87 1.66,1.9 2.22,3.1 0.56,1.21 0.84,2.65 0.84,4.31zm47.07 -9.44c0,3.4 -0.37,6.44 -1.1,9.15 -0.72,2.69 -1.79,4.99 -3.22,6.87 -1.41,1.88 -3.18,3.34 -5.26,4.35 -2.09,1.01 -4.48,1.53 -7.18,1.53 -1.15,0 -2.21,-0.12 -3.18,-0.34 -0.99,-0.23 -1.93,-0.59 -2.87,-1.09 -0.93,-0.49 -1.85,-1.1 -2.76,-1.85 -0.93,-0.73 -1.9,-1.62 -2.93,-2.62l0 19.42c0,0.24 -0.06,0.43 -0.17,0.6 -0.12,0.18 -0.3,0.32 -0.56,0.44 -0.26,0.1 -0.62,0.19 -1.09,0.25 -0.46,0.06 -1.04,0.09 -1.76,0.09 -0.7,0 -1.28,-0.03 -1.73,-0.09 -0.47,-0.06 -0.84,-0.15 -1.1,-0.25 -0.28,-0.12 -0.47,-0.26 -0.57,-0.44 -0.1,-0.18 -0.15,-0.37 -0.15,-0.6l0 -54.18c0,-0.27 0.04,-0.47 0.13,-0.63 0.09,-0.15 0.26,-0.29 0.51,-0.4 0.26,-0.12 0.59,-0.21 1,-0.25 0.4,-0.04 0.9,-0.06 1.47,-0.06 0.6,0 1.1,0.01 1.5,0.06 0.38,0.04 0.7,0.13 0.97,0.24 0.26,0.12 0.44,0.26 0.54,0.41 0.1,0.16 0.15,0.37 0.15,0.63l0 5.19c1.18,-1.21 2.31,-2.25 3.4,-3.15 1.09,-0.88 2.19,-1.62 3.29,-2.2 1.1,-0.59 2.23,-1.04 3.4,-1.34 1.16,-0.31 2.38,-0.46 3.68,-0.46 2.81,0 5.19,0.55 7.18,1.63 1.97,1.1 3.59,2.59 4.84,4.48 1.25,1.9 2.16,4.1 2.74,6.62 0.57,2.51 0.85,5.17 0.85,7.98zm-7.41 0.82c0,-1.99 -0.15,-3.91 -0.46,-5.77 -0.29,-1.85 -0.82,-3.5 -1.54,-4.94 -0.73,-1.44 -1.72,-2.59 -2.95,-3.46 -1.24,-0.87 -2.78,-1.29 -4.62,-1.29 -0.93,0 -1.82,0.13 -2.72,0.41 -0.88,0.28 -1.79,0.7 -2.72,1.29 -0.91,0.59 -1.88,1.37 -2.88,2.34 -1,0.97 -2.07,2.16 -3.19,3.57l0 15.42c1.96,2.4 3.81,4.22 5.56,5.5 1.76,1.27 3.6,1.9 5.53,1.9 1.78,0 3.31,-0.43 4.59,-1.29 1.28,-0.87 2.31,-2.02 3.1,-3.46 0.79,-1.44 1.37,-3.04 1.75,-4.84 0.37,-1.78 0.56,-3.59 0.56,-5.39zm26.53 19.2c0,0.23 -0.06,0.43 -0.18,0.59 -0.12,0.15 -0.29,0.29 -0.56,0.41 -0.27,0.1 -0.62,0.19 -1.09,0.25 -0.46,0.06 -1.04,0.09 -1.76,0.09 -0.7,0 -1.28,-0.03 -1.73,-0.09 -0.47,-0.06 -0.84,-0.15 -1.1,-0.25 -0.28,-0.12 -0.47,-0.26 -0.57,-0.41 -0.1,-0.16 -0.15,-0.35 -0.15,-0.59l0 -38.79c0,-0.21 0.04,-0.4 0.15,-0.56 0.1,-0.18 0.29,-0.32 0.57,-0.44 0.26,-0.1 0.63,-0.19 1.1,-0.25 0.46,-0.06 1.03,-0.09 1.73,-0.09 0.72,0 1.31,0.03 1.76,0.09 0.47,0.06 0.82,0.15 1.09,0.25 0.26,0.12 0.44,0.26 0.56,0.44 0.12,0.16 0.18,0.35 0.18,0.56l0 38.79zm0.79 -51.86c0,1.67 -0.32,2.81 -0.95,3.41 -0.63,0.6 -1.79,0.91 -3.5,0.91 -1.68,0 -2.82,-0.29 -3.44,-0.88 -0.62,-0.59 -0.93,-1.71 -0.93,-3.35 0,-1.67 0.32,-2.81 0.96,-3.41 0.63,-0.6 1.79,-0.91 3.5,-0.91 1.68,0 2.82,0.29 3.44,0.88 0.62,0.59 0.93,1.71 0.93,3.35zm33.69 48.98c0,0.84 -0.06,1.5 -0.18,1.99 -0.1,0.49 -0.28,0.85 -0.51,1.07 -0.22,0.23 -0.57,0.46 -1.03,0.65 -0.46,0.21 -0.99,0.37 -1.57,0.5 -0.59,0.13 -1.21,0.23 -1.87,0.32 -0.66,0.09 -1.31,0.13 -1.97,0.13 -2.02,0 -3.73,-0.26 -5.16,-0.79 -1.43,-0.53 -2.6,-1.34 -3.53,-2.41 -0.91,-1.07 -1.57,-2.44 -2,-4.09 -0.41,-1.65 -0.62,-3.59 -0.62,-5.82l0 -22.61 -5.46 0c-0.43,0 -0.78,-0.23 -1.04,-0.69 -0.25,-0.46 -0.38,-1.21 -0.38,-2.25 0,-0.54 0.03,-1 0.1,-1.37 0.07,-0.38 0.18,-0.69 0.28,-0.94 0.12,-0.24 0.28,-0.41 0.46,-0.51 0.19,-0.1 0.4,-0.15 0.63,-0.15l5.41 0 0 -9.2c0,-0.21 0.04,-0.4 0.15,-0.56 0.1,-0.18 0.29,-0.32 0.57,-0.46 0.26,-0.13 0.63,-0.22 1.1,-0.28 0.46,-0.06 1.03,-0.09 1.74,-0.09 0.72,0 1.31,0.03 1.76,0.09 0.47,0.06 0.82,0.15 1.09,0.28 0.26,0.13 0.44,0.28 0.56,0.46 0.12,0.16 0.18,0.35 0.18,0.56l0 9.2 9.88 0c0.24,0 0.43,0.04 0.6,0.15 0.16,0.1 0.32,0.28 0.44,0.51 0.13,0.25 0.22,0.56 0.28,0.94 0.06,0.37 0.09,0.82 0.09,1.37 0,1.04 -0.13,1.79 -0.38,2.25 -0.26,0.46 -0.6,0.69 -1.03,0.69l-9.88 0 0 21.57c0,2.66 0.4,4.68 1.18,6.03 0.78,1.37 2.19,2.04 4.22,2.04 0.64,0 1.23,-0.06 1.75,-0.19 0.51,-0.13 0.97,-0.26 1.37,-0.41 0.4,-0.15 0.73,-0.28 1.03,-0.41 0.28,-0.13 0.54,-0.19 0.76,-0.19 0.15,0 0.28,0.03 0.41,0.1 0.12,0.07 0.22,0.21 0.29,0.41 0.07,0.21 0.13,0.47 0.19,0.82 0.06,0.34 0.09,0.78 0.09,1.29zm38.84 2.93c0,0.34 -0.12,0.6 -0.34,0.78 -0.23,0.18 -0.54,0.29 -0.95,0.38 -0.4,0.09 -0.99,0.13 -1.76,0.13 -0.74,0 -1.34,-0.04 -1.78,-0.13 -0.44,-0.09 -0.76,-0.21 -0.97,-0.38 -0.21,-0.18 -0.31,-0.43 -0.31,-0.78l0 -3.88c-1.69,1.81 -3.57,3.22 -5.66,4.22 -2.09,0.98 -4.29,1.48 -6.62,1.48 -2.04,0 -3.9,-0.27 -5.54,-0.79 -1.65,-0.53 -3.06,-1.31 -4.22,-2.31 -1.16,-1 -2.07,-2.25 -2.72,-3.7 -0.65,-1.47 -0.97,-3.13 -0.97,-5 0,-2.19 0.44,-4.09 1.34,-5.69 0.88,-1.62 2.16,-2.95 3.84,-4.01 1.66,-1.06 3.7,-1.87 6.12,-2.4 2.41,-0.53 5.13,-0.79 8.15,-0.79l5.35 0 0 -3.03c0,-1.48 -0.16,-2.81 -0.47,-3.97 -0.32,-1.15 -0.82,-2.1 -1.53,-2.87 -0.71,-0.76 -1.62,-1.34 -2.74,-1.72 -1.12,-0.4 -2.5,-0.59 -4.13,-0.59 -1.75,0 -3.32,0.21 -4.7,0.63 -1.4,0.43 -2.62,0.88 -3.66,1.4 -1.04,0.51 -1.93,0.97 -2.63,1.4 -0.69,0.43 -1.22,0.63 -1.56,0.63 -0.23,0 -0.44,-0.06 -0.6,-0.17 -0.17,-0.1 -0.32,-0.28 -0.46,-0.52 -0.13,-0.22 -0.22,-0.52 -0.28,-0.87 -0.06,-0.37 -0.09,-0.75 -0.09,-1.19 0,-0.7 0.04,-1.28 0.15,-1.69 0.1,-0.41 0.35,-0.81 0.73,-1.18 0.38,-0.37 1.06,-0.81 2,-1.32 0.94,-0.5 2.04,-0.97 3.28,-1.4 1.22,-0.41 2.57,-0.76 4.04,-1.04 1.45,-0.28 2.94,-0.41 4.42,-0.41 2.78,0 5.15,0.31 7.1,0.94 1.96,0.63 3.53,1.57 4.74,2.79 1.21,1.22 2.07,2.74 2.62,4.54 0.54,1.81 0.82,3.93 0.82,6.34l0 26.17zm-7.06 -17.76l-6.07 0c-1.94,0 -3.63,0.16 -5.07,0.5 -1.43,0.32 -2.62,0.82 -3.57,1.47 -0.94,0.65 -1.63,1.41 -2.09,2.32 -0.44,0.91 -0.66,1.96 -0.66,3.13 0,2.01 0.63,3.62 1.91,4.81 1.28,1.19 3.06,1.79 5.37,1.79 1.85,0 3.59,-0.47 5.18,-1.43 1.59,-0.94 3.26,-2.4 5.01,-4.35l0 -8.25zm28.53 17.72c0,0.23 -0.06,0.43 -0.18,0.59 -0.12,0.15 -0.29,0.29 -0.56,0.41 -0.26,0.1 -0.62,0.19 -1.09,0.25 -0.46,0.06 -1.04,0.09 -1.76,0.09 -0.71,0 -1.28,-0.03 -1.74,-0.09 -0.47,-0.06 -0.84,-0.15 -1.1,-0.25 -0.28,-0.12 -0.47,-0.26 -0.57,-0.41 -0.1,-0.16 -0.15,-0.35 -0.15,-0.59l0 -57.54c0,-0.23 0.04,-0.44 0.15,-0.6 0.1,-0.18 0.29,-0.32 0.57,-0.44 0.26,-0.1 0.63,-0.19 1.1,-0.25 0.46,-0.06 1.03,-0.09 1.74,-0.09 0.72,0 1.31,0.03 1.76,0.09 0.47,0.06 0.82,0.15 1.09,0.25 0.26,0.12 0.44,0.26 0.56,0.44 0.12,0.16 0.18,0.37 0.18,0.6l0 57.54zm72.33 -6.78c0,0.46 -0.01,0.85 -0.04,1.21 -0.03,0.34 -0.07,0.63 -0.15,0.9 -0.07,0.25 -0.16,0.48 -0.28,0.69 -0.12,0.19 -0.32,0.44 -0.6,0.72 -0.29,0.29 -0.9,0.73 -1.81,1.32 -0.93,0.59 -2.07,1.16 -3.44,1.72 -1.37,0.56 -2.93,1.03 -4.69,1.41 -1.78,0.4 -3.7,0.59 -5.81,0.59 -3.62,0 -6.9,-0.6 -9.81,-1.81 -2.91,-1.21 -5.41,-2.98 -7.45,-5.35 -2.06,-2.35 -3.65,-5.26 -4.75,-8.72 -1.1,-3.47 -1.66,-7.45 -1.66,-11.97 0,-4.63 0.6,-8.75 1.79,-12.38 1.19,-3.62 2.87,-6.69 5.03,-9.2 2.16,-2.51 4.73,-4.43 7.75,-5.75 3,-1.32 6.34,-1.99 9.98,-1.99 1.62,0 3.19,0.15 4.71,0.44 1.53,0.31 2.94,0.68 4.23,1.13 1.29,0.46 2.44,0.99 3.46,1.59 1,0.59 1.71,1.09 2.09,1.47 0.4,0.38 0.65,0.67 0.76,0.88 0.12,0.19 0.21,0.43 0.28,0.71 0.07,0.28 0.13,0.6 0.18,0.97 0.04,0.38 0.06,0.82 0.06,1.34 0,0.59 -0.03,1.07 -0.09,1.47 -0.06,0.41 -0.15,0.75 -0.26,1.03 -0.1,0.26 -0.25,0.47 -0.41,0.6 -0.15,0.13 -0.35,0.19 -0.57,0.19 -0.41,0 -0.97,-0.28 -1.71,-0.84 -0.72,-0.56 -1.65,-1.18 -2.79,-1.85 -1.15,-0.67 -2.53,-1.29 -4.16,-1.85 -1.65,-0.56 -3.6,-0.84 -5.88,-0.84 -2.5,0 -4.76,0.5 -6.79,1.48 -2.04,1 -3.79,2.46 -5.23,4.38 -1.44,1.93 -2.57,4.28 -3.37,7.06 -0.79,2.78 -1.19,5.95 -1.19,9.51 0,3.54 0.38,6.67 1.15,9.39 0.76,2.72 1.87,5 3.29,6.82 1.43,1.82 3.19,3.2 5.26,4.15 2.09,0.93 4.44,1.4 7.07,1.4 2.22,0 4.18,-0.28 5.84,-0.82 1.66,-0.55 3.07,-1.15 4.23,-1.82 1.18,-0.68 2.13,-1.28 2.88,-1.82 0.76,-0.54 1.35,-0.82 1.78,-0.82 0.21,0 0.38,0.04 0.53,0.13 0.15,0.09 0.25,0.25 0.34,0.49 0.09,0.25 0.16,0.59 0.21,1.01 0.04,0.43 0.06,0.97 0.06,1.63zm17.43 6.78c0,0.23 -0.06,0.43 -0.18,0.59 -0.12,0.15 -0.29,0.29 -0.56,0.41 -0.26,0.1 -0.62,0.19 -1.09,0.25 -0.46,0.06 -1.04,0.09 -1.76,0.09 -0.7,0 -1.28,-0.03 -1.73,-0.09 -0.47,-0.06 -0.84,-0.15 -1.1,-0.25 -0.28,-0.12 -0.47,-0.26 -0.57,-0.41 -0.1,-0.16 -0.15,-0.35 -0.15,-0.59l0 -57.54c0,-0.23 0.04,-0.44 0.15,-0.6 0.1,-0.18 0.29,-0.32 0.57,-0.44 0.26,-0.1 0.63,-0.19 1.1,-0.25 0.45,-0.06 1.03,-0.09 1.73,-0.09 0.72,0 1.31,0.03 1.76,0.09 0.47,0.06 0.82,0.15 1.09,0.25 0.26,0.12 0.44,0.26 0.56,0.44 0.12,0.16 0.18,0.37 0.18,0.6l0 57.54zm21.52 0c0,0.23 -0.06,0.43 -0.18,0.59 -0.12,0.15 -0.3,0.29 -0.56,0.41 -0.26,0.1 -0.62,0.19 -1.09,0.25 -0.46,0.06 -1.04,0.09 -1.76,0.09 -0.7,0 -1.28,-0.03 -1.73,-0.09 -0.47,-0.06 -0.84,-0.15 -1.1,-0.25 -0.28,-0.12 -0.47,-0.26 -0.57,-0.41 -0.1,-0.16 -0.15,-0.35 -0.15,-0.59l0 -38.79c0,-0.24 0.04,-0.43 0.15,-0.59 0.1,-0.15 0.29,-0.29 0.57,-0.43 0.26,-0.13 0.63,-0.22 1.1,-0.26 0.46,-0.04 1.03,-0.06 1.73,-0.06 0.72,0 1.31,0.01 1.76,0.06 0.47,0.04 0.82,0.13 1.09,0.26 0.26,0.13 0.44,0.28 0.56,0.43 0.12,0.16 0.18,0.35 0.18,0.59l0 38.79zm-0.81 -57.68c0.18,-0.31 0.38,-0.57 0.6,-0.76 0.23,-0.21 0.51,-0.37 0.85,-0.49 0.32,-0.1 0.73,-0.19 1.22,-0.25 0.49,-0.06 1.09,-0.09 1.78,-0.09 0.79,0 1.45,0.04 1.95,0.15 0.5,0.1 0.85,0.25 1.06,0.44 0.21,0.18 0.28,0.4 0.25,0.65 -0.03,0.23 -0.15,0.49 -0.38,0.75l-7.81 10.04c-0.23,0.29 -0.44,0.52 -0.62,0.69 -0.19,0.18 -0.41,0.31 -0.65,0.41 -0.25,0.1 -0.57,0.18 -0.96,0.22 -0.38,0.04 -0.87,0.06 -1.44,0.06 -0.63,0 -1.13,-0.04 -1.51,-0.13 -0.37,-0.09 -0.63,-0.21 -0.79,-0.34 -0.16,-0.15 -0.22,-0.34 -0.18,-0.56 0.04,-0.23 0.16,-0.52 0.37,-0.82l6.25 -9.97zm48.53 57.68c0,0.23 -0.06,0.43 -0.18,0.59 -0.12,0.15 -0.29,0.29 -0.56,0.41 -0.26,0.1 -0.62,0.19 -1.09,0.25 -0.45,0.06 -1.03,0.09 -1.72,0.09 -0.73,0 -1.32,-0.03 -1.78,-0.09 -0.47,-0.06 -0.82,-0.15 -1.09,-0.25 -0.26,-0.12 -0.44,-0.26 -0.56,-0.41 -0.12,-0.16 -0.18,-0.35 -0.18,-0.59l0 -22.72c0,-2.2 -0.18,-4 -0.52,-5.34 -0.34,-1.35 -0.84,-2.51 -1.5,-3.5 -0.66,-0.97 -1.5,-1.72 -2.54,-2.23 -1.04,-0.51 -2.25,-0.78 -3.62,-0.78 -1.78,0 -3.54,0.63 -5.31,1.9 -1.78,1.26 -3.63,3.12 -5.57,5.56l0 27.11c0,0.23 -0.06,0.43 -0.18,0.59 -0.12,0.15 -0.29,0.29 -0.56,0.41 -0.27,0.1 -0.62,0.19 -1.09,0.25 -0.46,0.06 -1.04,0.09 -1.76,0.09 -0.7,0 -1.28,-0.03 -1.73,-0.09 -0.47,-0.06 -0.84,-0.15 -1.1,-0.25 -0.28,-0.12 -0.47,-0.26 -0.57,-0.41 -0.1,-0.16 -0.15,-0.35 -0.15,-0.59l0 -38.79c0,-0.24 0.04,-0.43 0.13,-0.59 0.09,-0.15 0.25,-0.29 0.52,-0.43 0.26,-0.13 0.59,-0.22 1,-0.26 0.4,-0.04 0.94,-0.06 1.6,-0.06 0.63,0 1.16,0.01 1.57,0.06 0.43,0.04 0.75,0.13 0.98,0.26 0.22,0.13 0.4,0.28 0.5,0.43 0.09,0.16 0.15,0.35 0.15,0.59l0 5.13c2.18,-2.45 4.34,-4.25 6.51,-5.38 2.16,-1.13 4.34,-1.71 6.55,-1.71 2.57,0 4.75,0.44 6.51,1.31 1.76,0.88 3.19,2.06 4.28,3.51 1.09,1.47 1.87,3.19 2.34,5.16 0.47,1.97 0.7,4.34 0.7,7.09l0 23.67zm21.41 0c0,0.23 -0.06,0.43 -0.18,0.59 -0.12,0.15 -0.29,0.29 -0.56,0.41 -0.26,0.1 -0.62,0.19 -1.09,0.25 -0.46,0.06 -1.04,0.09 -1.76,0.09 -0.7,0 -1.28,-0.03 -1.74,-0.09 -0.47,-0.06 -0.84,-0.15 -1.1,-0.25 -0.28,-0.12 -0.47,-0.26 -0.57,-0.41 -0.1,-0.16 -0.15,-0.35 -0.15,-0.59l0 -38.79c0,-0.21 0.04,-0.4 0.15,-0.56 0.1,-0.18 0.29,-0.32 0.57,-0.44 0.26,-0.1 0.63,-0.19 1.1,-0.25 0.46,-0.06 1.03,-0.09 1.74,-0.09 0.72,0 1.31,0.03 1.76,0.09 0.47,0.06 0.82,0.15 1.09,0.25 0.26,0.12 0.44,0.26 0.56,0.44 0.12,0.16 0.18,0.35 0.18,0.56l0 38.79zm0.79 -51.86c0,1.67 -0.32,2.81 -0.96,3.41 -0.63,0.6 -1.79,0.91 -3.5,0.91 -1.67,0 -2.82,-0.29 -3.44,-0.88 -0.62,-0.59 -0.93,-1.71 -0.93,-3.35 0,-1.67 0.32,-2.81 0.96,-3.41 0.63,-0.6 1.79,-0.91 3.5,-0.91 1.68,0 2.82,0.29 3.44,0.88 0.62,0.59 0.93,1.71 0.93,3.35zm41.45 45.89c0,0.48 -0.01,0.91 -0.04,1.26 -0.03,0.37 -0.07,0.66 -0.15,0.91 -0.07,0.25 -0.16,0.46 -0.26,0.65 -0.1,0.19 -0.32,0.47 -0.69,0.82 -0.35,0.37 -0.97,0.81 -1.82,1.35 -0.87,0.53 -1.84,1.01 -2.91,1.43 -1.09,0.43 -2.25,0.76 -3.51,1.01 -1.26,0.26 -2.57,0.4 -3.93,0.4 -2.79,0 -5.26,-0.46 -7.41,-1.38 -2.16,-0.91 -3.97,-2.25 -5.41,-4.02 -1.46,-1.76 -2.56,-3.94 -3.32,-6.5 -0.76,-2.57 -1.15,-5.53 -1.15,-8.89 0,-3.81 0.47,-7.09 1.4,-9.84 0.94,-2.74 2.22,-4.99 3.84,-6.73 1.63,-1.75 3.55,-3.04 5.74,-3.9 2.2,-0.84 4.59,-1.26 7.15,-1.26 1.24,0 2.43,0.12 3.59,0.35 1.18,0.22 2.23,0.53 3.22,0.9 0.97,0.38 1.85,0.81 2.6,1.31 0.76,0.49 1.32,0.91 1.66,1.25 0.35,0.35 0.59,0.63 0.72,0.82 0.12,0.21 0.23,0.44 0.32,0.72 0.07,0.26 0.13,0.57 0.16,0.93 0.03,0.34 0.04,0.78 0.04,1.29 0,1.12 -0.13,1.9 -0.38,2.35 -0.27,0.44 -0.58,0.66 -0.96,0.66 -0.43,0 -0.93,-0.23 -1.48,-0.72 -0.56,-0.47 -1.26,-1 -2.13,-1.57 -0.87,-0.57 -1.91,-1.1 -3.13,-1.57 -1.22,-0.48 -2.66,-0.72 -4.32,-0.72 -3.43,0 -6.06,1.31 -7.88,3.94 -1.82,2.62 -2.74,6.43 -2.74,11.41 0,2.48 0.23,4.67 0.71,6.56 0.48,1.87 1.18,3.44 2.1,4.7 0.91,1.25 2.04,2.19 3.38,2.81 1.34,0.62 2.87,0.93 4.59,0.93 1.65,0 3.09,-0.27 4.32,-0.78 1.24,-0.51 2.29,-1.09 3.21,-1.72 0.91,-0.62 1.68,-1.18 2.29,-1.67 0.62,-0.52 1.09,-0.76 1.44,-0.76 0.19,0 0.37,0.06 0.51,0.18 0.15,0.12 0.27,0.31 0.37,0.57 0.1,0.28 0.17,0.62 0.22,1.04 0.04,0.41 0.06,0.91 0.06,1.48z"/>
   <path class="fil0" d="M557.14 334.55c0,3.16 -0.41,6.07 -1.25,8.73 -0.82,2.65 -2.07,4.94 -3.72,6.87 -1.65,1.93 -3.72,3.43 -6.19,4.5 -2.48,1.07 -5.37,1.62 -8.63,1.62 -3.19,0 -5.97,-0.47 -8.34,-1.43 -2.37,-0.94 -4.34,-2.32 -5.91,-4.13 -1.57,-1.81 -2.75,-4.01 -3.53,-6.59 -0.78,-2.59 -1.16,-5.51 -1.16,-8.79 0,-3.16 0.41,-6.07 1.22,-8.72 0.82,-2.66 2.06,-4.96 3.7,-6.88 1.65,-1.93 3.7,-3.41 6.18,-4.48 2.47,-1.06 5.35,-1.59 8.64,-1.59 3.19,0 5.97,0.47 8.34,1.43 2.37,0.94 4.34,2.32 5.91,4.13 1.57,1.81 2.77,4 3.56,6.59 0.78,2.59 1.18,5.5 1.18,8.75zm-7.41 0.45c0,-2.1 -0.19,-4.09 -0.59,-5.95 -0.38,-1.87 -1.03,-3.5 -1.93,-4.91 -0.88,-1.41 -2.1,-2.53 -3.63,-3.34 -1.51,-0.82 -3.43,-1.24 -5.71,-1.24 -2.1,0 -3.91,0.37 -5.43,1.12 -1.51,0.75 -2.75,1.81 -3.73,3.18 -0.98,1.37 -1.71,2.98 -2.17,4.85 -0.49,1.87 -0.72,3.91 -0.72,6.12 0,2.13 0.19,4.13 0.59,6 0.38,1.87 1.03,3.5 1.94,4.9 0.91,1.38 2.13,2.5 3.65,3.31 1.53,0.82 3.44,1.24 5.72,1.24 2.07,0 3.87,-0.37 5.4,-1.12 1.53,-0.75 2.78,-1.79 3.76,-3.15 0.98,-1.35 1.7,-2.97 2.16,-4.84 0.46,-1.87 0.69,-3.93 0.69,-6.16z"/>
  </g>
  <path class="fil1" d="M76.38 456.96c0,0.33 -0.09,0.64 -0.28,0.91 -0.19,0.26 -0.53,0.48 -1.02,0.65 -0.48,0.16 -1.14,0.29 -1.95,0.4 -0.81,0.1 -1.84,0.16 -3.08,0.16 -1.22,0 -2.24,-0.05 -3.05,-0.16 -0.81,-0.1 -1.45,-0.24 -1.93,-0.4 -0.47,-0.17 -0.81,-0.4 -1,-0.65 -0.21,-0.27 -0.31,-0.58 -0.31,-0.91l0 -53.19 -0.1 0 -18.87 53.14c-0.14,0.43 -0.34,0.79 -0.65,1.09 -0.31,0.29 -0.7,0.52 -1.24,0.69 -0.52,0.16 -1.19,0.28 -1.98,0.33 -0.81,0.05 -1.79,0.07 -2.93,0.07 -1.15,0 -2.12,-0.03 -2.93,-0.12 -0.81,-0.09 -1.48,-0.22 -2,-0.41 -0.52,-0.19 -0.93,-0.41 -1.24,-0.67 -0.29,-0.27 -0.5,-0.6 -0.6,-0.96l-18.21 -53.14 -0.1 0 0 53.19c0,0.33 -0.09,0.64 -0.28,0.91 -0.19,0.26 -0.54,0.48 -1.03,0.65 -0.52,0.16 -1.17,0.29 -1.96,0.4 -0.79,0.1 -1.81,0.16 -3.05,0.16 -1.22,0 -2.24,-0.05 -3.05,-0.16 -0.81,-0.1 -1.46,-0.24 -1.95,-0.4 -0.48,-0.17 -0.82,-0.4 -1.01,-0.65 -0.19,-0.27 -0.28,-0.58 -0.28,-0.91l0 -58.22c0,-1.72 0.45,-3.03 1.36,-3.94 0.91,-0.91 2.12,-1.36 3.65,-1.36l8.68 0c1.55,0 2.9,0.12 4,0.38 1.12,0.26 2.08,0.67 2.89,1.26 0.79,0.58 1.48,1.36 2.02,2.33 0.53,0.97 1.02,2.15 1.41,3.57l14.08 38.92 0.21 0 14.58 -38.84c0.43,-1.41 0.91,-2.6 1.43,-3.58 0.53,-0.97 1.14,-1.76 1.83,-2.36 0.69,-0.6 1.52,-1.03 2.45,-1.29 0.95,-0.26 2.05,-0.38 3.29,-0.38l8.96 0c0.91,0 1.69,0.12 2.34,0.36 0.65,0.22 1.21,0.57 1.62,1.03 0.43,0.45 0.74,1 0.97,1.65 0.22,0.65 0.33,1.41 0.33,2.26l0 58.22zm64.41 -3.14c0.4,1.21 0.66,2.17 0.76,2.88 0.1,0.71 -0.04,1.24 -0.4,1.6 -0.38,0.34 -1.03,0.57 -1.98,0.65 -0.93,0.09 -2.24,0.12 -3.88,0.12 -1.72,0 -3.07,-0.02 -4.02,-0.07 -0.96,-0.05 -1.69,-0.16 -2.2,-0.31 -0.5,-0.16 -0.84,-0.36 -1.05,-0.64 -0.21,-0.26 -0.38,-0.62 -0.5,-1.05l-4.29 -13.13 -24.64 0 -4.12 12.77c-0.14,0.48 -0.31,0.88 -0.53,1.19 -0.21,0.33 -0.57,0.57 -1.05,0.76 -0.48,0.19 -1.17,0.31 -2.07,0.38 -0.9,0.07 -2.07,0.1 -3.52,0.1 -1.55,0 -2.76,-0.05 -3.64,-0.16 -0.88,-0.1 -1.48,-0.34 -1.81,-0.72 -0.34,-0.4 -0.46,-0.95 -0.36,-1.65 0.1,-0.71 0.36,-1.64 0.76,-2.83l20.13 -57.98c0.19,-0.57 0.43,-1.03 0.7,-1.38 0.26,-0.36 0.69,-0.62 1.28,-0.81 0.6,-0.19 1.41,-0.31 2.46,-0.36 1.03,-0.05 2.41,-0.07 4.14,-0.07 1.98,0 3.57,0.02 4.74,0.07 1.19,0.05 2.1,0.17 2.76,0.36 0.65,0.19 1.12,0.46 1.41,0.83 0.28,0.38 0.53,0.88 0.73,1.51l20.19 57.93zm-29.98 -47.97l-0.05 0 -9.1 27.79 18.33 0 -9.18 -27.79zm86.93 -2.26c0,0.97 -0.04,1.81 -0.12,2.52 -0.09,0.71 -0.21,1.27 -0.36,1.69 -0.16,0.43 -0.33,0.72 -0.55,0.88 -0.22,0.17 -0.48,0.26 -0.77,0.26 -0.45,0 -1.15,-0.31 -2.12,-0.91 -0.98,-0.6 -2.27,-1.27 -3.89,-1.98 -1.62,-0.7 -3.53,-1.38 -5.77,-1.98 -2.24,-0.6 -4.84,-0.91 -7.81,-0.91 -3.15,0 -6.01,0.55 -8.56,1.64 -2.57,1.1 -4.75,2.65 -6.56,4.65 -1.81,2.02 -3.21,4.41 -4.19,7.24 -0.98,2.81 -1.46,5.91 -1.46,9.32 0,3.74 0.5,7.03 1.48,9.89 1,2.84 2.39,5.22 4.17,7.15 1.79,1.91 3.94,3.36 6.44,4.34 2.51,0.98 5.29,1.47 8.31,1.47 1.48,0 2.95,-0.17 4.39,-0.5 1.46,-0.34 2.81,-0.86 4.05,-1.54l0 -15.23 -12.35 0c-0.6,0 -1.07,-0.38 -1.41,-1.14 -0.33,-0.76 -0.5,-2.03 -0.5,-3.86 0,-0.93 0.03,-1.72 0.12,-2.36 0.09,-0.64 0.22,-1.15 0.38,-1.53 0.17,-0.4 0.38,-0.67 0.6,-0.86 0.24,-0.19 0.52,-0.27 0.81,-0.27l22.06 0c0.53,0 1.02,0.08 1.43,0.27 0.43,0.19 0.79,0.47 1.12,0.85 0.31,0.36 0.57,0.81 0.72,1.33 0.17,0.53 0.26,1.14 0.26,1.81l0 26.05c0,1.02 -0.17,1.9 -0.53,2.65 -0.34,0.76 -1.07,1.36 -2.17,1.79 -1.09,0.45 -2.45,0.9 -4.07,1.38 -1.62,0.47 -3.29,0.88 -5.03,1.21 -1.72,0.34 -3.48,0.6 -5.26,0.76 -1.76,0.17 -3.53,0.26 -5.32,0.26 -5.22,0 -9.89,-0.76 -14.03,-2.26 -4.12,-1.5 -7.62,-3.67 -10.48,-6.51 -2.86,-2.84 -5.05,-6.31 -6.56,-10.41 -1.52,-4.1 -2.27,-8.73 -2.27,-13.92 0,-5.36 0.81,-10.17 2.43,-14.42 1.6,-4.27 3.9,-7.89 6.86,-10.87 2.96,-2.98 6.53,-5.26 10.74,-6.84 4.19,-1.59 8.86,-2.38 13.99,-2.38 2.84,0 5.41,0.19 7.74,0.58 2.31,0.4 4.34,0.86 6.08,1.43 1.72,0.55 3.17,1.15 4.31,1.79 1.15,0.66 1.95,1.21 2.4,1.69 0.46,0.46 0.79,1.14 0.98,2 0.21,0.84 0.31,2.12 0.31,3.81zm63.6 50.23c0.4,1.21 0.66,2.17 0.76,2.88 0.1,0.71 -0.03,1.24 -0.4,1.6 -0.38,0.34 -1.03,0.57 -1.98,0.65 -0.93,0.09 -2.24,0.12 -3.88,0.12 -1.72,0 -3.07,-0.02 -4.01,-0.07 -0.97,-0.05 -1.69,-0.16 -2.2,-0.31 -0.5,-0.16 -0.85,-0.36 -1.05,-0.64 -0.21,-0.26 -0.38,-0.62 -0.5,-1.05l-4.29 -13.13 -24.64 0 -4.12 12.77c-0.14,0.48 -0.31,0.88 -0.54,1.19 -0.21,0.33 -0.57,0.57 -1.05,0.76 -0.48,0.19 -1.17,0.31 -2.07,0.38 -0.9,0.07 -2.07,0.1 -3.51,0.1 -1.55,0 -2.76,-0.05 -3.64,-0.16 -0.88,-0.1 -1.48,-0.34 -1.81,-0.72 -0.34,-0.4 -0.46,-0.95 -0.36,-1.65 0.1,-0.71 0.36,-1.64 0.76,-2.83l20.13 -57.98c0.19,-0.57 0.43,-1.03 0.71,-1.38 0.26,-0.36 0.69,-0.62 1.27,-0.81 0.6,-0.19 1.41,-0.31 2.46,-0.36 1.03,-0.05 2.41,-0.07 4.13,-0.07 1.98,0 3.57,0.02 4.74,0.07 1.19,0.05 2.1,0.17 2.76,0.36 0.66,0.19 1.12,0.46 1.41,0.83 0.28,0.38 0.53,0.88 0.72,1.51l20.19 57.93zm-29.98 -47.97l-0.05 0 -9.1 27.79 18.33 0 -9.18 -27.79zm71.65 47.37c0,1 -0.04,1.86 -0.12,2.55 -0.09,0.69 -0.22,1.26 -0.38,1.71 -0.17,0.46 -0.38,0.79 -0.64,0.98 -0.26,0.21 -0.55,0.31 -0.88,0.31l-29.93 0c-1.1,0 -2.03,-0.33 -2.79,-0.98 -0.76,-0.65 -1.14,-1.72 -1.14,-3.2l0 -59.34c0,-0.33 0.1,-0.64 0.33,-0.91 0.22,-0.26 0.58,-0.48 1.09,-0.65 0.5,-0.17 1.19,-0.29 2.05,-0.4 0.86,-0.1 1.93,-0.15 3.2,-0.15 1.31,0 2.39,0.05 3.24,0.15 0.83,0.1 1.52,0.22 2.02,0.4 0.5,0.17 0.86,0.4 1.09,0.65 0.22,0.28 0.33,0.58 0.33,0.91l0 52.57 20.52 0c0.33,0 0.64,0.09 0.88,0.28 0.26,0.19 0.46,0.48 0.64,0.91 0.17,0.41 0.29,0.96 0.38,1.67 0.09,0.69 0.12,1.53 0.12,2.55zm40.35 0c0,1 -0.03,1.86 -0.12,2.55 -0.09,0.69 -0.22,1.26 -0.38,1.71 -0.17,0.46 -0.38,0.79 -0.64,0.98 -0.26,0.21 -0.55,0.31 -0.88,0.31l-29.93 0c-1.1,0 -2.03,-0.33 -2.79,-0.98 -0.76,-0.65 -1.14,-1.72 -1.14,-3.2l0 -59.34c0,-0.33 0.1,-0.64 0.33,-0.91 0.22,-0.26 0.59,-0.48 1.09,-0.65 0.5,-0.17 1.19,-0.29 2.05,-0.4 0.86,-0.1 1.93,-0.15 3.21,-0.15 1.31,0 2.39,0.05 3.24,0.15 0.83,0.1 1.52,0.22 2.02,0.4 0.5,0.17 0.86,0.4 1.09,0.65 0.22,0.28 0.33,0.58 0.33,0.91l0 52.57 20.52 0c0.33,0 0.64,0.09 0.88,0.28 0.26,0.19 0.47,0.48 0.64,0.91 0.17,0.41 0.29,0.96 0.38,1.67 0.09,0.69 0.12,1.53 0.12,2.55zm57.98 0.6c0.4,1.21 0.65,2.17 0.76,2.88 0.1,0.71 -0.03,1.24 -0.4,1.6 -0.38,0.34 -1.03,0.57 -1.98,0.65 -0.93,0.09 -2.24,0.12 -3.88,0.12 -1.72,0 -3.07,-0.02 -4.01,-0.07 -0.97,-0.05 -1.69,-0.16 -2.2,-0.31 -0.5,-0.16 -0.85,-0.36 -1.05,-0.64 -0.21,-0.26 -0.38,-0.62 -0.5,-1.05l-4.29 -13.13 -24.64 0 -4.12 12.77c-0.14,0.48 -0.31,0.88 -0.53,1.19 -0.21,0.33 -0.57,0.57 -1.05,0.76 -0.48,0.19 -1.17,0.31 -2.07,0.38 -0.9,0.07 -2.07,0.1 -3.51,0.1 -1.55,0 -2.76,-0.05 -3.64,-0.16 -0.88,-0.1 -1.48,-0.34 -1.81,-0.72 -0.34,-0.4 -0.46,-0.95 -0.36,-1.65 0.1,-0.71 0.36,-1.64 0.76,-2.83l20.12 -57.98c0.19,-0.57 0.43,-1.03 0.71,-1.38 0.26,-0.36 0.69,-0.62 1.27,-0.81 0.6,-0.19 1.41,-0.31 2.46,-0.36 1.03,-0.05 2.41,-0.07 4.14,-0.07 1.98,0 3.57,0.02 4.74,0.07 1.19,0.05 2.1,0.17 2.76,0.36 0.66,0.19 1.12,0.46 1.41,0.83 0.28,0.38 0.53,0.88 0.72,1.51l20.19 57.93zm-29.98 -47.97l-0.05 0 -9.1 27.79 18.33 0 -9.18 -27.79zm89.64 48.26c0,0.77 -0.14,1.46 -0.4,2.08 -0.28,0.6 -0.64,1.1 -1.1,1.52 -0.45,0.4 -0.98,0.69 -1.6,0.88 -0.64,0.19 -1.26,0.27 -1.9,0.27l-5.67 0c-1.19,0 -2.21,-0.12 -3.07,-0.34 -0.85,-0.24 -1.64,-0.67 -2.36,-1.29 -0.74,-0.62 -1.43,-1.46 -2.1,-2.53 -0.67,-1.05 -1.43,-2.43 -2.27,-4.12l-16.21 -30.55c-0.95,-1.83 -1.9,-3.79 -2.88,-5.89 -0.98,-2.1 -1.84,-4.15 -2.62,-6.13l-0.1 0c0.14,2.43 0.24,4.84 0.31,7.25 0.07,2.39 0.1,4.89 0.1,7.44l0 34.2c0,0.33 -0.09,0.64 -0.28,0.91 -0.19,0.26 -0.52,0.48 -0.96,0.67 -0.45,0.19 -1.07,0.33 -1.84,0.43 -0.78,0.1 -1.78,0.16 -2.98,0.16 -1.19,0 -2.17,-0.05 -2.95,-0.16 -0.78,-0.1 -1.38,-0.24 -1.81,-0.43 -0.45,-0.17 -0.76,-0.41 -0.91,-0.67 -0.17,-0.28 -0.26,-0.59 -0.26,-0.91l0 -58.72c0,-1.58 0.46,-2.77 1.39,-3.57 0.91,-0.79 2.05,-1.19 3.41,-1.19l7.12 0c1.28,0 2.36,0.1 3.24,0.33 0.88,0.22 1.66,0.59 2.34,1.09 0.69,0.5 1.34,1.21 1.95,2.1 0.6,0.88 1.22,2 1.86,3.31l12.7 23.9c0.74,1.45 1.46,2.88 2.19,4.27 0.72,1.39 1.43,2.79 2.08,4.19 0.67,1.39 1.33,2.77 1.96,4.12 0.65,1.36 1.27,2.71 1.88,4.05l0.05 0c-0.1,-2.36 -0.19,-4.82 -0.24,-7.37 -0.05,-2.57 -0.07,-5.02 -0.07,-7.34l0 -30.67c0,-0.33 0.1,-0.64 0.31,-0.91 0.19,-0.26 0.53,-0.5 1,-0.71 0.48,-0.21 1.1,-0.34 1.88,-0.43 0.78,-0.09 1.78,-0.12 2.98,-0.12 1.15,0 2.12,0.03 2.89,0.12 0.78,0.09 1.36,0.22 1.79,0.43 0.41,0.21 0.72,0.45 0.88,0.71 0.17,0.28 0.26,0.57 0.26,0.91l0 58.72zm49.54 -0.57c0,0.98 -0.03,1.79 -0.12,2.47 -0.09,0.65 -0.21,1.19 -0.38,1.59 -0.17,0.41 -0.38,0.7 -0.64,0.89 -0.24,0.19 -0.53,0.28 -0.83,0.28l-32.77 0c-1.1,0 -2.03,-0.33 -2.79,-0.98 -0.76,-0.65 -1.14,-1.72 -1.14,-3.2l0 -56.96c0,-1.48 0.38,-2.55 1.14,-3.21 0.76,-0.66 1.69,-0.98 2.79,-0.98l32.62 0c0.29,0 0.57,0.09 0.81,0.26 0.22,0.17 0.43,0.46 0.6,0.88 0.15,0.43 0.29,0.96 0.38,1.62 0.09,0.67 0.12,1.5 0.12,2.52 0,0.95 -0.03,1.74 -0.12,2.41 -0.08,0.65 -0.21,1.19 -0.38,1.59 -0.17,0.41 -0.38,0.7 -0.6,0.89 -0.24,0.19 -0.52,0.28 -0.81,0.28l-23.31 0 0 15.92 19.64 0c0.31,0 0.59,0.09 0.83,0.28 0.26,0.19 0.47,0.46 0.64,0.86 0.17,0.38 0.29,0.89 0.38,1.57 0.08,0.65 0.12,1.45 0.12,2.38 0,0.98 -0.04,1.79 -0.12,2.43 -0.09,0.64 -0.21,1.15 -0.38,1.53 -0.17,0.4 -0.38,0.67 -0.64,0.83 -0.24,0.17 -0.52,0.26 -0.83,0.26l-19.64 0 0 18.4 23.47 0c0.31,0 0.59,0.09 0.83,0.28 0.26,0.19 0.46,0.48 0.64,0.9 0.17,0.4 0.29,0.93 0.38,1.59 0.09,0.67 0.12,1.48 0.12,2.46zm46.16 -14.39c0,3.45 -0.64,6.44 -1.91,9.05 -1.29,2.58 -3.01,4.74 -5.2,6.48 -2.2,1.72 -4.76,3.03 -7.69,3.91 -2.93,0.88 -6.07,1.31 -9.41,1.31 -2.26,0 -4.34,-0.19 -6.29,-0.57 -1.93,-0.38 -3.64,-0.83 -5.12,-1.36 -1.48,-0.52 -2.72,-1.07 -3.72,-1.65 -1,-0.58 -1.71,-1.1 -2.15,-1.53 -0.43,-0.45 -0.74,-1.09 -0.93,-1.91 -0.19,-0.83 -0.28,-2 -0.28,-3.55 0,-1.05 0.04,-1.91 0.1,-2.62 0.07,-0.7 0.17,-1.27 0.33,-1.72 0.16,-0.43 0.36,-0.74 0.6,-0.93 0.26,-0.19 0.55,-0.28 0.9,-0.28 0.46,0 1.14,0.28 2,0.84 0.86,0.55 1.96,1.17 3.31,1.84 1.34,0.67 2.96,1.29 4.84,1.84 1.86,0.57 4.03,0.84 6.49,0.84 1.62,0 3.07,-0.19 4.34,-0.57 1.29,-0.4 2.38,-0.93 3.27,-1.64 0.9,-0.71 1.57,-1.57 2.05,-2.6 0.46,-1.03 0.71,-2.19 0.71,-3.46 0,-1.48 -0.4,-2.76 -1.21,-3.81 -0.81,-1.07 -1.86,-2 -3.17,-2.83 -1.29,-0.83 -2.77,-1.6 -4.43,-2.33 -1.64,-0.72 -3.34,-1.48 -5.1,-2.29 -1.76,-0.81 -3.46,-1.72 -5.1,-2.76 -1.65,-1.02 -3.13,-2.24 -4.43,-3.67 -1.31,-1.43 -2.36,-3.12 -3.17,-5.08 -0.81,-1.95 -1.21,-4.29 -1.21,-7.01 0,-3.12 0.58,-5.88 1.74,-8.25 1.15,-2.36 2.72,-4.33 4.69,-5.89 1.98,-1.57 4.29,-2.74 6.96,-3.52 2.67,-0.77 5.51,-1.15 8.51,-1.15 1.53,0 3.08,0.12 4.63,0.36 1.55,0.22 3,0.55 4.34,0.95 1.34,0.41 2.53,0.86 3.58,1.36 1.03,0.52 1.72,0.93 2.07,1.27 0.33,0.33 0.55,0.62 0.67,0.84 0.12,0.24 0.22,0.55 0.31,0.95 0.09,0.38 0.14,0.86 0.17,1.46 0.03,0.58 0.05,1.31 0.05,2.19 0,0.97 -0.02,1.79 -0.07,2.46 -0.05,0.67 -0.14,1.22 -0.26,1.67 -0.12,0.43 -0.29,0.76 -0.5,0.95 -0.22,0.21 -0.52,0.31 -0.9,0.31 -0.36,0 -0.95,-0.24 -1.76,-0.71 -0.81,-0.46 -1.81,-0.98 -2.98,-1.55 -1.19,-0.55 -2.55,-1.05 -4.1,-1.5 -1.55,-0.46 -3.24,-0.69 -5.1,-0.69 -1.45,0 -2.7,0.17 -3.79,0.53 -1.07,0.34 -1.96,0.85 -2.69,1.47 -0.72,0.62 -1.27,1.36 -1.62,2.24 -0.36,0.88 -0.53,1.81 -0.53,2.77 0,1.45 0.4,2.71 1.19,3.76 0.79,1.07 1.86,2.02 3.19,2.84 1.33,0.81 2.84,1.59 4.53,2.31 1.67,0.73 3.39,1.5 5.15,2.29 1.76,0.81 3.48,1.72 5.15,2.76 1.69,1.03 3.19,2.26 4.51,3.69 1.31,1.43 2.38,3.1 3.19,5.05 0.81,1.93 1.21,4.21 1.21,6.82z"/>
  <path class="fil2" d="M298.86 0l18.7 0c6.25,0 11.36,5.11 11.36,11.36l0 17.58c-6.31,-12.8 -16.62,-23.03 -30.06,-28.94zm33.93 79.19l63.96 0c6.25,0 11.36,5.11 11.36,11.36l0 79.68c-2.88,0.54 -5.81,0.82 -8.79,0.82 -36.09,0 -65.47,-40.87 -66.53,-91.86zm-20.77 185.2l-77.75 0c-6.25,0 -11.36,-5.11 -11.36,-11.36l0 -64.19c50.7,2.41 90.61,32.64 89.78,68.59 -0.05,2.35 -0.28,4.67 -0.67,6.95zm-145.71 -79.19l-11.22 0c-6.25,0 -11.36,-5.11 -11.36,-11.36l0 -12.33c4.46,10.96 12.92,18.69 22.58,23.69z"/>
  <path class="fil3" d="M155.08 79.19l67.83 0 0 -67.83c0,-6.25 5.11,-11.36 11.36,-11.36l64.59 0c13.43,5.9 23.75,16.14 30.06,28.94l0 50.26 3.87 0c1.06,50.99 30.44,91.86 66.53,91.86 2.98,0 5.92,-0.28 8.79,-0.82l0 3.61c0,6.25 -5.11,11.36 -11.36,11.36l-55.62 0c-18.94,-4.24 -26.77,-12.36 -26.3,-41.95 0.2,-1.5 0.02,-3.04 0.02,-4.6 0,-25.09 0.29,-51.13 0.29,-77 0,-18.95 -15.51,-34.46 -34.46,-34.46l-8.14 0c-18.95,0 -34.46,15.51 -34.46,34.46l0 20.22c-1.79,8.67 -5.46,12.18 -12.16,12.97l-20.41 0c-19.26,0 -35.02,15.76 -35.02,35.02l0 8.27c0,19.26 15.76,35.02 35.02,35.02l73.55 0c0.5,0 0.99,-0.01 1.48,-0.03l0.14 0c2.95,0 6.2,-0.08 8.64,-0.3 22.56,0.73 32.29,8.81 39.6,22.9l0 57.31c0,6.25 -5.11,11.36 -11.36,11.36l-5.54 0c0.39,-2.28 0.62,-4.6 0.67,-6.95 0.82,-35.95 -39.08,-66.17 -89.78,-68.59l0 -3.65 -56.61 0c-9.66,-5.01 -18.12,-12.73 -22.58,-23.69l0 -70.96c0,-6.25 5.11,-11.36 11.36,-11.36z"/>
 </g>
</svg>
