<?xml version="1.0" encoding="UTF-8"?>
<!DOCTYPE svg PUBLIC "-//W3C//DTD SVG 1.1//EN" "http://www.w3.org/Graphics/SVG/1.1/DTD/svg11.dtd">
<!-- Creator: CorelDRAW (Versión de evaluación) -->
<svg xmlns="http://www.w3.org/2000/svg" xml:space="preserve" width="3.14872in" height="1.25524in" version="1.1" style="shape-rendering:geometricPrecision; text-rendering:geometricPrecision; image-rendering:optimizeQuality; fill-rule:evenodd; clip-rule:evenodd"
viewBox="0 0 1293.24 515.55"
 xmlns:xlink="http://www.w3.org/1999/xlink"
 xmlns:xodm="http://www.corel.com/coreldraw/odm/2003">
 <defs>
  <style type="text/css">
   <![CDATA[
    .fil2 {fill:#00497A}
    .fil3 {fill:#33CCFF}
    .fil1 {fill:#00497A;fill-rule:nonzero}
    .fil0 {fill:#33CCFF;fill-rule:nonzero}
   ]]>
  </style>
 </defs>
 <g id="Layer_x0020_1">
  <metadata id="CorelCorpID_0Corel-Layer"/>
  <path class="fil0" d="M620.06 226.2c0,0.31 -0.08,0.57 -0.23,0.79 -0.15,0.23 -0.4,0.4 -0.78,0.54 -0.38,0.13 -0.88,0.25 -1.49,0.34 -0.63,0.1 -1.38,0.13 -2.28,0.13 -1,0 -1.78,-0.04 -2.38,-0.13 -0.61,-0.1 -1.09,-0.21 -1.47,-0.34 -0.38,-0.13 -0.63,-0.31 -0.79,-0.54 -0.15,-0.21 -0.23,-0.48 -0.23,-0.79l0 -32.2 -32.97 0 0 32.2c0,0.31 -0.08,0.57 -0.23,0.79 -0.15,0.23 -0.4,0.4 -0.78,0.54 -0.36,0.13 -0.86,0.25 -1.47,0.34 -0.63,0.1 -1.4,0.13 -2.33,0.13 -0.9,0 -1.67,-0.04 -2.3,-0.13 -0.63,-0.1 -1.15,-0.21 -1.51,-0.34 -0.38,-0.13 -0.63,-0.31 -0.79,-0.54 -0.15,-0.21 -0.23,-0.48 -0.23,-0.79l0 -69.69c0,-0.31 0.08,-0.57 0.23,-0.79 0.15,-0.23 0.4,-0.4 0.79,-0.54 0.36,-0.13 0.88,-0.25 1.51,-0.34 0.63,-0.1 1.4,-0.13 2.3,-0.13 0.94,0 1.7,0.04 2.33,0.13 0.61,0.1 1.11,0.21 1.47,0.34 0.38,0.13 0.63,0.31 0.78,0.54 0.15,0.23 0.23,0.48 0.23,0.79l0 29.1 32.97 0 0 -29.1c0,-0.31 0.08,-0.56 0.23,-0.79 0.15,-0.23 0.4,-0.4 0.79,-0.54 0.38,-0.13 0.86,-0.25 1.47,-0.34 0.59,-0.1 1.38,-0.13 2.38,-0.13 0.9,0 1.65,0.04 2.28,0.13 0.61,0.1 1.11,0.21 1.49,0.34 0.38,0.13 0.63,0.31 0.78,0.54 0.15,0.21 0.23,0.48 0.23,0.79l0 69.69z"/>
  <path id="_1" class="fil0" d="M686.84 200.42c0,4.12 -0.54,7.91 -1.63,11.37 -1.07,3.45 -2.7,6.43 -4.84,8.94 -2.14,2.51 -4.84,4.46 -8.06,5.86 -3.24,1.4 -6.99,2.11 -11.24,2.11 -4.15,0 -7.77,-0.61 -10.85,-1.86 -3.08,-1.23 -5.65,-3.03 -7.7,-5.38 -2.05,-2.35 -3.58,-5.23 -4.6,-8.58 -1.01,-3.37 -1.51,-7.18 -1.51,-11.45 0,-4.12 0.54,-7.91 1.59,-11.35 1.07,-3.47 2.68,-6.45 4.83,-8.96 2.14,-2.51 4.83,-4.44 8.04,-5.84 3.22,-1.38 6.97,-2.07 11.26,-2.07 4.16,0 7.77,0.61 10.85,1.86 3.08,1.23 5.65,3.03 7.7,5.38 2.05,2.36 3.6,5.21 4.63,8.58 1.02,3.37 1.53,7.16 1.53,11.39zm-9.65 0.59c0,-2.74 -0.25,-5.32 -0.76,-7.75 -0.5,-2.43 -1.34,-4.56 -2.51,-6.39 -1.15,-1.84 -2.74,-3.29 -4.73,-4.35 -1.97,-1.07 -4.46,-1.61 -7.43,-1.61 -2.74,0 -5.09,0.48 -7.06,1.45 -1.97,0.98 -3.58,2.36 -4.86,4.14 -1.28,1.78 -2.22,3.89 -2.83,6.32 -0.63,2.43 -0.94,5.09 -0.94,7.96 0,2.78 0.25,5.38 0.76,7.81 0.5,2.43 1.34,4.56 2.53,6.37 1.19,1.8 2.78,3.26 4.75,4.31 1.99,1.07 4.48,1.61 7.45,1.61 2.7,0 5.04,-0.48 7.03,-1.46 1.99,-0.98 3.62,-2.33 4.9,-4.1 1.28,-1.76 2.22,-3.87 2.82,-6.3 0.59,-2.43 0.9,-5.11 0.9,-8.02z"/>
  <path id="_2" class="fil0" d="M733.91 212.48c0,2.58 -0.48,4.88 -1.44,6.91 -0.96,2.01 -2.3,3.71 -4.06,5.09 -1.76,1.38 -3.85,2.43 -6.28,3.14 -2.43,0.71 -5.11,1.07 -8.02,1.07 -1.8,0 -3.5,-0.13 -5.13,-0.42 -1.63,-0.27 -3.08,-0.61 -4.38,-1.05 -1.28,-0.42 -2.37,-0.86 -3.27,-1.32 -0.9,-0.46 -1.55,-0.88 -1.95,-1.25 -0.42,-0.36 -0.73,-0.9 -0.9,-1.57 -0.19,-0.67 -0.29,-1.59 -0.29,-2.76 0,-0.71 0.04,-1.3 0.11,-1.78 0.08,-0.5 0.17,-0.88 0.27,-1.19 0.11,-0.31 0.29,-0.52 0.48,-0.65 0.21,-0.13 0.44,-0.19 0.71,-0.19 0.4,0 1.02,0.25 1.82,0.77 0.8,0.5 1.8,1.05 2.97,1.65 1.17,0.59 2.57,1.15 4.17,1.65 1.61,0.52 3.45,0.77 5.53,0.77 1.57,0 2.99,-0.17 4.25,-0.52 1.28,-0.33 2.38,-0.82 3.31,-1.49 0.94,-0.65 1.65,-1.49 2.16,-2.51 0.5,-1.02 0.75,-2.22 0.75,-3.62 0,-1.42 -0.36,-2.62 -1.09,-3.58 -0.73,-0.98 -1.68,-1.84 -2.87,-2.58 -1.2,-0.75 -2.55,-1.42 -4.04,-1.99 -1.49,-0.57 -3.02,-1.19 -4.61,-1.82 -1.57,-0.65 -3.12,-1.36 -4.63,-2.16 -1.51,-0.81 -2.85,-1.78 -4.06,-2.95 -1.19,-1.17 -2.14,-2.55 -2.87,-4.15 -0.73,-1.61 -1.09,-3.52 -1.09,-5.78 0,-1.97 0.38,-3.87 1.15,-5.69 0.77,-1.82 1.91,-3.41 3.45,-4.77 1.55,-1.36 3.47,-2.47 5.76,-3.29 2.3,-0.82 4.98,-1.23 8.06,-1.23 1.34,0 2.68,0.11 4.04,0.34 1.34,0.23 2.55,0.54 3.64,0.88 1.09,0.34 2.01,0.73 2.78,1.13 0.77,0.42 1.36,0.77 1.74,1.09 0.4,0.31 0.65,0.57 0.78,0.79 0.13,0.23 0.23,0.48 0.29,0.76 0.06,0.27 0.11,0.61 0.17,1.02 0.06,0.42 0.08,0.92 0.08,1.51 0,0.63 -0.02,1.19 -0.08,1.65 -0.06,0.46 -0.15,0.84 -0.29,1.13 -0.13,0.31 -0.29,0.52 -0.48,0.65 -0.19,0.13 -0.4,0.19 -0.61,0.19 -0.34,0 -0.82,-0.21 -1.47,-0.63 -0.63,-0.4 -1.46,-0.84 -2.47,-1.32 -1.02,-0.48 -2.2,-0.92 -3.56,-1.32 -1.36,-0.42 -2.93,-0.63 -4.69,-0.63 -1.57,0 -2.97,0.17 -4.15,0.54 -1.21,0.34 -2.18,0.84 -2.95,1.49 -0.76,0.65 -1.36,1.42 -1.74,2.32 -0.4,0.88 -0.59,1.86 -0.59,2.89 0,1.46 0.38,2.68 1.13,3.68 0.75,1 1.7,1.86 2.91,2.6 1.19,0.75 2.57,1.42 4.1,2.03 1.53,0.59 3.08,1.21 4.67,1.84 1.59,0.65 3.16,1.36 4.71,2.14 1.55,0.78 2.93,1.74 4.12,2.85 1.21,1.13 2.16,2.47 2.89,4.04 0.73,1.57 1.09,3.45 1.09,5.61z"/>
  <path id="_3" class="fil0" d="M795.2 200.19c0,4.42 -0.48,8.39 -1.44,11.91 -0.94,3.5 -2.33,6.49 -4.19,8.94 -1.84,2.45 -4.13,4.35 -6.85,5.67 -2.72,1.32 -5.84,1.99 -9.34,1.99 -1.49,0 -2.87,-0.15 -4.13,-0.44 -1.28,-0.31 -2.51,-0.77 -3.73,-1.42 -1.21,-0.63 -2.41,-1.44 -3.6,-2.41 -1.21,-0.96 -2.47,-2.11 -3.81,-3.41l0 25.29c0,0.31 -0.08,0.55 -0.23,0.78 -0.15,0.23 -0.38,0.42 -0.73,0.57 -0.34,0.13 -0.8,0.25 -1.42,0.33 -0.59,0.08 -1.36,0.11 -2.3,0.11 -0.92,0 -1.67,-0.04 -2.26,-0.11 -0.61,-0.08 -1.09,-0.19 -1.44,-0.33 -0.36,-0.15 -0.61,-0.34 -0.75,-0.57 -0.13,-0.23 -0.19,-0.48 -0.19,-0.78l0 -70.55c0,-0.34 0.06,-0.61 0.17,-0.82 0.11,-0.19 0.35,-0.38 0.67,-0.52 0.34,-0.15 0.76,-0.27 1.3,-0.33 0.52,-0.06 1.17,-0.08 1.91,-0.08 0.78,0 1.44,0.02 1.95,0.08 0.5,0.06 0.92,0.17 1.26,0.31 0.34,0.15 0.57,0.34 0.71,0.54 0.13,0.21 0.19,0.48 0.19,0.82l0 6.76c1.53,-1.57 3.01,-2.93 4.42,-4.1 1.42,-1.15 2.85,-2.11 4.29,-2.87 1.44,-0.76 2.91,-1.36 4.42,-1.74 1.51,-0.4 3.1,-0.59 4.79,-0.59 3.66,0 6.76,0.71 9.34,2.12 2.57,1.44 4.67,3.37 6.3,5.84 1.63,2.47 2.82,5.34 3.56,8.62 0.75,3.27 1.11,6.74 1.11,10.4zm-9.65 1.07c0,-2.58 -0.19,-5.09 -0.59,-7.5 -0.38,-2.41 -1.07,-4.56 -2.01,-6.43 -0.96,-1.88 -2.24,-3.37 -3.85,-4.5 -1.61,-1.13 -3.62,-1.68 -6.01,-1.68 -1.21,0 -2.37,0.17 -3.54,0.54 -1.15,0.36 -2.33,0.92 -3.54,1.68 -1.19,0.77 -2.45,1.78 -3.75,3.04 -1.3,1.26 -2.7,2.81 -4.15,4.65l0 20.08c2.55,3.12 4.96,5.49 7.24,7.16 2.3,1.65 4.69,2.47 7.2,2.47 2.32,0 4.31,-0.56 5.97,-1.68 1.67,-1.13 3.01,-2.62 4.04,-4.5 1.03,-1.88 1.78,-3.96 2.28,-6.3 0.48,-2.32 0.73,-4.67 0.73,-7.03z"/>
  <path id="_4" class="fil0" d="M820.09 226.26c0,0.31 -0.08,0.55 -0.23,0.76 -0.15,0.19 -0.38,0.38 -0.73,0.54 -0.34,0.13 -0.8,0.25 -1.42,0.33 -0.59,0.08 -1.36,0.11 -2.3,0.11 -0.92,0 -1.67,-0.04 -2.26,-0.11 -0.61,-0.08 -1.09,-0.19 -1.44,-0.33 -0.36,-0.15 -0.61,-0.34 -0.75,-0.54 -0.13,-0.21 -0.19,-0.46 -0.19,-0.76l0 -50.5c0,-0.27 0.06,-0.52 0.19,-0.73 0.13,-0.23 0.38,-0.42 0.75,-0.57 0.34,-0.13 0.82,-0.25 1.44,-0.33 0.59,-0.08 1.34,-0.11 2.26,-0.11 0.94,0 1.7,0.04 2.3,0.11 0.61,0.08 1.07,0.19 1.42,0.33 0.34,0.15 0.57,0.34 0.73,0.57 0.15,0.21 0.23,0.46 0.23,0.73l0 50.5zm1.03 -67.52c0,2.18 -0.42,3.66 -1.24,4.44 -0.82,0.78 -2.34,1.19 -4.56,1.19 -2.18,0 -3.68,-0.38 -4.48,-1.15 -0.8,-0.77 -1.21,-2.22 -1.21,-4.37 0,-2.18 0.42,-3.66 1.25,-4.44 0.82,-0.78 2.33,-1.19 4.56,-1.19 2.18,0 3.68,0.38 4.48,1.15 0.81,0.76 1.21,2.22 1.21,4.36z"/>
  <path id="_5" class="fil0" d="M864.99 222.51c0,1.09 -0.08,1.95 -0.23,2.58 -0.13,0.63 -0.36,1.11 -0.67,1.4 -0.29,0.31 -0.75,0.59 -1.34,0.84 -0.59,0.27 -1.28,0.48 -2.05,0.65 -0.76,0.17 -1.57,0.31 -2.43,0.42 -0.86,0.11 -1.7,0.17 -2.57,0.17 -2.62,0 -4.86,-0.34 -6.72,-1.03 -1.86,-0.69 -3.39,-1.74 -4.6,-3.14 -1.19,-1.4 -2.05,-3.18 -2.6,-5.32 -0.54,-2.14 -0.8,-4.67 -0.8,-7.58l0 -29.44 -7.1 0c-0.55,0 -1.01,-0.31 -1.36,-0.9 -0.33,-0.59 -0.5,-1.57 -0.5,-2.93 0,-0.71 0.04,-1.3 0.13,-1.78 0.1,-0.5 0.23,-0.9 0.36,-1.23 0.15,-0.31 0.36,-0.54 0.59,-0.67 0.25,-0.13 0.52,-0.19 0.82,-0.19l7.05 0 0 -11.98c0,-0.27 0.06,-0.52 0.19,-0.73 0.13,-0.23 0.38,-0.42 0.75,-0.59 0.34,-0.17 0.82,-0.29 1.44,-0.36 0.59,-0.08 1.34,-0.11 2.26,-0.11 0.94,0 1.7,0.04 2.3,0.11 0.61,0.08 1.07,0.19 1.42,0.36 0.34,0.17 0.57,0.36 0.73,0.59 0.15,0.21 0.23,0.46 0.23,0.73l0 11.98 12.86 0c0.31,0 0.55,0.06 0.78,0.19 0.21,0.13 0.42,0.36 0.58,0.67 0.17,0.33 0.29,0.73 0.36,1.23 0.08,0.48 0.12,1.07 0.12,1.78 0,1.36 -0.17,2.33 -0.5,2.93 -0.34,0.59 -0.79,0.9 -1.34,0.9l-12.86 0 0 28.09c0,3.47 0.52,6.09 1.53,7.85 1.01,1.78 2.85,2.66 5.49,2.66 0.84,0 1.61,-0.08 2.28,-0.25 0.67,-0.17 1.26,-0.34 1.78,-0.54 0.52,-0.19 0.96,-0.36 1.34,-0.54 0.36,-0.17 0.71,-0.25 0.99,-0.25 0.19,0 0.36,0.04 0.54,0.13 0.15,0.1 0.29,0.27 0.38,0.54 0.1,0.27 0.17,0.61 0.25,1.07 0.08,0.44 0.12,1.02 0.12,1.68z"/>
  <path id="_6" class="fil0" d="M915.55 226.32c0,0.44 -0.15,0.79 -0.44,1.02 -0.31,0.23 -0.71,0.38 -1.24,0.5 -0.52,0.11 -1.28,0.17 -2.3,0.17 -0.96,0 -1.74,-0.06 -2.32,-0.17 -0.57,-0.11 -0.99,-0.27 -1.26,-0.5 -0.27,-0.23 -0.4,-0.56 -0.4,-1.02l0 -5.05c-2.2,2.35 -4.65,4.19 -7.37,5.49 -2.72,1.28 -5.59,1.93 -8.62,1.93 -2.66,0 -5.07,-0.34 -7.22,-1.03 -2.14,-0.69 -3.98,-1.7 -5.49,-3.01 -1.51,-1.3 -2.7,-2.93 -3.54,-4.82 -0.84,-1.91 -1.26,-4.08 -1.26,-6.51 0,-2.85 0.57,-5.32 1.74,-7.41 1.15,-2.11 2.82,-3.85 5,-5.23 2.16,-1.38 4.83,-2.43 7.97,-3.12 3.14,-0.69 6.68,-1.03 10.61,-1.03l6.97 0 0 -3.94c0,-1.93 -0.21,-3.66 -0.61,-5.17 -0.42,-1.49 -1.07,-2.74 -1.99,-3.73 -0.92,-0.99 -2.11,-1.74 -3.56,-2.24 -1.46,-0.52 -3.26,-0.77 -5.38,-0.77 -2.28,0 -4.33,0.27 -6.13,0.82 -1.82,0.55 -3.41,1.15 -4.77,1.82 -1.36,0.67 -2.51,1.26 -3.43,1.82 -0.9,0.55 -1.59,0.82 -2.03,0.82 -0.31,0 -0.57,-0.08 -0.78,-0.23 -0.23,-0.13 -0.42,-0.36 -0.59,-0.67 -0.17,-0.29 -0.29,-0.67 -0.36,-1.13 -0.08,-0.48 -0.11,-0.98 -0.11,-1.55 0,-0.92 0.06,-1.67 0.19,-2.2 0.13,-0.54 0.46,-1.05 0.96,-1.53 0.5,-0.48 1.38,-1.05 2.6,-1.72 1.23,-0.65 2.66,-1.26 4.27,-1.82 1.59,-0.54 3.35,-1 5.26,-1.36 1.9,-0.36 3.83,-0.54 5.76,-0.54 3.62,0 6.7,0.4 9.25,1.23 2.55,0.82 4.59,2.05 6.16,3.64 1.57,1.59 2.7,3.56 3.41,5.92 0.71,2.35 1.07,5.11 1.07,8.25l0 34.08zm-9.19 -23.13l-7.91 0c-2.53,0 -4.73,0.21 -6.61,0.65 -1.86,0.42 -3.41,1.07 -4.65,1.91 -1.23,0.84 -2.12,1.84 -2.72,3.03 -0.58,1.19 -0.86,2.55 -0.86,4.08 0,2.62 0.82,4.71 2.49,6.26 1.67,1.55 3.98,2.33 6.99,2.33 2.41,0 4.67,-0.61 6.74,-1.86 2.07,-1.23 4.25,-3.12 6.53,-5.67l0 -10.74z"/>
  <path id="_7" class="fil0" d="M943.51 226.26c0,0.31 -0.08,0.55 -0.23,0.76 -0.15,0.19 -0.38,0.38 -0.73,0.54 -0.34,0.13 -0.8,0.25 -1.42,0.33 -0.59,0.08 -1.36,0.11 -2.3,0.11 -0.92,0 -1.67,-0.04 -2.26,-0.11 -0.61,-0.08 -1.09,-0.19 -1.44,-0.33 -0.36,-0.15 -0.61,-0.34 -0.75,-0.54 -0.13,-0.21 -0.19,-0.46 -0.19,-0.76l0 -74.91c0,-0.31 0.06,-0.57 0.19,-0.78 0.13,-0.23 0.38,-0.42 0.75,-0.58 0.34,-0.13 0.82,-0.25 1.44,-0.33 0.59,-0.08 1.34,-0.11 2.26,-0.11 0.94,0 1.7,0.04 2.3,0.11 0.61,0.08 1.07,0.19 1.42,0.33 0.34,0.15 0.57,0.35 0.73,0.58 0.15,0.21 0.23,0.48 0.23,0.78l0 74.91z"/>
  <path id="_8" class="fil0" d="M1037.69 217.44c0,0.59 -0.02,1.11 -0.06,1.57 -0.04,0.44 -0.1,0.82 -0.19,1.17 -0.1,0.33 -0.21,0.63 -0.36,0.9 -0.15,0.25 -0.42,0.57 -0.78,0.94 -0.38,0.38 -1.17,0.96 -2.35,1.72 -1.21,0.76 -2.7,1.51 -4.48,2.24 -1.78,0.73 -3.81,1.34 -6.11,1.84 -2.32,0.52 -4.82,0.76 -7.56,0.76 -4.71,0 -8.98,-0.78 -12.77,-2.35 -3.79,-1.57 -7.05,-3.89 -9.71,-6.97 -2.68,-3.06 -4.75,-6.85 -6.18,-11.35 -1.44,-4.52 -2.16,-9.71 -2.16,-15.58 0,-6.03 0.78,-11.39 2.33,-16.12 1.55,-4.71 3.73,-8.71 6.55,-11.99 2.82,-3.27 6.17,-5.76 10.09,-7.49 3.91,-1.72 8.25,-2.58 13,-2.58 2.11,0 4.15,0.19 6.13,0.57 1.99,0.4 3.83,0.88 5.51,1.47 1.68,0.59 3.18,1.28 4.5,2.07 1.3,0.77 2.22,1.42 2.72,1.91 0.52,0.5 0.84,0.88 1,1.15 0.15,0.25 0.27,0.55 0.36,0.92 0.1,0.36 0.17,0.78 0.23,1.26 0.06,0.5 0.08,1.07 0.08,1.74 0,0.76 -0.04,1.4 -0.11,1.91 -0.08,0.54 -0.19,0.98 -0.34,1.34 -0.13,0.35 -0.33,0.61 -0.54,0.79 -0.19,0.17 -0.46,0.25 -0.75,0.25 -0.54,0 -1.26,-0.36 -2.22,-1.09 -0.94,-0.73 -2.14,-1.53 -3.64,-2.41 -1.49,-0.88 -3.29,-1.68 -5.42,-2.41 -2.14,-0.73 -4.69,-1.09 -7.66,-1.09 -3.25,0 -6.2,0.65 -8.85,1.93 -2.66,1.3 -4.94,3.2 -6.82,5.7 -1.88,2.51 -3.35,5.57 -4.38,9.19 -1.03,3.62 -1.55,7.75 -1.55,12.39 0,4.61 0.5,8.69 1.49,12.23 0.99,3.54 2.43,6.51 4.29,8.88 1.86,2.37 4.15,4.17 6.85,5.4 2.72,1.21 5.78,1.82 9.21,1.82 2.89,0 5.44,-0.36 7.6,-1.07 2.16,-0.71 4,-1.49 5.51,-2.37 1.53,-0.88 2.78,-1.67 3.75,-2.37 1,-0.71 1.76,-1.07 2.32,-1.07 0.27,0 0.5,0.06 0.69,0.17 0.19,0.11 0.33,0.33 0.44,0.63 0.11,0.33 0.21,0.77 0.27,1.32 0.06,0.56 0.08,1.26 0.08,2.13z"/>
  <path id="_9" class="fil0" d="M1060.38 226.26c0,0.31 -0.08,0.55 -0.23,0.76 -0.15,0.19 -0.38,0.38 -0.73,0.54 -0.34,0.13 -0.8,0.25 -1.42,0.33 -0.59,0.08 -1.36,0.11 -2.3,0.11 -0.92,0 -1.67,-0.04 -2.26,-0.11 -0.61,-0.08 -1.09,-0.19 -1.44,-0.33 -0.36,-0.15 -0.61,-0.34 -0.75,-0.54 -0.13,-0.21 -0.19,-0.46 -0.19,-0.76l0 -74.91c0,-0.31 0.06,-0.57 0.19,-0.78 0.13,-0.23 0.38,-0.42 0.75,-0.58 0.34,-0.13 0.82,-0.25 1.44,-0.33 0.59,-0.08 1.34,-0.11 2.26,-0.11 0.94,0 1.7,0.04 2.3,0.11 0.61,0.08 1.07,0.19 1.42,0.33 0.34,0.15 0.57,0.35 0.73,0.58 0.15,0.21 0.23,0.48 0.23,0.78l0 74.91z"/>
  <path id="_10" class="fil0" d="M1088.39 226.26c0,0.31 -0.08,0.55 -0.23,0.76 -0.15,0.19 -0.38,0.38 -0.73,0.54 -0.34,0.13 -0.8,0.25 -1.42,0.33 -0.59,0.08 -1.36,0.11 -2.3,0.11 -0.92,0 -1.67,-0.04 -2.26,-0.11 -0.61,-0.08 -1.09,-0.19 -1.44,-0.33 -0.36,-0.15 -0.61,-0.34 -0.75,-0.54 -0.13,-0.21 -0.19,-0.46 -0.19,-0.76l0 -50.5c0,-0.31 0.06,-0.56 0.19,-0.77 0.13,-0.19 0.38,-0.38 0.75,-0.55 0.34,-0.17 0.82,-0.29 1.44,-0.34 0.59,-0.06 1.34,-0.08 2.26,-0.08 0.94,0 1.7,0.02 2.3,0.08 0.61,0.06 1.07,0.17 1.42,0.34 0.34,0.17 0.57,0.36 0.73,0.55 0.15,0.21 0.23,0.46 0.23,0.77l0 50.5zm-1.05 -75.1c0.23,-0.4 0.5,-0.75 0.78,-1 0.31,-0.27 0.67,-0.48 1.11,-0.63 0.42,-0.13 0.96,-0.25 1.59,-0.33 0.63,-0.08 1.42,-0.11 2.32,-0.11 1.03,0 1.9,0.06 2.55,0.19 0.65,0.13 1.11,0.33 1.38,0.58 0.27,0.23 0.36,0.52 0.33,0.84 -0.04,0.31 -0.19,0.63 -0.5,0.98l-10.17 13.08c-0.31,0.38 -0.57,0.67 -0.8,0.9 -0.25,0.23 -0.54,0.4 -0.84,0.54 -0.33,0.13 -0.75,0.23 -1.25,0.29 -0.5,0.06 -1.13,0.08 -1.88,0.08 -0.82,0 -1.47,-0.06 -1.97,-0.17 -0.48,-0.11 -0.82,-0.27 -1.03,-0.44 -0.21,-0.19 -0.29,-0.44 -0.23,-0.73 0.06,-0.31 0.21,-0.67 0.48,-1.07l8.14 -12.98z"/>
  <path id="_11" class="fil0" d="M1150.52 226.26c0,0.31 -0.08,0.55 -0.23,0.76 -0.15,0.19 -0.38,0.38 -0.73,0.54 -0.34,0.13 -0.8,0.25 -1.42,0.33 -0.59,0.08 -1.34,0.11 -2.24,0.11 -0.96,0 -1.72,-0.04 -2.32,-0.11 -0.61,-0.08 -1.07,-0.19 -1.42,-0.33 -0.34,-0.15 -0.57,-0.34 -0.73,-0.54 -0.15,-0.21 -0.23,-0.46 -0.23,-0.76l0 -29.58c0,-2.87 -0.23,-5.21 -0.67,-6.95 -0.44,-1.76 -1.09,-3.27 -1.95,-4.56 -0.86,-1.26 -1.95,-2.24 -3.31,-2.91 -1.36,-0.67 -2.93,-1.01 -4.71,-1.01 -2.32,0 -4.61,0.82 -6.91,2.47 -2.32,1.65 -4.73,4.06 -7.26,7.24l0 35.3c0,0.31 -0.08,0.55 -0.23,0.76 -0.15,0.19 -0.38,0.38 -0.73,0.54 -0.34,0.13 -0.8,0.25 -1.42,0.33 -0.59,0.08 -1.36,0.11 -2.3,0.11 -0.92,0 -1.67,-0.04 -2.26,-0.11 -0.61,-0.08 -1.09,-0.19 -1.44,-0.33 -0.36,-0.15 -0.61,-0.34 -0.75,-0.54 -0.13,-0.21 -0.19,-0.46 -0.19,-0.76l0 -50.5c0,-0.31 0.06,-0.56 0.17,-0.77 0.11,-0.19 0.33,-0.38 0.67,-0.55 0.34,-0.17 0.76,-0.29 1.3,-0.34 0.52,-0.06 1.23,-0.08 2.09,-0.08 0.82,0 1.51,0.02 2.05,0.08 0.56,0.06 0.98,0.17 1.28,0.34 0.29,0.17 0.52,0.36 0.65,0.55 0.11,0.21 0.19,0.46 0.19,0.77l0 6.68c2.83,-3.2 5.65,-5.53 8.48,-7.01 2.82,-1.47 5.65,-2.22 8.52,-2.22 3.35,0 6.18,0.57 8.48,1.7 2.3,1.15 4.15,2.68 5.57,4.57 1.42,1.91 2.43,4.16 3.04,6.72 0.61,2.57 0.92,5.65 0.92,9.23l0 30.82z"/>
  <path id="_12" class="fil0" d="M1178.4 226.26c0,0.31 -0.08,0.55 -0.23,0.76 -0.15,0.19 -0.38,0.38 -0.73,0.54 -0.34,0.13 -0.8,0.25 -1.42,0.33 -0.59,0.08 -1.36,0.11 -2.3,0.11 -0.92,0 -1.67,-0.04 -2.26,-0.11 -0.61,-0.08 -1.09,-0.19 -1.44,-0.33 -0.36,-0.15 -0.61,-0.34 -0.75,-0.54 -0.13,-0.21 -0.19,-0.46 -0.19,-0.76l0 -50.5c0,-0.27 0.06,-0.52 0.19,-0.73 0.13,-0.23 0.38,-0.42 0.75,-0.57 0.34,-0.13 0.82,-0.25 1.44,-0.33 0.59,-0.08 1.34,-0.11 2.26,-0.11 0.94,0 1.7,0.04 2.3,0.11 0.61,0.08 1.07,0.19 1.42,0.33 0.34,0.15 0.57,0.34 0.73,0.57 0.15,0.21 0.23,0.46 0.23,0.73l0 50.5zm1.03 -67.52c0,2.18 -0.42,3.66 -1.24,4.44 -0.82,0.78 -2.34,1.19 -4.56,1.19 -2.18,0 -3.68,-0.38 -4.48,-1.15 -0.8,-0.77 -1.21,-2.22 -1.21,-4.37 0,-2.18 0.42,-3.66 1.25,-4.44 0.82,-0.78 2.33,-1.19 4.56,-1.19 2.18,0 3.68,0.38 4.48,1.15 0.81,0.76 1.21,2.22 1.21,4.36z"/>
  <path id="_13" class="fil0" d="M1233.41 218.49c0,0.63 -0.02,1.19 -0.06,1.65 -0.04,0.48 -0.1,0.86 -0.19,1.19 -0.1,0.33 -0.21,0.59 -0.34,0.84 -0.13,0.25 -0.42,0.61 -0.9,1.07 -0.46,0.48 -1.26,1.05 -2.37,1.76 -1.13,0.69 -2.39,1.32 -3.79,1.86 -1.42,0.55 -2.93,0.99 -4.58,1.32 -1.65,0.34 -3.35,0.52 -5.11,0.52 -3.64,0 -6.85,-0.59 -9.65,-1.8 -2.82,-1.19 -5.17,-2.93 -7.05,-5.23 -1.9,-2.3 -3.33,-5.13 -4.33,-8.46 -0.99,-3.35 -1.49,-7.2 -1.49,-11.58 0,-4.96 0.61,-9.23 1.82,-12.81 1.23,-3.56 2.89,-6.49 5,-8.77 2.12,-2.28 4.61,-3.96 7.47,-5.07 2.87,-1.09 5.97,-1.65 9.3,-1.65 1.61,0 3.16,0.15 4.67,0.46 1.53,0.29 2.91,0.69 4.19,1.17 1.26,0.5 2.41,1.05 3.39,1.7 0.99,0.63 1.72,1.19 2.16,1.63 0.46,0.46 0.77,0.82 0.94,1.07 0.15,0.27 0.31,0.57 0.42,0.94 0.1,0.34 0.17,0.75 0.21,1.21 0.04,0.44 0.06,1.01 0.06,1.68 0,1.46 -0.17,2.47 -0.5,3.06 -0.34,0.57 -0.75,0.86 -1.25,0.86 -0.55,0 -1.21,-0.31 -1.93,-0.94 -0.73,-0.61 -1.65,-1.3 -2.78,-2.05 -1.13,-0.75 -2.49,-1.44 -4.08,-2.05 -1.59,-0.63 -3.47,-0.94 -5.63,-0.94 -4.46,0 -7.89,1.7 -10.26,5.13 -2.37,3.41 -3.56,8.37 -3.56,14.86 0,3.24 0.31,6.09 0.92,8.54 0.63,2.43 1.53,4.48 2.74,6.13 1.19,1.63 2.66,2.85 4.4,3.66 1.74,0.8 3.73,1.21 5.97,1.21 2.14,0 4.02,-0.34 5.63,-1.02 1.61,-0.67 2.99,-1.42 4.17,-2.24 1.19,-0.8 2.18,-1.53 2.99,-2.18 0.81,-0.67 1.42,-0.99 1.88,-0.99 0.25,0 0.48,0.08 0.67,0.23 0.19,0.15 0.34,0.4 0.48,0.75 0.13,0.36 0.23,0.81 0.29,1.36 0.06,0.54 0.08,1.19 0.08,1.93z"/>
  <path id="_14" class="fil0" d="M1293.24 200.42c0,4.12 -0.54,7.91 -1.63,11.37 -1.07,3.45 -2.7,6.43 -4.84,8.94 -2.14,2.51 -4.84,4.46 -8.06,5.86 -3.24,1.4 -6.99,2.11 -11.24,2.11 -4.15,0 -7.77,-0.61 -10.85,-1.86 -3.08,-1.23 -5.65,-3.03 -7.7,-5.38 -2.05,-2.35 -3.58,-5.23 -4.6,-8.58 -1.01,-3.37 -1.51,-7.18 -1.51,-11.45 0,-4.12 0.54,-7.91 1.59,-11.35 1.07,-3.47 2.68,-6.45 4.83,-8.96 2.14,-2.51 4.83,-4.44 8.04,-5.84 3.22,-1.38 6.97,-2.07 11.26,-2.07 4.16,0 7.77,0.61 10.85,1.86 3.08,1.23 5.65,3.03 7.7,5.38 2.05,2.36 3.6,5.21 4.63,8.58 1.02,3.37 1.53,7.16 1.53,11.39zm-9.65 0.59c0,-2.74 -0.25,-5.32 -0.76,-7.75 -0.5,-2.43 -1.34,-4.56 -2.51,-6.39 -1.15,-1.84 -2.74,-3.29 -4.73,-4.35 -1.97,-1.07 -4.46,-1.61 -7.43,-1.61 -2.74,0 -5.09,0.48 -7.06,1.45 -1.97,0.98 -3.58,2.36 -4.86,4.14 -1.28,1.78 -2.22,3.89 -2.83,6.32 -0.63,2.43 -0.94,5.09 -0.94,7.96 0,2.78 0.25,5.38 0.76,7.81 0.5,2.43 1.34,4.56 2.53,6.37 1.19,1.8 2.78,3.26 4.75,4.31 1.99,1.07 4.48,1.61 7.45,1.61 2.7,0 5.04,-0.48 7.03,-1.46 1.99,-0.98 3.62,-2.33 4.9,-4.1 1.28,-1.76 2.22,-3.87 2.82,-6.3 0.59,-2.43 0.9,-5.11 0.9,-8.02z"/>
  <path class="fil1" d="M667.25 359.81c0,0.43 -0.11,0.83 -0.36,1.19 -0.25,0.34 -0.7,0.63 -1.32,0.85 -0.63,0.2 -1.48,0.38 -2.54,0.52 -1.05,0.13 -2.4,0.2 -4.02,0.2 -1.59,0 -2.92,-0.07 -3.97,-0.2 -1.05,-0.13 -1.88,-0.31 -2.51,-0.52 -0.6,-0.22 -1.05,-0.52 -1.3,-0.85 -0.27,-0.36 -0.4,-0.76 -0.4,-1.19l0 -69.26 -0.14 0 -24.57 69.19c-0.18,0.56 -0.45,1.03 -0.85,1.41 -0.4,0.38 -0.92,0.67 -1.62,0.9 -0.67,0.2 -1.55,0.36 -2.58,0.43 -1.05,0.07 -2.33,0.09 -3.81,0.09 -1.5,0 -2.76,-0.05 -3.81,-0.16 -1.05,-0.11 -1.93,-0.29 -2.6,-0.54 -0.67,-0.25 -1.21,-0.54 -1.62,-0.87 -0.38,-0.36 -0.65,-0.79 -0.78,-1.26l-23.71 -69.19 -0.13 0 0 69.26c0,0.43 -0.11,0.83 -0.36,1.19 -0.25,0.34 -0.7,0.63 -1.35,0.85 -0.67,0.2 -1.53,0.38 -2.56,0.52 -1.03,0.13 -2.36,0.2 -3.97,0.2 -1.59,0 -2.92,-0.07 -3.97,-0.2 -1.05,-0.13 -1.91,-0.31 -2.53,-0.52 -0.63,-0.22 -1.08,-0.52 -1.32,-0.85 -0.25,-0.36 -0.36,-0.76 -0.36,-1.19l0 -75.81c0,-2.24 0.58,-3.95 1.77,-5.14 1.19,-1.19 2.76,-1.77 4.76,-1.77l11.31 0c2.02,0 3.77,0.16 5.21,0.49 1.46,0.34 2.71,0.87 3.77,1.64 1.03,0.76 1.93,1.77 2.62,3.03 0.7,1.26 1.32,2.8 1.84,4.64l18.33 50.68 0.27 0 18.98 -50.57c0.56,-1.84 1.19,-3.39 1.86,-4.67 0.7,-1.26 1.48,-2.29 2.38,-3.07 0.9,-0.79 1.97,-1.35 3.19,-1.68 1.23,-0.34 2.67,-0.49 4.29,-0.49l11.67 0c1.19,0 2.2,0.16 3.05,0.47 0.85,0.29 1.57,0.74 2.11,1.35 0.56,0.58 0.97,1.3 1.26,2.15 0.29,0.85 0.43,1.84 0.43,2.94l0 75.81z"/>
  <path id="_1_193" class="fil1" d="M751.12 355.72c0.52,1.57 0.85,2.83 0.99,3.75 0.13,0.92 -0.05,1.62 -0.52,2.09 -0.49,0.45 -1.35,0.74 -2.58,0.85 -1.21,0.11 -2.92,0.16 -5.05,0.16 -2.24,0 -3.99,-0.02 -5.23,-0.09 -1.26,-0.07 -2.2,-0.2 -2.87,-0.4 -0.65,-0.2 -1.1,-0.47 -1.37,-0.83 -0.27,-0.34 -0.49,-0.81 -0.65,-1.37l-5.59 -17.1 -32.08 0 -5.36 16.62c-0.18,0.63 -0.4,1.14 -0.7,1.55 -0.27,0.43 -0.74,0.74 -1.37,0.99 -0.63,0.25 -1.52,0.4 -2.69,0.49 -1.17,0.09 -2.69,0.14 -4.58,0.14 -2.02,0 -3.59,-0.07 -4.73,-0.2 -1.14,-0.13 -1.93,-0.45 -2.35,-0.94 -0.45,-0.52 -0.61,-1.23 -0.47,-2.15 0.13,-0.92 0.47,-2.13 0.99,-3.68l26.2 -75.49c0.25,-0.74 0.56,-1.35 0.92,-1.79 0.34,-0.47 0.9,-0.81 1.66,-1.05 0.78,-0.25 1.84,-0.4 3.21,-0.47 1.35,-0.07 3.14,-0.09 5.38,-0.09 2.58,0 4.64,0.02 6.17,0.09 1.55,0.07 2.74,0.22 3.59,0.47 0.85,0.25 1.46,0.61 1.84,1.08 0.36,0.49 0.7,1.14 0.94,1.97l26.29 75.43zm-39.04 -62.46l-0.07 0 -11.85 36.19 23.87 0 -11.96 -36.19z"/>
  <path id="_2_194" class="fil1" d="M825.27 290.32c0,1.26 -0.04,2.36 -0.16,3.28 -0.11,0.92 -0.27,1.66 -0.47,2.2 -0.2,0.56 -0.43,0.94 -0.72,1.14 -0.29,0.22 -0.63,0.34 -1.01,0.34 -0.58,0 -1.5,-0.4 -2.76,-1.19 -1.28,-0.79 -2.96,-1.66 -5.07,-2.58 -2.11,-0.92 -4.6,-1.79 -7.52,-2.58 -2.92,-0.78 -6.3,-1.19 -10.16,-1.19 -4.11,0 -7.83,0.72 -11.15,2.13 -3.34,1.44 -6.19,3.46 -8.55,6.06 -2.35,2.63 -4.17,5.74 -5.45,9.42 -1.28,3.66 -1.91,7.7 -1.91,12.14 0,4.87 0.65,9.15 1.93,12.88 1.3,3.7 3.12,6.8 5.43,9.31 2.33,2.49 5.14,4.37 8.39,5.65 3.28,1.28 6.89,1.91 10.81,1.91 1.93,0 3.84,-0.22 5.72,-0.65 1.91,-0.45 3.66,-1.12 5.27,-2l0 -19.83 -16.09 0c-0.78,0 -1.39,-0.49 -1.84,-1.48 -0.43,-0.99 -0.65,-2.65 -0.65,-5.03 0,-1.21 0.05,-2.24 0.16,-3.07 0.11,-0.83 0.29,-1.5 0.49,-2 0.22,-0.52 0.49,-0.87 0.78,-1.12 0.32,-0.25 0.67,-0.36 1.05,-0.36l28.72 0c0.7,0 1.32,0.11 1.86,0.36 0.56,0.25 1.03,0.61 1.46,1.1 0.4,0.47 0.74,1.05 0.94,1.73 0.22,0.7 0.34,1.48 0.34,2.36l0 33.92c0,1.32 -0.22,2.47 -0.7,3.46 -0.45,0.99 -1.39,1.77 -2.83,2.33 -1.41,0.58 -3.19,1.17 -5.3,1.79 -2.11,0.61 -4.29,1.14 -6.55,1.57 -2.24,0.45 -4.53,0.79 -6.84,0.99 -2.29,0.22 -4.6,0.34 -6.93,0.34 -6.8,0 -12.88,-0.99 -18.26,-2.94 -5.36,-1.95 -9.92,-4.78 -13.64,-8.48 -3.73,-3.7 -6.57,-8.21 -8.55,-13.55 -1.97,-5.34 -2.96,-11.37 -2.96,-18.13 0,-6.98 1.05,-13.24 3.16,-18.78 2.09,-5.56 5.07,-10.28 8.93,-14.16 3.86,-3.88 8.5,-6.84 13.98,-8.91 5.45,-2.06 11.53,-3.1 18.22,-3.1 3.7,0 7.05,0.25 10.07,0.76 3.01,0.52 5.65,1.12 7.92,1.86 2.24,0.72 4.13,1.5 5.61,2.33 1.5,0.85 2.54,1.57 3.12,2.2 0.6,0.61 1.03,1.48 1.28,2.6 0.27,1.1 0.4,2.76 0.4,4.96z"/>
  <path id="_3_195" class="fil1" d="M908.08 355.72c0.52,1.57 0.85,2.83 0.99,3.75 0.13,0.92 -0.05,1.62 -0.52,2.09 -0.49,0.45 -1.35,0.74 -2.58,0.85 -1.21,0.11 -2.92,0.16 -5.05,0.16 -2.24,0 -3.99,-0.02 -5.23,-0.09 -1.26,-0.07 -2.2,-0.2 -2.87,-0.4 -0.65,-0.2 -1.1,-0.47 -1.37,-0.83 -0.27,-0.34 -0.49,-0.81 -0.65,-1.37l-5.59 -17.1 -32.08 0 -5.36 16.62c-0.18,0.63 -0.4,1.14 -0.7,1.55 -0.27,0.43 -0.74,0.74 -1.37,0.99 -0.63,0.25 -1.52,0.4 -2.69,0.49 -1.17,0.09 -2.69,0.14 -4.58,0.14 -2.02,0 -3.59,-0.07 -4.73,-0.2 -1.14,-0.13 -1.93,-0.45 -2.35,-0.94 -0.45,-0.52 -0.61,-1.23 -0.47,-2.15 0.13,-0.92 0.47,-2.13 0.99,-3.68l26.2 -75.49c0.25,-0.74 0.56,-1.35 0.92,-1.79 0.34,-0.47 0.9,-0.81 1.66,-1.05 0.78,-0.25 1.84,-0.4 3.21,-0.47 1.35,-0.07 3.14,-0.09 5.38,-0.09 2.58,0 4.64,0.02 6.17,0.09 1.55,0.07 2.74,0.22 3.59,0.47 0.85,0.25 1.46,0.61 1.84,1.08 0.36,0.49 0.7,1.14 0.94,1.97l26.29 75.43zm-39.04 -62.46l-0.07 0 -11.85 36.19 23.87 0 -11.96 -36.19z"/>
  <path id="_4_196" class="fil1" d="M962.33 354.94c0,1.3 -0.05,2.42 -0.16,3.32 -0.11,0.9 -0.29,1.64 -0.49,2.22 -0.22,0.61 -0.49,1.03 -0.83,1.28 -0.34,0.27 -0.72,0.4 -1.14,0.4l-38.97 0c-1.44,0 -2.65,-0.43 -3.63,-1.28 -0.99,-0.85 -1.48,-2.24 -1.48,-4.17l0 -77.27c0,-0.43 0.13,-0.83 0.43,-1.19 0.29,-0.34 0.76,-0.63 1.41,-0.85 0.65,-0.22 1.55,-0.38 2.67,-0.52 1.12,-0.13 2.51,-0.2 4.17,-0.2 1.71,0 3.12,0.07 4.22,0.2 1.08,0.13 1.97,0.29 2.62,0.52 0.65,0.22 1.12,0.52 1.41,0.85 0.29,0.36 0.43,0.76 0.43,1.19l0 68.45 26.72 0c0.43,0 0.83,0.11 1.14,0.36 0.34,0.25 0.61,0.63 0.83,1.19 0.22,0.54 0.38,1.26 0.49,2.18 0.11,0.9 0.16,2 0.16,3.32z"/>
  <path id="_5_197" class="fil1" d="M1014.88 354.94c0,1.3 -0.05,2.42 -0.16,3.32 -0.11,0.9 -0.29,1.64 -0.49,2.22 -0.22,0.61 -0.49,1.03 -0.83,1.28 -0.34,0.27 -0.72,0.4 -1.14,0.4l-38.97 0c-1.44,0 -2.65,-0.43 -3.63,-1.28 -0.99,-0.85 -1.48,-2.24 -1.48,-4.17l0 -77.27c0,-0.43 0.13,-0.83 0.43,-1.19 0.29,-0.34 0.76,-0.63 1.41,-0.85 0.65,-0.22 1.55,-0.38 2.67,-0.52 1.12,-0.13 2.51,-0.2 4.17,-0.2 1.71,0 3.12,0.07 4.22,0.2 1.08,0.13 1.97,0.29 2.62,0.52 0.65,0.22 1.12,0.52 1.41,0.85 0.29,0.36 0.43,0.76 0.43,1.19l0 68.45 26.72 0c0.43,0 0.83,0.11 1.14,0.36 0.34,0.25 0.61,0.63 0.83,1.19 0.22,0.54 0.38,1.26 0.49,2.18 0.11,0.9 0.16,2 0.16,3.32z"/>
  <path id="_6_198" class="fil1" d="M1090.37 355.72c0.52,1.57 0.85,2.83 0.99,3.75 0.13,0.92 -0.05,1.62 -0.52,2.09 -0.49,0.45 -1.35,0.74 -2.58,0.85 -1.21,0.11 -2.92,0.16 -5.05,0.16 -2.24,0 -3.99,-0.02 -5.23,-0.09 -1.26,-0.07 -2.2,-0.2 -2.87,-0.4 -0.65,-0.2 -1.1,-0.47 -1.37,-0.83 -0.27,-0.34 -0.49,-0.81 -0.65,-1.37l-5.59 -17.1 -32.08 0 -5.36 16.62c-0.18,0.63 -0.4,1.14 -0.7,1.55 -0.27,0.43 -0.74,0.74 -1.37,0.99 -0.63,0.25 -1.52,0.4 -2.69,0.49 -1.17,0.09 -2.69,0.14 -4.58,0.14 -2.02,0 -3.59,-0.07 -4.73,-0.2 -1.14,-0.13 -1.93,-0.45 -2.35,-0.94 -0.45,-0.52 -0.61,-1.23 -0.47,-2.15 0.13,-0.92 0.47,-2.13 0.99,-3.68l26.2 -75.49c0.25,-0.74 0.56,-1.35 0.92,-1.79 0.34,-0.47 0.9,-0.81 1.66,-1.05 0.78,-0.25 1.84,-0.4 3.21,-0.47 1.35,-0.07 3.14,-0.09 5.38,-0.09 2.58,0 4.64,0.02 6.17,0.09 1.55,0.07 2.74,0.22 3.59,0.47 0.85,0.25 1.46,0.61 1.84,1.08 0.36,0.49 0.7,1.14 0.94,1.97l26.29 75.43zm-39.04 -62.46l-0.07 0 -11.85 36.19 23.87 0 -11.96 -36.19z"/>
  <path id="_7_199" class="fil1" d="M1168.05 356.1c0,1.01 -0.18,1.91 -0.52,2.71 -0.36,0.78 -0.83,1.44 -1.44,1.97 -0.58,0.52 -1.28,0.9 -2.09,1.14 -0.83,0.25 -1.64,0.36 -2.47,0.36l-7.38 0c-1.55,0 -2.87,-0.16 -3.99,-0.45 -1.1,-0.31 -2.13,-0.87 -3.07,-1.68 -0.97,-0.81 -1.86,-1.91 -2.74,-3.3 -0.87,-1.37 -1.86,-3.16 -2.96,-5.36l-21.11 -39.78c-1.23,-2.38 -2.47,-4.94 -3.75,-7.67 -1.28,-2.74 -2.4,-5.41 -3.41,-7.99l-0.13 0c0.18,3.16 0.31,6.3 0.4,9.44 0.09,3.12 0.14,6.37 0.14,9.69l0 44.53c0,0.43 -0.11,0.83 -0.36,1.19 -0.25,0.34 -0.67,0.63 -1.26,0.87 -0.58,0.25 -1.39,0.43 -2.4,0.56 -1.01,0.13 -2.31,0.2 -3.88,0.2 -1.55,0 -2.83,-0.07 -3.84,-0.2 -1.01,-0.13 -1.79,-0.31 -2.35,-0.56 -0.58,-0.22 -0.99,-0.54 -1.19,-0.87 -0.22,-0.36 -0.34,-0.76 -0.34,-1.19l0 -76.46c0,-2.06 0.61,-3.61 1.82,-4.64 1.19,-1.03 2.67,-1.55 4.44,-1.55l9.27 0c1.66,0 3.07,0.13 4.22,0.43 1.14,0.29 2.15,0.76 3.05,1.41 0.9,0.65 1.75,1.57 2.53,2.74 0.79,1.14 1.59,2.6 2.42,4.31l16.53 31.12c0.97,1.89 1.91,3.75 2.85,5.56 0.94,1.82 1.86,3.64 2.71,5.45 0.87,1.82 1.73,3.61 2.56,5.36 0.85,1.77 1.66,3.52 2.44,5.27l0.07 0c-0.13,-3.07 -0.25,-6.28 -0.31,-9.6 -0.07,-3.34 -0.09,-6.53 -0.09,-9.56l0 -39.93c0,-0.43 0.13,-0.83 0.4,-1.19 0.25,-0.34 0.7,-0.65 1.3,-0.92 0.63,-0.27 1.44,-0.45 2.44,-0.56 1.01,-0.11 2.31,-0.16 3.88,-0.16 1.5,0 2.76,0.05 3.77,0.16 1.01,0.11 1.77,0.29 2.33,0.56 0.54,0.27 0.94,0.58 1.14,0.92 0.22,0.36 0.34,0.74 0.34,1.19l0 76.46z"/>
  <path id="_8_200" class="fil1" d="M1232.55 355.36c0,1.28 -0.04,2.33 -0.16,3.21 -0.11,0.85 -0.27,1.55 -0.49,2.06 -0.22,0.54 -0.49,0.92 -0.83,1.17 -0.32,0.25 -0.7,0.36 -1.08,0.36l-42.67 0c-1.44,0 -2.65,-0.43 -3.63,-1.28 -0.99,-0.85 -1.48,-2.24 -1.48,-4.17l0 -74.17c0,-1.93 0.49,-3.32 1.48,-4.17 0.99,-0.85 2.2,-1.28 3.63,-1.28l42.47 0c0.38,0 0.74,0.11 1.05,0.34 0.29,0.22 0.56,0.61 0.79,1.14 0.2,0.56 0.38,1.26 0.49,2.11 0.11,0.87 0.16,1.95 0.16,3.27 0,1.24 -0.05,2.27 -0.16,3.14 -0.11,0.85 -0.27,1.55 -0.49,2.06 -0.22,0.54 -0.49,0.92 -0.79,1.17 -0.31,0.25 -0.67,0.36 -1.05,0.36l-30.35 0 0 20.73 25.58 0c0.4,0 0.76,0.11 1.08,0.36 0.34,0.25 0.6,0.6 0.83,1.12 0.22,0.49 0.38,1.17 0.49,2.04 0.11,0.85 0.16,1.89 0.16,3.1 0,1.28 -0.04,2.33 -0.16,3.16 -0.11,0.83 -0.27,1.5 -0.49,2 -0.22,0.52 -0.49,0.87 -0.83,1.08 -0.32,0.22 -0.67,0.34 -1.08,0.34l-25.58 0 0 23.96 30.56 0c0.4,0 0.76,0.11 1.08,0.36 0.34,0.25 0.6,0.63 0.83,1.17 0.22,0.52 0.38,1.21 0.49,2.06 0.11,0.87 0.16,1.93 0.16,3.21z"/>
  <path id="_9_201" class="fil1" d="M1292.66 336.63c0,4.49 -0.83,8.39 -2.49,11.78 -1.68,3.36 -3.93,6.17 -6.78,8.44 -2.87,2.24 -6.19,3.95 -10.01,5.09 -3.81,1.14 -7.9,1.71 -12.25,1.71 -2.94,0 -5.65,-0.25 -8.19,-0.74 -2.51,-0.49 -4.73,-1.08 -6.66,-1.77 -1.93,-0.67 -3.54,-1.39 -4.85,-2.15 -1.3,-0.76 -2.22,-1.44 -2.8,-2 -0.56,-0.58 -0.97,-1.41 -1.21,-2.49 -0.25,-1.08 -0.36,-2.6 -0.36,-4.62 0,-1.37 0.04,-2.49 0.13,-3.41 0.09,-0.92 0.22,-1.66 0.43,-2.24 0.2,-0.56 0.47,-0.96 0.78,-1.21 0.34,-0.25 0.72,-0.36 1.17,-0.36 0.6,0 1.48,0.36 2.6,1.1 1.12,0.72 2.56,1.53 4.31,2.4 1.75,0.87 3.86,1.68 6.3,2.4 2.42,0.74 5.25,1.1 8.46,1.1 2.11,0 3.99,-0.25 5.65,-0.74 1.68,-0.52 3.09,-1.21 4.26,-2.13 1.17,-0.92 2.04,-2.04 2.67,-3.39 0.61,-1.35 0.92,-2.85 0.92,-4.51 0,-1.93 -0.52,-3.59 -1.57,-4.96 -1.05,-1.39 -2.42,-2.6 -4.13,-3.68 -1.68,-1.08 -3.61,-2.09 -5.77,-3.03 -2.13,-0.94 -4.35,-1.93 -6.64,-2.98 -2.29,-1.05 -4.51,-2.24 -6.64,-3.59 -2.15,-1.32 -4.08,-2.92 -5.77,-4.78 -1.7,-1.86 -3.07,-4.06 -4.13,-6.62 -1.06,-2.54 -1.57,-5.59 -1.57,-9.13 0,-4.06 0.76,-7.65 2.27,-10.75 1.5,-3.07 3.54,-5.63 6.1,-7.67 2.58,-2.04 5.59,-3.57 9.06,-4.58 3.48,-1.01 7.18,-1.5 11.08,-1.5 2,0 4.02,0.16 6.03,0.47 2.02,0.29 3.9,0.72 5.65,1.23 1.75,0.54 3.3,1.12 4.67,1.77 1.35,0.67 2.24,1.21 2.69,1.66 0.43,0.43 0.72,0.81 0.87,1.1 0.16,0.32 0.29,0.72 0.4,1.23 0.11,0.49 0.18,1.12 0.22,1.91 0.05,0.76 0.07,1.7 0.07,2.85 0,1.26 -0.02,2.33 -0.09,3.21 -0.07,0.87 -0.18,1.59 -0.34,2.18 -0.16,0.56 -0.38,0.99 -0.65,1.23 -0.29,0.27 -0.67,0.4 -1.17,0.4 -0.47,0 -1.23,-0.31 -2.29,-0.92 -1.05,-0.61 -2.36,-1.28 -3.88,-2.02 -1.55,-0.72 -3.32,-1.37 -5.34,-1.95 -2.02,-0.61 -4.22,-0.9 -6.64,-0.9 -1.89,0 -3.52,0.22 -4.94,0.7 -1.39,0.45 -2.56,1.1 -3.5,1.91 -0.94,0.81 -1.66,1.77 -2.11,2.92 -0.47,1.14 -0.7,2.36 -0.7,3.61 0,1.88 0.52,3.52 1.55,4.89 1.03,1.39 2.42,2.63 4.15,3.7 1.73,1.05 3.7,2.06 5.9,3.01 2.17,0.94 4.42,1.95 6.71,2.98 2.29,1.05 4.53,2.24 6.71,3.59 2.2,1.35 4.15,2.94 5.88,4.8 1.7,1.86 3.09,4.04 4.15,6.57 1.06,2.51 1.57,5.47 1.57,8.88z"/>
  <path class="fil2" d="M302.53 0l36.46 0c12.18,0 22.15,9.97 22.15,22.15l0 34.28c-12.3,-24.96 -32.42,-44.92 -58.61,-56.42zm66.16 154.42l124.72 0c12.18,0 22.15,9.97 22.15,22.15l0 155.37c-5.61,1.05 -11.33,1.61 -17.15,1.61 -70.37,0 -127.66,-79.7 -129.72,-179.12zm-40.51 361.13l-151.61 0c-12.18,0 -22.15,-9.97 -22.15,-22.15l0 -125.16c98.86,4.71 176.68,63.64 175.07,133.75 -0.11,4.59 -0.55,9.11 -1.32,13.56zm-284.14 -154.42l-21.89 0c-12.18,0 -22.15,-9.97 -22.15,-22.15l0 -24.05c8.71,21.37 25.19,36.44 44.04,46.2z"/>
  <path class="fil3" d="M22.15 154.42l132.27 0 0 -132.27c0,-12.18 9.97,-22.15 22.15,-22.15l125.96 0c26.19,11.51 46.31,31.47 58.61,56.42l0 98 7.55 0c2.06,99.42 59.35,179.12 129.72,179.12 5.81,0 11.54,-0.55 17.15,-1.61l0 7.05c0,12.18 -9.97,22.15 -22.15,22.15l-108.47 0c-36.93,-8.27 -52.2,-24.09 -51.28,-81.8 0.4,-2.93 0.03,-5.92 0.03,-8.96 0,-48.92 0.57,-99.71 0.57,-150.15 0,-36.96 -30.24,-67.2 -67.2,-67.2l-15.87 0c-36.96,0 -67.2,30.24 -67.2,67.2l0 39.42c-3.49,16.91 -10.64,23.75 -23.72,25.29l-39.8 0c-37.56,0 -68.29,30.73 -68.29,68.29l0 16.12c0,37.56 30.73,68.29 68.29,68.29l143.42 0c0.97,0 1.93,-0.03 2.89,-0.07l0.27 0c5.74,0 12.09,-0.16 16.85,-0.58 43.99,1.43 62.95,17.18 77.22,44.66l0 111.75c0,12.18 -9.97,22.15 -22.15,22.15l-10.81 0c0.76,-4.45 1.21,-8.97 1.32,-13.56 1.61,-70.11 -76.21,-129.04 -175.07,-133.75l0 -7.11 -110.38 0c-18.85,-9.76 -35.33,-24.83 -44.04,-46.2l0 -138.37c0,-12.18 9.97,-22.15 22.15,-22.15z"/>
 </g>
</svg>
