<?xml version="1.0" encoding="UTF-8"?>
<!DOCTYPE svg PUBLIC "-//W3C//DTD SVG 1.1//EN" "http://www.w3.org/Graphics/SVG/1.1/DTD/svg11.dtd">
<!-- Creator: CorelDRAW (Versión de evaluación) -->
<svg xmlns="http://www.w3.org/2000/svg" xml:space="preserve" width="1.27925in" height="1.05599in" version="1.1" style="shape-rendering:geometricPrecision; text-rendering:geometricPrecision; image-rendering:optimizeQuality; fill-rule:evenodd; clip-rule:evenodd"
viewBox="0 0 283.96 234.4"
 xmlns:xlink="http://www.w3.org/1999/xlink"
 xmlns:xodm="http://www.corel.com/coreldraw/odm/2003">
 <defs>
  <style type="text/css">
   <![CDATA[
    .fil2 {fill:#00497A}
    .fil3 {fill:#33CCFF}
    .fil1 {fill:#00497A;fill-rule:nonzero}
    .fil0 {fill:#33CCFF;fill-rule:nonzero}
   ]]>
  </style>
 </defs>
 <g id="Layer_x0020_1">
  <metadata id="CorelCorpID_0Corel-Layer"/>
  <g id="_2390319357792">
   <g>
    <path class="fil0" d="M20.46 180.6c0,0.12 -0.03,0.22 -0.09,0.31 -0.06,0.09 -0.16,0.16 -0.31,0.21 -0.15,0.05 -0.34,0.1 -0.58,0.13 -0.25,0.04 -0.54,0.05 -0.89,0.05 -0.39,0 -0.7,-0.01 -0.93,-0.05 -0.24,-0.04 -0.43,-0.08 -0.58,-0.13 -0.15,-0.05 -0.25,-0.12 -0.31,-0.21 -0.06,-0.08 -0.09,-0.19 -0.09,-0.31l0 -12.61 -12.9 0 0 12.61c0,0.12 -0.03,0.22 -0.09,0.31 -0.06,0.09 -0.16,0.16 -0.31,0.21 -0.14,0.05 -0.34,0.1 -0.58,0.13 -0.25,0.04 -0.55,0.05 -0.91,0.05 -0.35,0 -0.65,-0.01 -0.9,-0.05 -0.25,-0.04 -0.45,-0.08 -0.59,-0.13 -0.15,-0.05 -0.25,-0.12 -0.31,-0.21 -0.06,-0.08 -0.09,-0.19 -0.09,-0.31l0 -27.28c0,-0.12 0.03,-0.22 0.09,-0.31 0.06,-0.09 0.16,-0.16 0.31,-0.21 0.14,-0.05 0.34,-0.1 0.59,-0.13 0.25,-0.04 0.55,-0.05 0.9,-0.05 0.37,0 0.67,0.01 0.91,0.05 0.24,0.04 0.43,0.08 0.58,0.13 0.15,0.05 0.25,0.12 0.31,0.21 0.06,0.09 0.09,0.19 0.09,0.31l0 11.39 12.9 0 0 -11.39c0,-0.12 0.03,-0.22 0.09,-0.31 0.06,-0.09 0.16,-0.16 0.31,-0.21 0.15,-0.05 0.34,-0.1 0.58,-0.13 0.23,-0.04 0.54,-0.05 0.93,-0.05 0.35,0 0.64,0.01 0.89,0.05 0.24,0.04 0.43,0.08 0.58,0.13 0.15,0.05 0.25,0.12 0.31,0.21 0.06,0.08 0.09,0.19 0.09,0.31l0 27.28zm26.14 -10.09c0,1.61 -0.21,3.09 -0.64,4.45 -0.42,1.35 -1.06,2.52 -1.9,3.5 -0.84,0.98 -1.9,1.75 -3.15,2.29 -1.27,0.55 -2.74,0.82 -4.4,0.82 -1.63,0 -3.04,-0.24 -4.25,-0.73 -1.21,-0.48 -2.21,-1.18 -3.01,-2.11 -0.8,-0.92 -1.4,-2.05 -1.8,-3.36 -0.4,-1.32 -0.59,-2.81 -0.59,-4.48 0,-1.61 0.21,-3.09 0.62,-4.44 0.42,-1.36 1.05,-2.53 1.89,-3.51 0.84,-0.98 1.89,-1.74 3.15,-2.29 1.26,-0.54 2.73,-0.81 4.41,-0.81 1.63,0 3.04,0.24 4.25,0.73 1.21,0.48 2.21,1.18 3.01,2.11 0.8,0.92 1.41,2.04 1.81,3.36 0.4,1.32 0.6,2.8 0.6,4.46zm-3.78 0.23c0,-1.07 -0.1,-2.08 -0.3,-3.04 -0.19,-0.95 -0.53,-1.78 -0.98,-2.5 -0.45,-0.72 -1.07,-1.29 -1.85,-1.7 -0.77,-0.42 -1.75,-0.63 -2.91,-0.63 -1.07,0 -1.99,0.19 -2.77,0.57 -0.77,0.38 -1.4,0.92 -1.9,1.62 -0.5,0.7 -0.87,1.52 -1.11,2.47 -0.25,0.95 -0.37,1.99 -0.37,3.12 0,1.09 0.1,2.11 0.3,3.06 0.19,0.95 0.52,1.78 0.99,2.5 0.46,0.7 1.09,1.27 1.86,1.69 0.78,0.42 1.75,0.63 2.92,0.63 1.06,0 1.97,-0.19 2.75,-0.57 0.78,-0.38 1.42,-0.91 1.92,-1.6 0.5,-0.69 0.87,-1.51 1.1,-2.47 0.23,-0.95 0.35,-2 0.35,-3.14zm22.2 4.49c0,1.01 -0.19,1.91 -0.56,2.71 -0.37,0.79 -0.9,1.45 -1.59,1.99 -0.69,0.54 -1.51,0.95 -2.46,1.23 -0.95,0.28 -2,0.42 -3.14,0.42 -0.7,0 -1.37,-0.05 -2.01,-0.16 -0.64,-0.11 -1.21,-0.24 -1.72,-0.41 -0.5,-0.17 -0.93,-0.34 -1.28,-0.52 -0.35,-0.18 -0.61,-0.34 -0.76,-0.49 -0.17,-0.14 -0.28,-0.35 -0.35,-0.62 -0.08,-0.26 -0.11,-0.62 -0.11,-1.08 0,-0.28 0.01,-0.51 0.04,-0.7 0.03,-0.19 0.07,-0.34 0.11,-0.46 0.04,-0.12 0.11,-0.2 0.19,-0.26 0.08,-0.05 0.17,-0.08 0.28,-0.08 0.16,0 0.4,0.1 0.71,0.3 0.31,0.19 0.7,0.41 1.16,0.64 0.46,0.23 1,0.45 1.63,0.64 0.63,0.2 1.35,0.3 2.17,0.3 0.61,0 1.17,-0.07 1.66,-0.2 0.5,-0.13 0.93,-0.32 1.3,-0.58 0.37,-0.25 0.64,-0.58 0.85,-0.98 0.2,-0.4 0.29,-0.87 0.29,-1.42 0,-0.55 -0.14,-1.03 -0.43,-1.4 -0.28,-0.38 -0.66,-0.72 -1.12,-1.01 -0.47,-0.29 -1,-0.55 -1.58,-0.78 -0.58,-0.22 -1.18,-0.46 -1.81,-0.71 -0.61,-0.25 -1.22,-0.53 -1.81,-0.85 -0.59,-0.32 -1.12,-0.7 -1.59,-1.15 -0.46,-0.46 -0.84,-1 -1.12,-1.63 -0.28,-0.63 -0.43,-1.38 -0.43,-2.26 0,-0.77 0.15,-1.51 0.45,-2.22 0.3,-0.71 0.75,-1.33 1.35,-1.87 0.61,-0.53 1.36,-0.97 2.26,-1.29 0.9,-0.32 1.95,-0.48 3.15,-0.48 0.53,0 1.05,0.04 1.58,0.13 0.53,0.09 1,0.21 1.42,0.34 0.43,0.14 0.79,0.28 1.09,0.44 0.3,0.16 0.53,0.3 0.68,0.43 0.16,0.12 0.25,0.22 0.31,0.31 0.05,0.09 0.09,0.19 0.11,0.3 0.02,0.1 0.04,0.24 0.07,0.4 0.02,0.17 0.03,0.36 0.03,0.59 0,0.25 -0.01,0.46 -0.03,0.64 -0.02,0.18 -0.06,0.33 -0.11,0.44 -0.05,0.12 -0.11,0.2 -0.19,0.25 -0.08,0.05 -0.16,0.08 -0.24,0.08 -0.14,0 -0.32,-0.08 -0.58,-0.25 -0.25,-0.16 -0.57,-0.33 -0.97,-0.52 -0.4,-0.19 -0.86,-0.36 -1.39,-0.52 -0.53,-0.17 -1.15,-0.25 -1.84,-0.25 -0.61,0 -1.16,0.07 -1.63,0.21 -0.47,0.14 -0.85,0.33 -1.15,0.58 -0.3,0.25 -0.53,0.55 -0.68,0.91 -0.16,0.34 -0.23,0.73 -0.23,1.13 0,0.57 0.15,1.05 0.44,1.44 0.29,0.39 0.67,0.73 1.14,1.02 0.46,0.29 1,0.55 1.6,0.79 0.6,0.23 1.21,0.47 1.83,0.72 0.62,0.26 1.24,0.53 1.84,0.84 0.61,0.31 1.15,0.68 1.61,1.12 0.47,0.44 0.85,0.97 1.13,1.58 0.28,0.62 0.43,1.35 0.43,2.2zm23.99 -4.81c0,1.73 -0.19,3.28 -0.56,4.66 -0.37,1.37 -0.91,2.54 -1.64,3.5 -0.72,0.96 -1.62,1.7 -2.68,2.22 -1.06,0.52 -2.29,0.78 -3.66,0.78 -0.58,0 -1.12,-0.06 -1.62,-0.17 -0.5,-0.12 -0.98,-0.3 -1.46,-0.55 -0.47,-0.25 -0.94,-0.56 -1.41,-0.94 -0.47,-0.37 -0.97,-0.82 -1.49,-1.33l0 9.9c0,0.12 -0.03,0.22 -0.09,0.31 -0.06,0.09 -0.15,0.16 -0.28,0.22 -0.14,0.05 -0.31,0.1 -0.55,0.13 -0.23,0.03 -0.53,0.04 -0.9,0.04 -0.36,0 -0.65,-0.01 -0.88,-0.04 -0.24,-0.03 -0.43,-0.08 -0.56,-0.13 -0.14,-0.06 -0.24,-0.13 -0.29,-0.22 -0.05,-0.09 -0.08,-0.19 -0.08,-0.31l0 -27.61c0,-0.13 0.02,-0.24 0.07,-0.32 0.05,-0.08 0.14,-0.15 0.26,-0.2 0.13,-0.06 0.3,-0.1 0.51,-0.13 0.2,-0.02 0.46,-0.03 0.75,-0.03 0.31,0 0.56,0.01 0.76,0.03 0.19,0.02 0.36,0.07 0.49,0.12 0.13,0.06 0.22,0.14 0.28,0.21 0.05,0.08 0.07,0.19 0.07,0.32l0 2.65c0.6,-0.61 1.18,-1.15 1.73,-1.6 0.55,-0.45 1.12,-0.82 1.68,-1.12 0.56,-0.3 1.14,-0.53 1.73,-0.68 0.59,-0.16 1.21,-0.23 1.87,-0.23 1.43,0 2.65,0.28 3.66,0.83 1,0.56 1.83,1.32 2.47,2.29 0.64,0.97 1.1,2.09 1.39,3.37 0.29,1.28 0.43,2.64 0.43,4.07zm-3.78 0.42c0,-1.01 -0.08,-1.99 -0.23,-2.94 -0.15,-0.94 -0.42,-1.78 -0.79,-2.52 -0.37,-0.73 -0.88,-1.32 -1.51,-1.76 -0.63,-0.44 -1.42,-0.66 -2.35,-0.66 -0.47,0 -0.93,0.07 -1.39,0.21 -0.45,0.14 -0.91,0.36 -1.39,0.66 -0.46,0.3 -0.96,0.7 -1.47,1.19 -0.51,0.49 -1.06,1.1 -1.63,1.82l0 7.86c1,1.22 1.94,2.15 2.83,2.8 0.9,0.64 1.84,0.97 2.82,0.97 0.91,0 1.69,-0.22 2.34,-0.66 0.65,-0.44 1.18,-1.03 1.58,-1.76 0.4,-0.73 0.7,-1.55 0.89,-2.47 0.19,-0.91 0.28,-1.83 0.28,-2.75zm13.52 9.79c0,0.12 -0.03,0.22 -0.09,0.3 -0.06,0.08 -0.15,0.15 -0.28,0.21 -0.14,0.05 -0.31,0.1 -0.55,0.13 -0.23,0.03 -0.53,0.04 -0.9,0.04 -0.36,0 -0.65,-0.01 -0.88,-0.04 -0.24,-0.03 -0.43,-0.08 -0.56,-0.13 -0.14,-0.06 -0.24,-0.13 -0.29,-0.21 -0.05,-0.08 -0.08,-0.18 -0.08,-0.3l0 -19.77c0,-0.1 0.02,-0.2 0.08,-0.28 0.05,-0.09 0.15,-0.16 0.29,-0.22 0.13,-0.05 0.32,-0.1 0.56,-0.13 0.23,-0.03 0.52,-0.04 0.88,-0.04 0.37,0 0.67,0.01 0.9,0.04 0.24,0.03 0.42,0.08 0.55,0.13 0.13,0.06 0.22,0.13 0.28,0.22 0.06,0.08 0.09,0.18 0.09,0.28l0 19.77zm0.4 -26.43c0,0.85 -0.17,1.43 -0.49,1.74 -0.32,0.31 -0.91,0.46 -1.78,0.46 -0.85,0 -1.44,-0.15 -1.75,-0.45 -0.31,-0.3 -0.47,-0.87 -0.47,-1.71 0,-0.85 0.17,-1.43 0.49,-1.74 0.32,-0.31 0.91,-0.46 1.78,-0.46 0.85,0 1.44,0.15 1.75,0.45 0.32,0.3 0.47,0.87 0.47,1.71zm17.17 24.96c0,0.43 -0.03,0.76 -0.09,1.01 -0.05,0.25 -0.14,0.44 -0.26,0.55 -0.11,0.12 -0.29,0.23 -0.52,0.33 -0.23,0.11 -0.5,0.19 -0.8,0.26 -0.3,0.07 -0.61,0.12 -0.95,0.16 -0.34,0.05 -0.67,0.07 -1,0.07 -1.03,0 -1.9,-0.14 -2.63,-0.41 -0.73,-0.27 -1.33,-0.68 -1.8,-1.23 -0.46,-0.55 -0.8,-1.24 -1.02,-2.08 -0.21,-0.84 -0.31,-1.83 -0.31,-2.97l0 -11.53 -2.78 0c-0.22,0 -0.4,-0.12 -0.53,-0.35 -0.13,-0.23 -0.19,-0.61 -0.19,-1.15 0,-0.28 0.01,-0.51 0.05,-0.7 0.04,-0.19 0.09,-0.35 0.14,-0.48 0.06,-0.12 0.14,-0.21 0.23,-0.26 0.1,-0.05 0.2,-0.08 0.32,-0.08l2.76 0 0 -4.69c0,-0.1 0.02,-0.2 0.08,-0.28 0.05,-0.09 0.15,-0.17 0.29,-0.23 0.13,-0.07 0.32,-0.11 0.56,-0.14 0.23,-0.03 0.52,-0.04 0.88,-0.04 0.37,0 0.67,0.01 0.9,0.04 0.24,0.03 0.42,0.08 0.55,0.14 0.13,0.07 0.22,0.14 0.28,0.23 0.06,0.08 0.09,0.18 0.09,0.28l0 4.69 5.04 0c0.12,0 0.22,0.02 0.31,0.08 0.08,0.05 0.16,0.14 0.22,0.26 0.07,0.13 0.11,0.28 0.14,0.48 0.03,0.19 0.05,0.42 0.05,0.7 0,0.53 -0.07,0.91 -0.19,1.15 -0.13,0.23 -0.31,0.35 -0.52,0.35l-5.04 0 0 10.99c0,1.36 0.2,2.38 0.6,3.07 0.4,0.7 1.12,1.04 2.15,1.04 0.33,0 0.63,-0.03 0.89,-0.1 0.26,-0.07 0.49,-0.13 0.7,-0.21 0.2,-0.07 0.37,-0.14 0.53,-0.21 0.14,-0.07 0.28,-0.1 0.39,-0.1 0.07,0 0.14,0.01 0.21,0.05 0.06,0.04 0.11,0.1 0.15,0.21 0.04,0.1 0.07,0.24 0.1,0.42 0.03,0.17 0.05,0.4 0.05,0.66zm19.79 1.49c0,0.17 -0.06,0.31 -0.17,0.4 -0.12,0.09 -0.28,0.15 -0.49,0.19 -0.2,0.05 -0.5,0.07 -0.9,0.07 -0.37,0 -0.68,-0.02 -0.91,-0.07 -0.22,-0.04 -0.39,-0.1 -0.49,-0.19 -0.11,-0.09 -0.16,-0.22 -0.16,-0.4l0 -1.98c-0.86,0.92 -1.82,1.64 -2.89,2.15 -1.06,0.5 -2.19,0.76 -3.37,0.76 -1.04,0 -1.99,-0.13 -2.83,-0.4 -0.84,-0.27 -1.56,-0.67 -2.15,-1.18 -0.59,-0.51 -1.06,-1.15 -1.39,-1.89 -0.33,-0.75 -0.49,-1.6 -0.49,-2.55 0,-1.12 0.22,-2.08 0.68,-2.9 0.45,-0.82 1.1,-1.51 1.96,-2.05 0.85,-0.54 1.89,-0.95 3.12,-1.22 1.23,-0.27 2.61,-0.4 4.15,-0.4l2.73 0 0 -1.54c0,-0.76 -0.08,-1.43 -0.24,-2.02 -0.17,-0.58 -0.42,-1.07 -0.78,-1.46 -0.36,-0.39 -0.82,-0.68 -1.39,-0.88 -0.57,-0.2 -1.27,-0.3 -2.11,-0.3 -0.89,0 -1.69,0.1 -2.4,0.32 -0.71,0.22 -1.33,0.45 -1.87,0.71 -0.53,0.26 -0.98,0.49 -1.34,0.71 -0.35,0.22 -0.62,0.32 -0.79,0.32 -0.12,0 -0.22,-0.03 -0.31,-0.09 -0.09,-0.05 -0.17,-0.14 -0.23,-0.26 -0.07,-0.11 -0.11,-0.26 -0.14,-0.44 -0.03,-0.19 -0.04,-0.38 -0.04,-0.61 0,-0.36 0.02,-0.65 0.08,-0.86 0.05,-0.21 0.18,-0.41 0.37,-0.6 0.19,-0.19 0.54,-0.41 1.02,-0.67 0.48,-0.25 1.04,-0.49 1.67,-0.71 0.62,-0.21 1.31,-0.39 2.06,-0.53 0.74,-0.14 1.5,-0.21 2.26,-0.21 1.42,0 2.62,0.16 3.62,0.48 1,0.32 1.8,0.8 2.41,1.42 0.61,0.62 1.06,1.39 1.33,2.31 0.28,0.92 0.42,2 0.42,3.23l0 13.34zm-3.6 -9.05l-3.09 0c-0.99,0 -1.85,0.08 -2.59,0.26 -0.73,0.16 -1.33,0.42 -1.82,0.75 -0.48,0.33 -0.83,0.72 -1.06,1.18 -0.22,0.46 -0.34,1 -0.34,1.6 0,1.03 0.32,1.84 0.97,2.45 0.65,0.61 1.56,0.91 2.74,0.91 0.94,0 1.83,-0.24 2.64,-0.73 0.81,-0.48 1.66,-1.22 2.55,-2.22l0 -4.2zm14.54 9.03c0,0.12 -0.03,0.22 -0.09,0.3 -0.06,0.08 -0.15,0.15 -0.28,0.21 -0.13,0.05 -0.31,0.1 -0.55,0.13 -0.23,0.03 -0.53,0.04 -0.9,0.04 -0.36,0 -0.65,-0.01 -0.88,-0.04 -0.24,-0.03 -0.43,-0.08 -0.56,-0.13 -0.14,-0.06 -0.24,-0.13 -0.29,-0.21 -0.05,-0.08 -0.07,-0.18 -0.07,-0.3l0 -29.32c0,-0.12 0.02,-0.22 0.07,-0.31 0.05,-0.09 0.15,-0.16 0.29,-0.22 0.13,-0.05 0.32,-0.1 0.56,-0.13 0.23,-0.03 0.52,-0.04 0.88,-0.04 0.37,0 0.67,0.01 0.9,0.04 0.24,0.03 0.42,0.08 0.55,0.13 0.13,0.06 0.23,0.13 0.28,0.22 0.06,0.08 0.09,0.19 0.09,0.31l0 29.32zm36.86 -3.45c0,0.23 -0.01,0.43 -0.02,0.61 -0.01,0.17 -0.04,0.32 -0.07,0.46 -0.04,0.13 -0.08,0.25 -0.14,0.35 -0.06,0.1 -0.17,0.23 -0.31,0.37 -0.15,0.15 -0.46,0.37 -0.92,0.67 -0.47,0.3 -1.06,0.59 -1.75,0.88 -0.7,0.28 -1.49,0.53 -2.39,0.72 -0.91,0.2 -1.89,0.3 -2.96,0.3 -1.84,0 -3.51,-0.31 -5,-0.92 -1.48,-0.61 -2.76,-1.52 -3.8,-2.73 -1.05,-1.2 -1.86,-2.68 -2.42,-4.44 -0.56,-1.77 -0.85,-3.8 -0.85,-6.1 0,-2.36 0.31,-4.46 0.91,-6.31 0.61,-1.84 1.46,-3.41 2.56,-4.69 1.1,-1.28 2.41,-2.26 3.95,-2.93 1.53,-0.67 3.23,-1.01 5.09,-1.01 0.82,0 1.63,0.08 2.4,0.22 0.78,0.16 1.5,0.35 2.16,0.58 0.66,0.23 1.24,0.5 1.76,0.81 0.51,0.3 0.87,0.55 1.06,0.75 0.2,0.19 0.33,0.34 0.39,0.45 0.06,0.1 0.1,0.22 0.14,0.36 0.04,0.14 0.07,0.31 0.09,0.49 0.02,0.19 0.03,0.42 0.03,0.68 0,0.3 -0.01,0.55 -0.04,0.75 -0.03,0.21 -0.08,0.38 -0.13,0.52 -0.05,0.13 -0.13,0.24 -0.21,0.31 -0.08,0.07 -0.18,0.1 -0.29,0.1 -0.21,0 -0.49,-0.14 -0.87,-0.43 -0.37,-0.28 -0.84,-0.6 -1.42,-0.94 -0.58,-0.34 -1.29,-0.66 -2.12,-0.94 -0.84,-0.28 -1.84,-0.43 -3,-0.43 -1.27,0 -2.43,0.26 -3.46,0.76 -1.04,0.51 -1.93,1.25 -2.67,2.23 -0.73,0.98 -1.31,2.18 -1.72,3.6 -0.4,1.42 -0.61,3.03 -0.61,4.85 0,1.81 0.19,3.4 0.58,4.79 0.39,1.39 0.95,2.55 1.68,3.48 0.73,0.93 1.63,1.63 2.68,2.11 1.06,0.47 2.26,0.71 3.6,0.71 1.13,0 2.13,-0.14 2.97,-0.42 0.85,-0.28 1.57,-0.58 2.16,-0.93 0.6,-0.34 1.09,-0.65 1.47,-0.93 0.39,-0.28 0.69,-0.42 0.91,-0.42 0.1,0 0.19,0.02 0.27,0.07 0.07,0.04 0.13,0.13 0.17,0.25 0.04,0.13 0.08,0.3 0.1,0.52 0.02,0.22 0.03,0.49 0.03,0.83zm8.88 3.45c0,0.12 -0.03,0.22 -0.09,0.3 -0.06,0.08 -0.15,0.15 -0.28,0.21 -0.14,0.05 -0.31,0.1 -0.55,0.13 -0.23,0.03 -0.53,0.04 -0.9,0.04 -0.36,0 -0.65,-0.01 -0.88,-0.04 -0.24,-0.03 -0.43,-0.08 -0.56,-0.13 -0.14,-0.06 -0.24,-0.13 -0.29,-0.21 -0.05,-0.08 -0.08,-0.18 -0.08,-0.3l0 -29.32c0,-0.12 0.02,-0.22 0.08,-0.31 0.05,-0.09 0.15,-0.16 0.29,-0.22 0.14,-0.05 0.32,-0.1 0.56,-0.13 0.23,-0.03 0.52,-0.04 0.88,-0.04 0.37,0 0.67,0.01 0.9,0.04 0.24,0.03 0.42,0.08 0.55,0.13 0.13,0.06 0.22,0.13 0.28,0.22 0.06,0.08 0.09,0.19 0.09,0.31l0 29.32zm10.96 0c0,0.12 -0.03,0.22 -0.09,0.3 -0.06,0.08 -0.15,0.15 -0.29,0.21 -0.13,0.05 -0.31,0.1 -0.55,0.13 -0.23,0.03 -0.53,0.04 -0.9,0.04 -0.36,0 -0.65,-0.01 -0.88,-0.04 -0.24,-0.03 -0.43,-0.08 -0.56,-0.13 -0.14,-0.06 -0.24,-0.13 -0.29,-0.21 -0.05,-0.08 -0.07,-0.18 -0.07,-0.3l0 -19.77c0,-0.12 0.02,-0.22 0.07,-0.3 0.05,-0.08 0.15,-0.15 0.29,-0.22 0.13,-0.07 0.32,-0.11 0.56,-0.13 0.23,-0.02 0.53,-0.03 0.88,-0.03 0.37,0 0.67,0.01 0.9,0.03 0.24,0.02 0.42,0.07 0.55,0.13 0.14,0.07 0.23,0.14 0.29,0.22 0.06,0.08 0.09,0.18 0.09,0.3l0 19.77zm-0.41 -29.4c0.09,-0.16 0.19,-0.29 0.31,-0.39 0.12,-0.1 0.26,-0.19 0.44,-0.25 0.16,-0.05 0.37,-0.1 0.62,-0.13 0.25,-0.03 0.55,-0.04 0.91,-0.04 0.4,0 0.74,0.02 1,0.08 0.26,0.05 0.44,0.13 0.54,0.22 0.11,0.09 0.14,0.2 0.13,0.33 -0.01,0.12 -0.07,0.25 -0.19,0.38l-3.98 5.12c-0.12,0.15 -0.22,0.26 -0.31,0.35 -0.1,0.09 -0.21,0.16 -0.33,0.21 -0.13,0.05 -0.29,0.09 -0.49,0.11 -0.19,0.02 -0.44,0.03 -0.73,0.03 -0.32,0 -0.58,-0.02 -0.77,-0.07 -0.19,-0.04 -0.32,-0.1 -0.4,-0.17 -0.08,-0.08 -0.11,-0.17 -0.09,-0.28 0.02,-0.12 0.08,-0.26 0.19,-0.42l3.19 -5.08zm24.73 29.4c0,0.12 -0.03,0.22 -0.09,0.3 -0.06,0.08 -0.15,0.15 -0.28,0.21 -0.13,0.05 -0.31,0.1 -0.55,0.13 -0.23,0.03 -0.52,0.04 -0.88,0.04 -0.37,0 -0.67,-0.01 -0.91,-0.04 -0.24,-0.03 -0.42,-0.08 -0.55,-0.13 -0.14,-0.06 -0.23,-0.13 -0.28,-0.21 -0.06,-0.08 -0.09,-0.18 -0.09,-0.3l0 -11.58c0,-1.12 -0.09,-2.04 -0.26,-2.72 -0.17,-0.69 -0.43,-1.28 -0.76,-1.78 -0.34,-0.49 -0.76,-0.88 -1.3,-1.14 -0.53,-0.26 -1.15,-0.4 -1.84,-0.4 -0.91,0 -1.81,0.32 -2.71,0.97 -0.91,0.64 -1.85,1.59 -2.84,2.83l0 13.82c0,0.12 -0.03,0.22 -0.09,0.3 -0.06,0.08 -0.15,0.15 -0.28,0.21 -0.14,0.05 -0.31,0.1 -0.55,0.13 -0.23,0.03 -0.53,0.04 -0.9,0.04 -0.36,0 -0.65,-0.01 -0.88,-0.04 -0.24,-0.03 -0.43,-0.08 -0.56,-0.13 -0.14,-0.06 -0.24,-0.13 -0.29,-0.21 -0.05,-0.08 -0.08,-0.18 -0.08,-0.3l0 -19.77c0,-0.12 0.02,-0.22 0.07,-0.3 0.05,-0.08 0.13,-0.15 0.26,-0.22 0.14,-0.07 0.3,-0.11 0.51,-0.13 0.2,-0.02 0.48,-0.03 0.82,-0.03 0.32,0 0.59,0.01 0.8,0.03 0.22,0.02 0.38,0.07 0.5,0.13 0.11,0.07 0.2,0.14 0.26,0.22 0.04,0.08 0.08,0.18 0.08,0.3l0 2.62c1.11,-1.25 2.21,-2.17 3.32,-2.74 1.1,-0.58 2.21,-0.87 3.34,-0.87 1.31,0 2.42,0.22 3.32,0.67 0.9,0.45 1.63,1.05 2.18,1.79 0.55,0.75 0.95,1.63 1.19,2.63 0.24,1 0.36,2.21 0.36,3.61l0 12.07zm10.91 0c0,0.12 -0.03,0.22 -0.09,0.3 -0.06,0.08 -0.15,0.15 -0.29,0.21 -0.13,0.05 -0.31,0.1 -0.55,0.13 -0.23,0.03 -0.53,0.04 -0.9,0.04 -0.36,0 -0.65,-0.01 -0.88,-0.04 -0.24,-0.03 -0.43,-0.08 -0.56,-0.13 -0.14,-0.06 -0.24,-0.13 -0.29,-0.21 -0.05,-0.08 -0.08,-0.18 -0.08,-0.3l0 -19.77c0,-0.1 0.02,-0.2 0.08,-0.28 0.05,-0.09 0.15,-0.16 0.29,-0.22 0.13,-0.05 0.32,-0.1 0.56,-0.13 0.23,-0.03 0.53,-0.04 0.88,-0.04 0.37,0 0.67,0.01 0.9,0.04 0.24,0.03 0.42,0.08 0.55,0.13 0.14,0.06 0.23,0.13 0.29,0.22 0.06,0.08 0.09,0.18 0.09,0.28l0 19.77zm0.41 -26.43c0,0.85 -0.17,1.43 -0.49,1.74 -0.32,0.31 -0.91,0.46 -1.78,0.46 -0.85,0 -1.44,-0.15 -1.75,-0.45 -0.31,-0.3 -0.47,-0.87 -0.47,-1.71 0,-0.85 0.17,-1.43 0.49,-1.74 0.32,-0.31 0.91,-0.46 1.78,-0.46 0.85,0 1.44,0.15 1.75,0.45 0.32,0.3 0.47,0.87 0.47,1.71zm21.13 23.39c0,0.25 -0.01,0.46 -0.02,0.64 -0.01,0.19 -0.04,0.34 -0.08,0.46 -0.04,0.13 -0.08,0.23 -0.13,0.33 -0.05,0.1 -0.17,0.24 -0.35,0.42 -0.18,0.19 -0.49,0.41 -0.93,0.69 -0.44,0.27 -0.94,0.52 -1.48,0.73 -0.55,0.22 -1.15,0.39 -1.79,0.52 -0.64,0.13 -1.31,0.2 -2,0.2 -1.42,0 -2.68,-0.23 -3.78,-0.7 -1.1,-0.46 -2.02,-1.15 -2.76,-2.05 -0.74,-0.9 -1.3,-2.01 -1.69,-3.31 -0.39,-1.31 -0.58,-2.82 -0.58,-4.53 0,-1.94 0.24,-3.61 0.71,-5.01 0.48,-1.39 1.13,-2.54 1.96,-3.43 0.83,-0.89 1.81,-1.55 2.92,-1.99 1.12,-0.43 2.34,-0.64 3.64,-0.64 0.63,0 1.24,0.06 1.83,0.18 0.6,0.11 1.14,0.27 1.64,0.46 0.49,0.19 0.94,0.41 1.33,0.67 0.39,0.25 0.67,0.46 0.85,0.64 0.18,0.18 0.3,0.32 0.37,0.42 0.06,0.1 0.12,0.22 0.17,0.37 0.04,0.14 0.07,0.29 0.08,0.47 0.01,0.17 0.02,0.4 0.02,0.66 0,0.57 -0.07,0.97 -0.19,1.2 -0.13,0.22 -0.29,0.34 -0.49,0.34 -0.22,0 -0.47,-0.12 -0.76,-0.37 -0.28,-0.24 -0.64,-0.51 -1.09,-0.8 -0.44,-0.29 -0.97,-0.56 -1.6,-0.8 -0.62,-0.25 -1.36,-0.37 -2.2,-0.37 -1.75,0 -3.09,0.67 -4.02,2.01 -0.93,1.33 -1.39,3.27 -1.39,5.81 0,1.27 0.12,2.38 0.36,3.34 0.25,0.95 0.6,1.75 1.07,2.4 0.46,0.64 1.04,1.12 1.72,1.43 0.68,0.32 1.46,0.47 2.34,0.47 0.84,0 1.57,-0.13 2.2,-0.4 0.63,-0.26 1.17,-0.55 1.63,-0.88 0.46,-0.31 0.85,-0.6 1.17,-0.85 0.31,-0.26 0.55,-0.39 0.73,-0.39 0.1,0 0.19,0.03 0.26,0.09 0.08,0.06 0.14,0.16 0.19,0.29 0.05,0.14 0.09,0.31 0.11,0.53 0.02,0.21 0.03,0.46 0.03,0.76z"/>
    <path class="fil0" d="M283.96 170.51c0,1.61 -0.21,3.09 -0.64,4.45 -0.42,1.35 -1.06,2.52 -1.9,3.5 -0.84,0.98 -1.9,1.75 -3.15,2.29 -1.27,0.55 -2.74,0.82 -4.4,0.82 -1.63,0 -3.04,-0.24 -4.25,-0.73 -1.21,-0.48 -2.21,-1.18 -3.01,-2.11 -0.8,-0.92 -1.4,-2.05 -1.8,-3.36 -0.4,-1.32 -0.59,-2.81 -0.59,-4.48 0,-1.61 0.21,-3.09 0.62,-4.44 0.42,-1.36 1.05,-2.53 1.89,-3.51 0.84,-0.98 1.89,-1.74 3.15,-2.29 1.26,-0.54 2.73,-0.81 4.41,-0.81 1.63,0 3.04,0.24 4.25,0.73 1.21,0.48 2.21,1.18 3.01,2.11 0.8,0.92 1.41,2.04 1.81,3.36 0.4,1.32 0.6,2.8 0.6,4.46zm-3.78 0.23c0,-1.07 -0.1,-2.08 -0.3,-3.04 -0.19,-0.95 -0.52,-1.78 -0.98,-2.5 -0.45,-0.72 -1.07,-1.29 -1.85,-1.7 -0.77,-0.42 -1.75,-0.63 -2.91,-0.63 -1.07,0 -1.99,0.19 -2.77,0.57 -0.77,0.38 -1.4,0.92 -1.9,1.62 -0.5,0.7 -0.87,1.52 -1.11,2.47 -0.25,0.95 -0.37,1.99 -0.37,3.12 0,1.09 0.1,2.11 0.3,3.06 0.19,0.95 0.52,1.78 0.99,2.5 0.46,0.7 1.09,1.27 1.86,1.69 0.78,0.42 1.75,0.63 2.92,0.63 1.06,0 1.97,-0.19 2.75,-0.57 0.78,-0.38 1.42,-0.91 1.92,-1.6 0.5,-0.69 0.87,-1.51 1.1,-2.47 0.23,-0.95 0.35,-2 0.35,-3.14z"/>
   </g>
   <path class="fil1" d="M38.93 232.9c0,0.17 -0.04,0.33 -0.14,0.46 -0.1,0.13 -0.27,0.25 -0.52,0.33 -0.25,0.08 -0.58,0.15 -0.99,0.2 -0.41,0.05 -0.94,0.08 -1.57,0.08 -0.62,0 -1.14,-0.03 -1.55,-0.08 -0.41,-0.05 -0.74,-0.12 -0.98,-0.2 -0.24,-0.09 -0.41,-0.2 -0.51,-0.33 -0.11,-0.14 -0.16,-0.3 -0.16,-0.46l0 -27.11 -0.05 0 -9.62 27.08c-0.07,0.22 -0.17,0.4 -0.33,0.55 -0.16,0.15 -0.36,0.26 -0.63,0.35 -0.26,0.08 -0.61,0.14 -1.01,0.17 -0.41,0.03 -0.91,0.03 -1.49,0.03 -0.59,0 -1.08,-0.02 -1.49,-0.06 -0.41,-0.04 -0.76,-0.11 -1.02,-0.21 -0.26,-0.1 -0.47,-0.21 -0.63,-0.34 -0.15,-0.14 -0.26,-0.31 -0.31,-0.49l-9.28 -27.08 -0.05 0 0 27.11c0,0.17 -0.04,0.33 -0.14,0.46 -0.1,0.13 -0.27,0.25 -0.53,0.33 -0.26,0.08 -0.6,0.15 -1,0.2 -0.4,0.05 -0.92,0.08 -1.55,0.08 -0.62,0 -1.14,-0.03 -1.55,-0.08 -0.41,-0.05 -0.75,-0.12 -0.99,-0.2 -0.25,-0.09 -0.42,-0.2 -0.52,-0.33 -0.1,-0.14 -0.14,-0.3 -0.14,-0.46l0 -29.67c0,-0.88 0.23,-1.55 0.69,-2.01 0.47,-0.47 1.08,-0.69 1.86,-0.69l4.43 0c0.79,0 1.48,0.06 2.04,0.19 0.57,0.13 1.06,0.34 1.48,0.64 0.4,0.3 0.76,0.69 1.03,1.19 0.27,0.49 0.52,1.1 0.72,1.82l7.17 19.84 0.11 0 7.43 -19.79c0.22,-0.72 0.46,-1.33 0.73,-1.83 0.27,-0.49 0.58,-0.9 0.93,-1.2 0.35,-0.31 0.77,-0.53 1.25,-0.66 0.48,-0.13 1.04,-0.19 1.68,-0.19l4.57 0c0.46,0 0.86,0.06 1.19,0.18 0.33,0.11 0.61,0.29 0.82,0.53 0.22,0.23 0.38,0.51 0.49,0.84 0.11,0.33 0.17,0.72 0.17,1.15l0 29.67zm32.83 -1.6c0.2,0.61 0.33,1.11 0.39,1.47 0.05,0.36 -0.02,0.63 -0.2,0.82 -0.19,0.17 -0.53,0.29 -1.01,0.33 -0.47,0.04 -1.14,0.06 -1.98,0.06 -0.88,0 -1.56,-0.01 -2.05,-0.03 -0.49,-0.03 -0.86,-0.08 -1.12,-0.16 -0.26,-0.08 -0.43,-0.18 -0.54,-0.33 -0.1,-0.13 -0.19,-0.32 -0.25,-0.54l-2.19 -6.69 -12.56 0 -2.1 6.51c-0.07,0.25 -0.16,0.45 -0.27,0.61 -0.1,0.17 -0.29,0.29 -0.54,0.39 -0.25,0.1 -0.6,0.16 -1.05,0.19 -0.46,0.04 -1.05,0.05 -1.79,0.05 -0.79,0 -1.41,-0.03 -1.85,-0.08 -0.45,-0.05 -0.76,-0.18 -0.92,-0.37 -0.18,-0.2 -0.24,-0.48 -0.18,-0.84 0.05,-0.36 0.18,-0.83 0.39,-1.44l10.26 -29.55c0.1,-0.29 0.22,-0.53 0.36,-0.7 0.13,-0.18 0.35,-0.32 0.65,-0.41 0.31,-0.1 0.72,-0.16 1.25,-0.18 0.53,-0.03 1.23,-0.03 2.11,-0.03 1.01,0 1.82,0.01 2.41,0.03 0.61,0.03 1.07,0.09 1.41,0.18 0.33,0.1 0.57,0.24 0.72,0.42 0.14,0.19 0.27,0.45 0.37,0.77l10.29 29.52zm-15.28 -24.45l-0.03 0 -4.64 14.17 9.34 0 -4.68 -14.17zm44.3 -1.15c0,0.49 -0.02,0.92 -0.06,1.28 -0.04,0.36 -0.11,0.65 -0.18,0.86 -0.08,0.22 -0.17,0.37 -0.28,0.45 -0.11,0.09 -0.25,0.13 -0.4,0.13 -0.23,0 -0.59,-0.16 -1.08,-0.47 -0.5,-0.31 -1.16,-0.65 -1.98,-1.01 -0.83,-0.36 -1.8,-0.7 -2.94,-1.01 -1.14,-0.31 -2.47,-0.47 -3.98,-0.47 -1.61,0 -3.06,0.28 -4.36,0.83 -1.31,0.56 -2.42,1.35 -3.35,2.37 -0.92,1.03 -1.63,2.25 -2.13,3.69 -0.5,1.43 -0.75,3.01 -0.75,4.75 0,1.91 0.25,3.58 0.76,5.04 0.51,1.45 1.22,2.66 2.13,3.64 0.91,0.98 2.01,1.71 3.28,2.21 1.28,0.5 2.7,0.75 4.23,0.75 0.76,0 1.5,-0.09 2.24,-0.26 0.75,-0.18 1.43,-0.44 2.06,-0.78l0 -7.76 -6.3 0c-0.31,0 -0.54,-0.19 -0.72,-0.58 -0.17,-0.39 -0.26,-1.04 -0.26,-1.97 0,-0.47 0.02,-0.88 0.06,-1.2 0.04,-0.33 0.11,-0.59 0.19,-0.78 0.09,-0.2 0.19,-0.34 0.31,-0.44 0.12,-0.1 0.26,-0.14 0.41,-0.14l11.24 0c0.27,0 0.52,0.04 0.73,0.14 0.22,0.1 0.4,0.24 0.57,0.43 0.16,0.19 0.29,0.41 0.37,0.68 0.09,0.27 0.13,0.58 0.13,0.92l0 13.28c0,0.52 -0.09,0.97 -0.27,1.35 -0.18,0.39 -0.54,0.69 -1.11,0.91 -0.55,0.23 -1.25,0.46 -2.07,0.7 -0.83,0.24 -1.68,0.45 -2.56,0.62 -0.88,0.18 -1.77,0.31 -2.68,0.39 -0.9,0.09 -1.8,0.13 -2.71,0.13 -2.66,0 -5.04,-0.39 -7.15,-1.15 -2.1,-0.76 -3.88,-1.87 -5.34,-3.32 -1.46,-1.45 -2.57,-3.21 -3.35,-5.3 -0.77,-2.09 -1.16,-4.45 -1.16,-7.1 0,-2.73 0.41,-5.18 1.24,-7.35 0.82,-2.18 1.99,-4.02 3.5,-5.54 1.51,-1.52 3.33,-2.68 5.47,-3.49 2.13,-0.81 4.51,-1.21 7.13,-1.21 1.45,0 2.76,0.1 3.94,0.3 1.18,0.2 2.21,0.44 3.1,0.73 0.88,0.28 1.62,0.59 2.2,0.91 0.59,0.33 0.99,0.62 1.22,0.86 0.24,0.24 0.4,0.58 0.5,1.02 0.1,0.43 0.16,1.08 0.16,1.94zm32.41 25.6c0.2,0.61 0.33,1.11 0.39,1.47 0.05,0.36 -0.02,0.63 -0.2,0.82 -0.19,0.17 -0.53,0.29 -1.01,0.33 -0.47,0.04 -1.14,0.06 -1.98,0.06 -0.88,0 -1.56,-0.01 -2.05,-0.03 -0.49,-0.03 -0.86,-0.08 -1.12,-0.16 -0.26,-0.08 -0.43,-0.18 -0.54,-0.33 -0.1,-0.13 -0.19,-0.32 -0.25,-0.54l-2.19 -6.69 -12.56 0 -2.1 6.51c-0.07,0.25 -0.16,0.45 -0.27,0.61 -0.1,0.17 -0.29,0.29 -0.54,0.39 -0.25,0.1 -0.6,0.16 -1.05,0.19 -0.46,0.04 -1.05,0.05 -1.79,0.05 -0.79,0 -1.41,-0.03 -1.85,-0.08 -0.45,-0.05 -0.76,-0.18 -0.92,-0.37 -0.18,-0.2 -0.24,-0.48 -0.18,-0.84 0.05,-0.36 0.18,-0.83 0.39,-1.44l10.26 -29.55c0.1,-0.29 0.22,-0.53 0.36,-0.7 0.13,-0.18 0.35,-0.32 0.65,-0.41 0.31,-0.1 0.72,-0.16 1.25,-0.18 0.53,-0.03 1.23,-0.03 2.11,-0.03 1.01,0 1.82,0.01 2.41,0.03 0.61,0.03 1.07,0.09 1.41,0.18 0.33,0.1 0.57,0.24 0.72,0.42 0.14,0.19 0.27,0.45 0.37,0.77l10.29 29.52zm-15.28 -24.45l-0.03 0 -4.64 14.17 9.34 0 -4.68 -14.17zm36.52 24.14c0,0.51 -0.02,0.95 -0.06,1.3 -0.04,0.35 -0.11,0.64 -0.19,0.87 -0.09,0.24 -0.19,0.4 -0.33,0.5 -0.13,0.1 -0.28,0.16 -0.45,0.16l-15.25 0c-0.56,0 -1.04,-0.17 -1.42,-0.5 -0.39,-0.33 -0.58,-0.88 -0.58,-1.63l0 -30.24c0,-0.17 0.05,-0.33 0.17,-0.47 0.11,-0.13 0.3,-0.25 0.55,-0.33 0.26,-0.09 0.61,-0.15 1.05,-0.2 0.44,-0.05 0.98,-0.08 1.63,-0.08 0.67,0 1.22,0.03 1.65,0.08 0.42,0.05 0.77,0.11 1.03,0.2 0.25,0.09 0.44,0.2 0.55,0.33 0.11,0.14 0.17,0.3 0.17,0.47l0 26.79 10.46 0c0.17,0 0.33,0.04 0.45,0.14 0.13,0.1 0.24,0.25 0.33,0.47 0.09,0.21 0.15,0.49 0.19,0.85 0.04,0.35 0.06,0.78 0.06,1.3zm20.57 0c0,0.51 -0.02,0.95 -0.06,1.3 -0.04,0.35 -0.11,0.64 -0.19,0.87 -0.09,0.24 -0.19,0.4 -0.33,0.5 -0.13,0.1 -0.28,0.16 -0.45,0.16l-15.25 0c-0.56,0 -1.04,-0.17 -1.42,-0.5 -0.39,-0.33 -0.58,-0.88 -0.58,-1.63l0 -30.24c0,-0.17 0.05,-0.33 0.17,-0.47 0.11,-0.13 0.3,-0.25 0.55,-0.33 0.26,-0.09 0.61,-0.15 1.05,-0.2 0.44,-0.05 0.98,-0.08 1.63,-0.08 0.67,0 1.22,0.03 1.65,0.08 0.42,0.05 0.77,0.11 1.03,0.2 0.26,0.09 0.44,0.2 0.55,0.33 0.11,0.14 0.17,0.3 0.17,0.47l0 26.79 10.46 0c0.17,0 0.33,0.04 0.45,0.14 0.13,0.1 0.24,0.25 0.33,0.47 0.09,0.21 0.15,0.49 0.19,0.85 0.04,0.35 0.06,0.78 0.06,1.3zm29.55 0.31c0.2,0.61 0.33,1.11 0.39,1.47 0.05,0.36 -0.02,0.63 -0.2,0.82 -0.19,0.17 -0.53,0.29 -1.01,0.33 -0.47,0.04 -1.14,0.06 -1.98,0.06 -0.88,0 -1.56,-0.01 -2.05,-0.03 -0.49,-0.03 -0.86,-0.08 -1.12,-0.16 -0.25,-0.08 -0.43,-0.18 -0.54,-0.33 -0.11,-0.13 -0.19,-0.32 -0.26,-0.54l-2.19 -6.69 -12.56 0 -2.1 6.51c-0.07,0.25 -0.16,0.45 -0.27,0.61 -0.11,0.17 -0.29,0.29 -0.54,0.39 -0.25,0.1 -0.6,0.16 -1.05,0.19 -0.46,0.04 -1.05,0.05 -1.79,0.05 -0.79,0 -1.41,-0.03 -1.85,-0.08 -0.45,-0.05 -0.76,-0.18 -0.92,-0.37 -0.18,-0.2 -0.24,-0.48 -0.18,-0.84 0.05,-0.36 0.18,-0.83 0.39,-1.44l10.26 -29.55c0.1,-0.29 0.22,-0.53 0.36,-0.7 0.13,-0.18 0.35,-0.32 0.65,-0.41 0.31,-0.1 0.72,-0.16 1.26,-0.18 0.53,-0.03 1.23,-0.03 2.11,-0.03 1.01,0 1.82,0.01 2.41,0.03 0.61,0.03 1.07,0.09 1.41,0.18 0.33,0.1 0.57,0.24 0.72,0.42 0.14,0.19 0.27,0.45 0.37,0.77l10.29 29.52zm-15.28 -24.45l-0.03 0 -4.64 14.17 9.34 0 -4.68 -14.17zm45.68 24.6c0,0.4 -0.07,0.75 -0.2,1.06 -0.14,0.31 -0.33,0.56 -0.56,0.77 -0.23,0.2 -0.5,0.35 -0.82,0.45 -0.33,0.1 -0.64,0.14 -0.97,0.14l-2.89 0c-0.61,0 -1.12,-0.06 -1.56,-0.18 -0.43,-0.12 -0.83,-0.34 -1.2,-0.66 -0.38,-0.32 -0.73,-0.75 -1.07,-1.29 -0.34,-0.54 -0.73,-1.24 -1.16,-2.1l-8.26 -15.57c-0.48,-0.93 -0.97,-1.93 -1.47,-3 -0.5,-1.07 -0.94,-2.12 -1.33,-3.13l-0.05 0c0.07,1.24 0.12,2.47 0.16,3.7 0.03,1.22 0.05,2.49 0.05,3.79l0 17.43c0,0.17 -0.04,0.33 -0.14,0.47 -0.1,0.13 -0.26,0.25 -0.49,0.34 -0.23,0.1 -0.54,0.17 -0.94,0.22 -0.4,0.05 -0.9,0.08 -1.52,0.08 -0.61,0 -1.11,-0.03 -1.5,-0.08 -0.4,-0.05 -0.7,-0.12 -0.92,-0.22 -0.23,-0.09 -0.39,-0.21 -0.47,-0.34 -0.09,-0.14 -0.13,-0.3 -0.13,-0.47l0 -29.93c0,-0.81 0.24,-1.41 0.71,-1.82 0.47,-0.4 1.05,-0.61 1.74,-0.61l3.63 0c0.65,0 1.2,0.05 1.65,0.17 0.45,0.11 0.84,0.3 1.19,0.55 0.35,0.25 0.69,0.61 0.99,1.07 0.31,0.45 0.62,1.02 0.95,1.69l6.47 12.18c0.38,0.74 0.75,1.47 1.12,2.18 0.37,0.71 0.73,1.42 1.06,2.13 0.34,0.71 0.68,1.41 1,2.1 0.33,0.69 0.65,1.38 0.96,2.06l0.03 0c-0.05,-1.2 -0.1,-2.46 -0.12,-3.76 -0.03,-1.31 -0.03,-2.56 -0.03,-3.74l0 -15.63c0,-0.17 0.05,-0.32 0.16,-0.46 0.1,-0.13 0.27,-0.26 0.51,-0.36 0.25,-0.11 0.56,-0.18 0.96,-0.22 0.4,-0.04 0.9,-0.06 1.52,-0.06 0.59,0 1.08,0.02 1.48,0.06 0.4,0.04 0.69,0.11 0.91,0.22 0.21,0.1 0.37,0.23 0.45,0.36 0.09,0.14 0.13,0.29 0.13,0.46l0 29.93zm25.25 -0.29c0,0.5 -0.02,0.91 -0.06,1.26 -0.04,0.33 -0.11,0.61 -0.19,0.81 -0.09,0.21 -0.19,0.36 -0.33,0.46 -0.12,0.1 -0.27,0.14 -0.42,0.14l-16.7 0c-0.56,0 -1.04,-0.17 -1.42,-0.5 -0.39,-0.33 -0.58,-0.88 -0.58,-1.63l0 -29.03c0,-0.76 0.19,-1.3 0.58,-1.63 0.39,-0.33 0.86,-0.5 1.42,-0.5l16.62 0c0.15,0 0.29,0.04 0.41,0.13 0.11,0.09 0.22,0.24 0.31,0.45 0.08,0.22 0.15,0.49 0.19,0.82 0.04,0.34 0.06,0.76 0.06,1.28 0,0.48 -0.02,0.89 -0.06,1.23 -0.04,0.33 -0.1,0.61 -0.19,0.81 -0.09,0.21 -0.19,0.36 -0.31,0.46 -0.12,0.1 -0.26,0.14 -0.41,0.14l-11.88 0 0 8.11 10.01 0c0.16,0 0.3,0.04 0.42,0.14 0.13,0.1 0.24,0.24 0.33,0.44 0.09,0.19 0.15,0.46 0.19,0.8 0.04,0.33 0.06,0.74 0.06,1.21 0,0.5 -0.02,0.91 -0.06,1.24 -0.04,0.32 -0.1,0.59 -0.19,0.78 -0.09,0.2 -0.19,0.34 -0.33,0.42 -0.12,0.09 -0.26,0.13 -0.42,0.13l-10.01 0 0 9.38 11.96 0c0.16,0 0.3,0.04 0.42,0.14 0.13,0.1 0.24,0.25 0.33,0.46 0.09,0.2 0.15,0.47 0.19,0.81 0.04,0.34 0.06,0.76 0.06,1.26zm23.53 -7.33c0,1.76 -0.33,3.28 -0.98,4.61 -0.66,1.32 -1.54,2.41 -2.65,3.3 -1.12,0.88 -2.42,1.55 -3.92,1.99 -1.49,0.45 -3.09,0.67 -4.8,0.67 -1.15,0 -2.21,-0.1 -3.21,-0.29 -0.98,-0.19 -1.85,-0.42 -2.61,-0.69 -0.76,-0.26 -1.39,-0.54 -1.9,-0.84 -0.51,-0.3 -0.87,-0.56 -1.1,-0.78 -0.22,-0.23 -0.38,-0.55 -0.47,-0.97 -0.1,-0.42 -0.14,-1.02 -0.14,-1.81 0,-0.54 0.02,-0.97 0.05,-1.33 0.04,-0.36 0.09,-0.65 0.17,-0.88 0.08,-0.22 0.18,-0.38 0.31,-0.47 0.13,-0.1 0.28,-0.14 0.46,-0.14 0.24,0 0.58,0.14 1.02,0.43 0.44,0.28 1,0.6 1.69,0.94 0.69,0.34 1.51,0.66 2.47,0.94 0.95,0.29 2.06,0.43 3.31,0.43 0.82,0 1.56,-0.1 2.21,-0.29 0.66,-0.2 1.21,-0.47 1.67,-0.83 0.46,-0.36 0.8,-0.8 1.05,-1.33 0.24,-0.53 0.36,-1.12 0.36,-1.77 0,-0.76 -0.2,-1.41 -0.61,-1.94 -0.41,-0.54 -0.95,-1.02 -1.62,-1.44 -0.66,-0.42 -1.41,-0.82 -2.26,-1.19 -0.83,-0.37 -1.7,-0.76 -2.6,-1.17 -0.9,-0.41 -1.77,-0.88 -2.6,-1.41 -0.84,-0.52 -1.6,-1.14 -2.26,-1.87 -0.67,-0.73 -1.2,-1.59 -1.62,-2.59 -0.41,-0.99 -0.62,-2.19 -0.62,-3.57 0,-1.59 0.3,-2.99 0.89,-4.21 0.59,-1.2 1.39,-2.2 2.39,-3 1.01,-0.8 2.19,-1.4 3.55,-1.79 1.36,-0.4 2.81,-0.59 4.34,-0.59 0.78,0 1.57,0.06 2.36,0.18 0.79,0.11 1.53,0.28 2.21,0.48 0.69,0.21 1.29,0.44 1.83,0.69 0.53,0.26 0.88,0.47 1.05,0.65 0.17,0.17 0.28,0.32 0.34,0.43 0.06,0.12 0.11,0.28 0.16,0.48 0.04,0.19 0.07,0.44 0.09,0.75 0.02,0.3 0.03,0.67 0.03,1.12 0,0.49 -0.01,0.91 -0.03,1.26 -0.03,0.34 -0.07,0.62 -0.13,0.85 -0.06,0.22 -0.15,0.39 -0.26,0.48 -0.11,0.11 -0.26,0.16 -0.46,0.16 -0.18,0 -0.48,-0.12 -0.9,-0.36 -0.41,-0.24 -0.92,-0.5 -1.52,-0.79 -0.61,-0.28 -1.3,-0.54 -2.09,-0.76 -0.79,-0.24 -1.65,-0.35 -2.6,-0.35 -0.74,0 -1.38,0.09 -1.93,0.27 -0.54,0.18 -1,0.43 -1.37,0.75 -0.37,0.32 -0.65,0.69 -0.83,1.14 -0.18,0.45 -0.27,0.92 -0.27,1.41 0,0.74 0.2,1.38 0.61,1.91 0.4,0.54 0.95,1.03 1.62,1.45 0.68,0.41 1.45,0.81 2.31,1.18 0.85,0.37 1.73,0.76 2.63,1.17 0.9,0.41 1.77,0.88 2.63,1.4 0.86,0.53 1.62,1.15 2.3,1.88 0.67,0.73 1.21,1.58 1.62,2.57 0.41,0.98 0.62,2.14 0.62,3.48z"/>
  </g>
  <g id="_2390319358656">
   <path class="fil2" d="M152.32 0l9.53 0c3.18,0 5.79,2.61 5.79,5.79l0 8.96c-3.21,-6.52 -8.47,-11.74 -15.32,-14.75zm17.29 40.36l32.6 0c3.18,0 5.79,2.61 5.79,5.79l0 40.61c-1.47,0.28 -2.96,0.42 -4.48,0.42 -18.39,0 -33.37,-20.83 -33.91,-46.82zm-10.59 94.39l-39.63 0c-3.18,0 -5.79,-2.6 -5.79,-5.79l0 -32.71c25.84,1.23 46.18,16.63 45.76,34.96 -0.03,1.2 -0.15,2.38 -0.34,3.54zm-74.26 -40.36l-5.72 0c-3.18,0 -5.79,-2.6 -5.79,-5.79l0 -6.29c2.28,5.59 6.58,9.52 11.51,12.07z"/>
   <path class="fil3" d="M79.04 40.36l34.57 0 0 -34.57c0,-3.18 2.61,-5.79 5.79,-5.79l32.92 0c6.85,3.01 12.1,8.22 15.32,14.75l0 25.61 1.97 0c0.54,25.99 15.51,46.82 33.91,46.82 1.52,0 3.01,-0.14 4.48,-0.42l0 1.84c0,3.18 -2.61,5.79 -5.79,5.79l-28.35 0c-9.65,-2.16 -13.64,-6.3 -13.4,-21.38 0.1,-0.77 0.01,-1.55 0.01,-2.34 0,-12.79 0.15,-26.06 0.15,-39.25 0,-9.66 -7.9,-17.56 -17.56,-17.56l-4.15 0c-9.66,0 -17.56,7.9 -17.56,17.56l0 10.3c-0.91,4.42 -2.78,6.21 -6.2,6.61l-10.4 0c-9.82,0 -17.85,8.03 -17.85,17.85l0 4.21c0,9.82 8.03,17.85 17.85,17.85l37.49 0c0.25,0 0.51,-0.01 0.76,-0.02l0.07 0c1.5,0 3.16,-0.04 4.4,-0.15 11.5,0.37 16.45,4.49 20.18,11.67l0 29.21c0,3.18 -2.61,5.79 -5.79,5.79l-2.83 0c0.2,-1.16 0.32,-2.34 0.34,-3.54 0.42,-18.32 -19.92,-33.73 -45.76,-34.96l0 -1.86 -28.85 0c-4.93,-2.55 -9.23,-6.49 -11.51,-12.07l0 -36.16c0,-3.18 2.61,-5.79 5.79,-5.79z"/>
   <path class="fil2" d="M159.02 134.75l-39.63 0c-3.18,0 -5.79,-2.6 -5.79,-5.79l0 -32.71c25.84,1.23 46.18,16.63 45.76,34.96 -0.03,1.2 -0.15,2.38 -0.34,3.54z"/>
  </g>
 </g>
</svg>
