<?xml version="1.0" encoding="UTF-8"?>
<!DOCTYPE svg PUBLIC "-//W3C//DTD SVG 1.1//EN" "http://www.w3.org/Graphics/SVG/1.1/DTD/svg11.dtd">
<!-- Creator: CorelDRAW (Versión de evaluación) -->
<svg xmlns="http://www.w3.org/2000/svg" xml:space="preserve" width="3.14872in" height="1.25524in" version="1.1" style="shape-rendering:geometricPrecision; text-rendering:geometricPrecision; image-rendering:optimizeQuality; fill-rule:evenodd; clip-rule:evenodd"
viewBox="0 0 20720.63 8260.34"
 xmlns:xlink="http://www.w3.org/1999/xlink"
 xmlns:xodm="http://www.corel.com/coreldraw/odm/2003">
 <defs>
  <style type="text/css">
   <![CDATA[
    .fil1 {fill:#E6E6E6}
    .fil2 {fill:white}
    .fil0 {fill:white;fill-rule:nonzero}
   ]]>
  </style>
 </defs>
 <g id="Layer_x0020_1">
  <metadata id="CorelCorpID_0Corel-Layer"/>
  <path class="fil0" d="M9934.83 3624.31c0,4.92 -1.22,9.2 -3.68,12.59 -2.44,3.68 -6.43,6.43 -12.57,8.58 -6.14,2.15 -14.12,3.99 -23.94,5.52 -10.1,1.53 -22.07,2.15 -36.48,2.15 -15.96,0 -28.55,-0.62 -38.06,-2.15 -9.79,-1.53 -17.46,-3.37 -23.6,-5.52 -6.14,-2.15 -10.13,-4.9 -12.59,-8.58 -2.44,-3.39 -3.68,-7.67 -3.68,-12.59l0 -515.93 -528.21 0 0 515.93c0,4.92 -1.22,9.2 -3.68,12.59 -2.44,3.68 -6.43,6.43 -12.57,8.58 -5.83,2.15 -13.81,3.99 -23.63,5.52 -10.1,1.53 -22.38,2.15 -37.41,2.15 -14.43,0 -26.69,-0.62 -36.82,-2.15 -10.13,-1.53 -18.39,-3.37 -24.22,-5.52 -6.14,-2.15 -10.13,-4.9 -12.59,-8.58 -2.44,-3.39 -3.68,-7.67 -3.68,-12.59l0 -1116.54c0,-4.92 1.24,-9.2 3.68,-12.59 2.46,-3.68 6.45,-6.43 12.59,-8.58 5.83,-2.15 14.09,-3.99 24.22,-5.52 10.13,-1.53 22.38,-2.15 36.82,-2.15 15.03,0 27.31,0.62 37.41,2.15 9.82,1.53 17.8,3.37 23.63,5.52 6.14,2.15 10.13,4.9 12.57,8.58 2.46,3.68 3.68,7.67 3.68,12.59l0 466.24 528.21 0 0 -466.24c0,-4.92 1.24,-8.91 3.68,-12.59 2.46,-3.68 6.45,-6.43 12.59,-8.58 6.14,-2.15 13.81,-3.99 23.6,-5.52 9.51,-1.53 22.1,-2.15 38.06,-2.15 14.4,0 26.37,0.62 36.48,2.15 9.82,1.53 17.8,3.37 23.94,5.52 6.14,2.15 10.13,4.9 12.57,8.58 2.46,3.39 3.68,7.67 3.68,12.59l0 1116.54z"/>
  <path id="_1" class="fil0" d="M11004.83 3211.13c0,65.96 -8.58,126.69 -26.06,182.21 -17.18,55.21 -43.24,103.06 -77.59,143.25 -34.35,40.18 -77.62,71.48 -129.15,93.87 -51.84,22.38 -111.95,33.73 -180.06,33.73 -66.56,0 -124.54,-9.82 -173.92,-29.74 -49.38,-19.64 -90.5,-48.47 -123.3,-86.2 -32.83,-37.72 -57.36,-83.74 -73.63,-137.42 -16.24,-53.99 -24.22,-115.03 -24.22,-183.43 0,-65.96 8.58,-126.69 25.44,-181.9 17.18,-55.52 42.96,-103.37 77.31,-143.56 34.35,-40.18 77.31,-71.17 128.84,-93.55 51.53,-22.1 111.64,-33.14 180.35,-33.14 66.58,0 124.54,9.82 173.92,29.74 49.41,19.64 90.5,48.47 123.32,86.2 32.83,37.75 57.67,83.45 74.23,137.44 16.27,53.97 24.53,114.72 24.53,182.5zm-154.59 9.51c0,-43.86 -3.99,-85.26 -12.25,-124.23 -7.98,-38.97 -21.48,-73.01 -40.18,-102.44 -18.42,-29.46 -43.86,-52.77 -75.78,-69.64 -31.58,-17.18 -71.45,-25.75 -119.02,-25.75 -43.86,0 -81.58,7.67 -113.17,23.29 -31.61,15.65 -57.36,37.75 -77.93,66.27 -20.55,28.52 -35.57,62.26 -45.39,101.22 -10.13,38.94 -15.03,81.58 -15.03,127.6 0,44.48 3.99,86.2 12.25,125.16 7.98,38.94 21.48,73.01 40.49,102.13 19.02,28.84 44.48,52.15 76.09,69.02 31.89,17.18 71.77,25.78 119.31,25.78 43.27,0 80.68,-7.67 112.57,-23.32 31.92,-15.65 57.98,-37.41 78.53,-65.65 20.57,-28.21 35.6,-61.95 45.11,-100.91 9.51,-38.97 14.4,-81.9 14.4,-128.53z"/>
  <path id="_2" class="fil0" d="M11758.89 3404.38c0,41.4 -7.67,78.22 -23.01,110.73 -15.34,32.2 -36.79,59.51 -65.03,81.61 -28.21,22.07 -61.64,38.94 -100.6,50.29 -38.97,11.35 -81.9,17.18 -128.53,17.18 -28.84,0 -56.14,-2.15 -82.21,-6.74 -26.06,-4.3 -49.38,-9.82 -70.24,-16.87 -20.55,-6.76 -38.03,-13.81 -52.46,-21.17 -14.4,-7.36 -24.85,-14.12 -31.27,-19.95 -6.76,-5.83 -11.66,-14.4 -14.43,-25.16 -3.06,-10.73 -4.59,-25.44 -4.59,-44.17 0,-11.35 0.6,-20.86 1.84,-28.52 1.22,-7.98 2.75,-14.09 4.27,-19.02 1.84,-4.9 4.61,-8.26 7.67,-10.42 3.39,-2.15 7.07,-3.08 11.35,-3.08 6.45,0 16.27,3.99 29.15,12.28 12.88,7.98 28.84,16.87 47.54,26.37 18.73,9.51 41.12,18.39 66.87,26.37 25.78,8.29 55.21,12.28 88.66,12.28 25.16,0 47.85,-2.77 68.09,-8.29 20.57,-5.21 38.06,-13.19 53.09,-23.91 15.03,-10.44 26.37,-23.94 34.67,-40.18 7.95,-16.27 11.94,-35.6 11.94,-57.98 0,-22.7 -5.83,-42.02 -17.49,-57.36 -11.63,-15.65 -26.97,-29.46 -46.01,-41.4 -19.3,-11.97 -40.78,-22.7 -64.72,-31.92 -23.91,-9.2 -48.45,-19.02 -73.92,-29.12 -25.16,-10.44 -50,-21.79 -74.23,-34.67 -24.25,-12.9 -45.7,-28.52 -65.03,-47.26 -19.02,-18.71 -34.35,-40.78 -46.01,-66.56 -11.66,-25.75 -17.49,-56.43 -17.49,-92.62 0,-31.61 6.14,-61.97 18.39,-91.12 12.28,-29.15 30.68,-54.59 55.21,-76.38 24.85,-21.76 55.52,-39.56 92.34,-52.75 36.82,-13.19 79.77,-19.64 129.15,-19.64 21.45,0 42.93,1.84 64.72,5.52 21.48,3.68 40.81,8.6 58.27,14.12 17.49,5.52 32.23,11.66 44.48,18.08 12.28,6.76 21.79,12.28 27.93,17.49 6.43,4.92 10.42,9.2 12.57,12.59 2.15,3.68 3.68,7.67 4.61,12.25 0.91,4.3 1.84,9.82 2.75,16.27 0.93,6.74 1.24,14.72 1.24,24.22 0,10.13 -0.31,19.02 -1.24,26.37 -0.91,7.36 -2.46,13.5 -4.59,18.11 -2.15,4.9 -4.61,8.26 -7.67,10.42 -3.08,2.15 -6.45,3.08 -9.82,3.08 -5.52,0 -13.19,-3.39 -23.63,-10.13 -10.13,-6.45 -23.32,-13.5 -39.56,-21.17 -16.27,-7.67 -35.29,-14.72 -57.05,-21.17 -21.79,-6.74 -46.95,-10.13 -75.16,-10.13 -25.16,0 -47.54,2.77 -66.56,8.6 -19.33,5.52 -34.98,13.5 -47.26,23.91 -12.25,10.44 -21.76,22.72 -27.9,37.13 -6.45,14.12 -9.51,29.74 -9.51,46.32 0,23.32 6.14,42.93 18.08,58.89 11.97,15.96 27.31,29.74 46.63,41.71 19.02,11.97 41.12,22.7 65.65,32.51 24.53,9.51 49.38,19.33 74.85,29.46 25.44,10.42 50.6,21.76 75.44,34.35 24.85,12.57 46.95,27.9 65.96,45.7 19.33,18.08 34.67,39.56 46.3,64.72 11.66,25.16 17.49,55.21 17.49,89.88z"/>
  <path id="_3" class="fil0" d="M12740.86 3207.45c0,70.86 -7.67,134.36 -23.01,190.79 -15.03,56.14 -37.41,104 -67.18,143.25 -29.43,39.28 -66.25,69.64 -109.8,90.81 -43.55,21.17 -93.55,31.89 -149.7,31.89 -23.94,0 -46.01,-2.44 -66.25,-7.05 -20.57,-4.9 -40.18,-12.28 -59.82,-22.7 -19.33,-10.13 -38.65,-23.01 -57.67,-38.65 -19.33,-15.34 -39.56,-33.73 -61.04,-54.59l0 405.2c0,4.9 -1.22,8.89 -3.68,12.57 -2.46,3.68 -6.14,6.76 -11.66,9.2 -5.52,2.15 -12.88,3.99 -22.7,5.23 -9.51,1.22 -21.79,1.84 -36.82,1.84 -14.72,0 -26.69,-0.62 -36.19,-1.84 -9.82,-1.24 -17.49,-3.08 -23.01,-5.23 -5.83,-2.44 -9.82,-5.52 -11.97,-9.2 -2.15,-3.68 -3.06,-7.67 -3.06,-12.57l0 -1130.35c0,-5.52 0.91,-9.82 2.75,-13.19 1.84,-3.08 5.54,-6.14 10.75,-8.29 5.52,-2.46 12.25,-4.3 20.86,-5.21 8.29,-0.93 18.71,-1.24 30.68,-1.24 12.57,0 23.01,0.31 31.3,1.24 7.95,0.91 14.72,2.75 20.23,4.9 5.52,2.46 9.2,5.52 11.35,8.6 2.15,3.37 3.06,7.67 3.06,13.19l0 108.27c24.56,-25.16 48.16,-46.92 70.86,-65.65 22.7,-18.39 45.7,-33.73 68.71,-46.01 23.01,-12.25 46.63,-21.76 70.86,-27.9 24.25,-6.45 49.69,-9.51 76.69,-9.51 58.6,0 108.3,11.35 149.7,34.04 41.12,23.01 74.85,53.99 100.91,93.55 26.09,39.59 45.11,85.6 57.08,138.04 11.94,52.46 17.77,107.99 17.77,166.56zm-154.59 17.18c0,-41.4 -3.06,-81.58 -9.51,-120.24 -6.14,-38.65 -17.18,-73.01 -32.2,-103.06 -15.34,-30.05 -35.88,-53.99 -61.66,-72.08 -25.75,-18.11 -57.98,-27 -96.33,-27 -19.33,0 -38.03,2.75 -56.74,8.58 -18.39,5.83 -37.41,14.72 -56.74,27 -19.02,12.28 -39.28,28.52 -60.13,48.78 -20.86,20.23 -43.24,45.08 -66.56,74.54l0 321.75c40.81,50 79.43,88.04 115.94,114.72 36.82,26.4 75.16,39.59 115.34,39.59 37.13,0 69.02,-8.91 95.7,-27 26.69,-18.11 48.16,-42.02 64.72,-72.08 16.58,-30.08 28.52,-63.5 36.5,-100.94 7.67,-37.1 11.66,-74.85 11.66,-112.57z"/>
  <path id="_4" class="fil0" d="M13139.71 3625.24c0,4.9 -1.22,8.89 -3.68,12.25 -2.46,3.08 -6.14,6.14 -11.66,8.6 -5.52,2.15 -12.88,3.99 -22.7,5.21 -9.51,1.22 -21.79,1.84 -36.82,1.84 -14.72,0 -26.69,-0.62 -36.19,-1.84 -9.82,-1.22 -17.49,-3.06 -23.01,-5.21 -5.83,-2.46 -9.82,-5.52 -11.97,-8.6 -2.15,-3.37 -3.06,-7.36 -3.06,-12.25l0 -809.19c0,-4.3 0.91,-8.29 3.06,-11.66 2.15,-3.68 6.14,-6.76 11.97,-9.2 5.52,-2.15 13.19,-3.99 23.01,-5.23 9.51,-1.22 21.48,-1.84 36.19,-1.84 15.03,0 27.31,0.62 36.82,1.84 9.82,1.24 17.18,3.08 22.7,5.23 5.52,2.44 9.2,5.52 11.66,9.2 2.46,3.37 3.68,7.36 3.68,11.66l0 809.19zm16.56 -1081.9c0,34.98 -6.74,58.6 -19.92,71.17 -13.19,12.57 -37.44,19.02 -73.01,19.02 -34.98,0 -58.89,-6.14 -71.79,-18.39 -12.88,-12.28 -19.33,-35.6 -19.33,-69.95 0,-34.95 6.76,-58.58 19.95,-71.17 13.19,-12.57 37.41,-19.02 73.01,-19.02 34.98,0 58.89,6.14 71.77,18.42 12.9,12.25 19.33,35.57 19.33,69.93z"/>
  <path id="_5" class="fil0" d="M13859.1 3565.11c0,17.49 -1.24,31.3 -3.7,41.4 -2.12,10.13 -5.83,17.8 -10.73,22.41 -4.61,4.9 -11.97,9.51 -21.48,13.5 -9.51,4.27 -20.55,7.67 -32.83,10.42 -12.25,2.77 -25.13,4.92 -38.94,6.76 -13.81,1.84 -27.31,2.75 -41.12,2.75 -42.02,0 -77.91,-5.52 -107.65,-16.56 -29.77,-11.04 -54.3,-27.9 -73.63,-50.31 -19.02,-22.38 -32.83,-50.91 -41.71,-85.26 -8.6,-34.35 -12.88,-74.85 -12.88,-121.48l0 -471.76 -113.81 0c-8.89,0 -16.24,-4.92 -21.79,-14.43 -5.21,-9.51 -7.95,-25.13 -7.95,-46.92 0,-11.35 0.6,-20.86 2.12,-28.52 1.55,-7.98 3.7,-14.43 5.83,-19.64 2.46,-4.9 5.83,-8.58 9.51,-10.73 3.99,-2.15 8.29,-3.08 13.21,-3.08l112.88 0 0 -192.01c0,-4.3 0.91,-8.29 3.06,-11.66 2.15,-3.68 6.14,-6.76 11.97,-9.51 5.52,-2.77 13.19,-4.61 23.01,-5.83 9.51,-1.24 21.45,-1.84 36.19,-1.84 15.03,0 27.31,0.6 36.82,1.84 9.79,1.22 17.18,3.06 22.7,5.83 5.52,2.75 9.2,5.83 11.66,9.51 2.44,3.37 3.68,7.36 3.68,11.66l0 192.01 206.12 0c4.9,0 8.89,0.93 12.57,3.08 3.39,2.15 6.76,5.83 9.22,10.73 2.75,5.21 4.59,11.66 5.8,19.64 1.24,7.67 1.87,17.18 1.87,28.52 0,21.79 -2.77,37.41 -7.98,46.92 -5.52,9.51 -12.59,14.43 -21.48,14.43l-206.12 0 0 450c0,55.52 8.26,97.54 24.53,125.76 16.24,28.52 45.7,42.64 88.04,42.64 13.5,0 25.75,-1.24 36.5,-3.99 10.73,-2.77 20.23,-5.52 28.52,-8.6 8.26,-3.06 15.34,-5.83 21.48,-8.58 5.83,-2.77 11.35,-3.99 15.93,-3.99 3.08,0 5.83,0.62 8.6,2.15 2.44,1.53 4.59,4.27 6.14,8.58 1.53,4.3 2.75,9.82 3.96,17.18 1.24,7.07 1.87,16.27 1.87,27z"/>
  <path id="_6" class="fil0" d="M14669.25 3626.15c0,7.07 -2.44,12.59 -7.05,16.27 -4.9,3.68 -11.35,6.14 -19.92,7.98 -8.29,1.84 -20.57,2.75 -36.82,2.75 -15.34,0 -27.93,-0.91 -37.13,-2.75 -9.2,-1.84 -15.93,-4.3 -20.23,-7.98 -4.3,-3.68 -6.45,-8.91 -6.45,-16.27l0 -80.96c-35.26,37.72 -74.54,67.15 -118.09,88.04 -43.55,20.55 -89.56,30.96 -138.04,30.96 -42.64,0 -81.3,-5.52 -115.65,-16.56 -34.35,-11.04 -63.79,-27.31 -88.04,-48.16 -24.22,-20.86 -43.24,-46.92 -56.74,-77.28 -13.5,-30.68 -20.23,-65.34 -20.23,-104.31 0,-45.7 9.2,-85.26 27.9,-118.71 18.39,-33.73 45.11,-61.66 80.06,-83.74 34.67,-22.1 77.31,-38.97 127.62,-50 50.29,-11.04 107.05,-16.56 169.93,-16.56l111.64 0 0 -63.19c0,-30.99 -3.37,-58.6 -9.79,-82.83 -6.76,-23.91 -17.2,-43.86 -31.92,-59.82 -14.72,-15.93 -33.73,-27.9 -57.05,-35.88 -23.32,-8.29 -52.15,-12.28 -86.2,-12.28 -36.5,0 -69.33,4.3 -98.17,13.21 -29.12,8.89 -54.59,18.39 -76.38,29.12 -21.76,10.75 -40.18,20.26 -54.9,29.15 -14.4,8.89 -25.47,13.19 -32.51,13.19 -4.9,0 -9.2,-1.22 -12.57,-3.68 -3.7,-2.15 -6.76,-5.83 -9.51,-10.73 -2.77,-4.61 -4.61,-10.75 -5.83,-18.11 -1.24,-7.67 -1.84,-15.65 -1.84,-24.85 0,-14.72 0.91,-26.69 3.06,-35.26 2.15,-8.6 7.36,-16.89 15.34,-24.56 7.98,-7.67 22.07,-16.87 41.71,-27.59 19.64,-10.44 42.64,-20.26 68.4,-29.15 25.47,-8.58 53.68,-15.96 84.36,-21.79 30.36,-5.8 61.35,-8.58 92.34,-8.58 57.98,0 107.36,6.45 148.17,19.64 40.78,13.19 73.6,32.83 98.76,58.27 25.16,25.47 43.24,57.05 54.59,94.8 11.35,37.72 17.18,81.9 17.18,132.21l0 545.99zm-147.24 -370.54l-126.66 0c-40.49,0 -75.78,3.37 -105.83,10.42 -29.77,6.76 -54.61,17.18 -74.54,30.68 -19.64,13.5 -34.04,29.46 -43.55,48.47 -9.22,19.02 -13.81,40.81 -13.81,65.34 0,42.02 13.19,75.44 39.87,100.32 26.69,24.85 63.81,37.41 111.95,37.41 38.65,0 74.85,-9.82 107.99,-29.74 33.14,-19.64 68.09,-50 104.59,-90.81l0 -172.08z"/>
  <path id="_7" class="fil0" d="M15117.18 3625.24c0,4.9 -1.22,8.89 -3.68,12.25 -2.46,3.08 -6.14,6.14 -11.66,8.6 -5.52,2.15 -12.88,3.99 -22.7,5.21 -9.51,1.22 -21.79,1.84 -36.82,1.84 -14.72,0 -26.69,-0.62 -36.19,-1.84 -9.82,-1.22 -17.49,-3.06 -23.01,-5.21 -5.83,-2.46 -9.82,-5.52 -11.97,-8.6 -2.15,-3.37 -3.06,-7.36 -3.06,-12.25l0 -1200.3c0,-4.9 0.91,-9.2 3.06,-12.57 2.15,-3.68 6.14,-6.76 11.97,-9.22 5.52,-2.12 13.19,-3.96 23.01,-5.21 9.51,-1.22 21.48,-1.84 36.19,-1.84 15.03,0 27.31,0.62 36.82,1.84 9.82,1.24 17.18,3.08 22.7,5.21 5.52,2.46 9.2,5.54 11.66,9.22 2.46,3.37 3.68,7.67 3.68,12.57l0 1200.3z"/>
  <path id="_8" class="fil0" d="M16626.12 3483.84c0,9.51 -0.31,17.77 -0.91,25.13 -0.62,7.07 -1.53,13.21 -3.08,18.73 -1.53,5.21 -3.37,10.1 -5.83,14.4 -2.44,3.99 -6.74,9.2 -12.57,15.03 -6.14,6.14 -18.71,15.34 -37.72,27.62 -19.33,12.25 -43.27,24.22 -71.79,35.88 -28.52,11.66 -61.04,21.48 -97.85,29.46 -37.1,8.26 -77.28,12.25 -121.15,12.25 -75.47,0 -143.87,-12.57 -204.6,-37.72 -60.75,-25.16 -112.88,-62.26 -155.53,-111.66 -42.96,-49.07 -76.07,-109.8 -99.07,-181.9 -23.01,-72.39 -34.67,-155.5 -34.67,-249.68 0,-96.64 12.57,-182.52 37.41,-258.28 24.85,-75.47 59.82,-139.57 104.9,-192.03 45.11,-52.44 98.79,-92.31 161.67,-119.93 62.57,-27.62 132.21,-41.4 208.28,-41.4 33.73,0 66.56,3.06 98.17,9.2 31.89,6.45 61.35,14.09 88.35,23.63 26.97,9.51 50.91,20.55 72.08,33.11 20.86,12.28 35.57,22.7 43.55,30.68 8.29,7.98 13.5,14.12 15.96,18.42 2.44,3.96 4.3,8.89 5.83,14.72 1.53,5.83 2.75,12.57 3.68,20.23 0.91,7.98 1.22,17.18 1.22,27.93 0,12.25 -0.62,22.38 -1.84,30.68 -1.22,8.58 -3.06,15.62 -5.52,21.45 -2.15,5.54 -5.21,9.82 -8.6,12.59 -3.06,2.75 -7.36,3.99 -11.94,3.99 -8.6,0 -20.26,-5.83 -35.6,-17.49 -15.03,-11.66 -34.35,-24.53 -58.27,-38.65 -23.94,-14.12 -52.77,-27 -86.82,-38.65 -34.35,-11.66 -75.16,-17.49 -122.7,-17.49 -52.13,0 -99.38,10.44 -141.72,30.99 -42.62,20.86 -79.12,51.22 -109.2,91.4 -30.05,40.18 -53.66,89.28 -70.24,147.26 -16.56,57.96 -24.85,124.23 -24.85,198.46 0,73.92 7.98,139.26 23.94,195.99 15.93,56.76 38.94,104.31 68.71,142.34 29.74,38.03 66.56,66.87 109.8,86.51 43.58,19.33 92.65,29.12 147.55,29.12 46.32,0 87.13,-5.8 121.79,-17.18 34.64,-11.35 64.1,-23.91 88.32,-38.03 24.56,-14.09 44.48,-26.69 60.13,-38.03 15.96,-11.35 28.21,-17.18 37.13,-17.18 4.27,0 7.95,0.93 11.04,2.77 3.06,1.84 5.21,5.21 7.05,10.1 1.84,5.23 3.37,12.28 4.3,21.17 0.91,8.91 1.22,20.26 1.22,34.07z"/>
  <path id="_9" class="fil0" d="M16989.69 3625.24c0,4.9 -1.22,8.89 -3.68,12.25 -2.46,3.08 -6.14,6.14 -11.66,8.6 -5.52,2.15 -12.88,3.99 -22.7,5.21 -9.51,1.22 -21.79,1.84 -36.82,1.84 -14.72,0 -26.69,-0.62 -36.19,-1.84 -9.82,-1.22 -17.49,-3.06 -23.01,-5.21 -5.83,-2.46 -9.82,-5.52 -11.97,-8.6 -2.15,-3.37 -3.06,-7.36 -3.06,-12.25l0 -1200.3c0,-4.9 0.91,-9.2 3.06,-12.57 2.15,-3.68 6.14,-6.76 11.97,-9.22 5.52,-2.12 13.19,-3.96 23.01,-5.21 9.51,-1.22 21.48,-1.84 36.19,-1.84 15.03,0 27.31,0.62 36.82,1.84 9.82,1.24 17.18,3.08 22.7,5.21 5.52,2.46 9.2,5.54 11.66,9.22 2.46,3.37 3.68,7.67 3.68,12.57l0 1200.3z"/>
  <path id="_10" class="fil0" d="M17438.52 3625.24c0,4.9 -1.22,8.89 -3.68,12.25 -2.46,3.08 -6.14,6.14 -11.66,8.6 -5.52,2.15 -12.88,3.99 -22.7,5.21 -9.51,1.22 -21.79,1.84 -36.82,1.84 -14.72,0 -26.69,-0.62 -36.19,-1.84 -9.82,-1.22 -17.49,-3.06 -23.01,-5.21 -5.83,-2.46 -9.82,-5.52 -11.97,-8.6 -2.15,-3.37 -3.06,-7.36 -3.06,-12.25l0 -809.19c0,-4.92 0.91,-8.91 3.06,-12.28 2.15,-3.06 6.14,-6.14 11.97,-8.89 5.52,-2.77 13.19,-4.61 23.01,-5.52 9.51,-0.93 21.48,-1.24 36.19,-1.24 15.03,0 27.31,0.31 36.82,1.24 9.82,0.91 17.18,2.75 22.7,5.52 5.52,2.75 9.2,5.83 11.66,8.89 2.46,3.37 3.68,7.36 3.68,12.28l0 809.19zm-16.87 -1203.35c3.68,-6.45 7.98,-11.97 12.57,-15.96 4.92,-4.3 10.75,-7.67 17.8,-10.13 6.74,-2.15 15.34,-3.99 25.47,-5.21 10.1,-1.22 22.7,-1.84 37.1,-1.84 16.58,0 30.36,0.93 40.81,3.06 10.42,2.15 17.8,5.23 22.07,9.22 4.3,3.68 5.83,8.26 5.23,13.5 -0.62,4.9 -3.08,10.1 -7.98,15.62l-162.88 209.52c-4.92,6.14 -9.2,10.73 -12.88,14.4 -3.99,3.68 -8.6,6.45 -13.5,8.6 -5.23,2.15 -11.97,3.68 -19.95,4.59 -7.98,0.93 -18.08,1.24 -30.05,1.24 -13.19,0 -23.63,-0.93 -31.61,-2.77 -7.67,-1.84 -13.19,-4.3 -16.56,-7.05 -3.37,-3.06 -4.61,-7.05 -3.68,-11.66 0.91,-4.9 3.37,-10.73 7.67,-17.18l130.37 -207.96z"/>
  <path id="_11" class="fil0" d="M18433.96 3625.24c0,4.9 -1.22,8.89 -3.68,12.25 -2.46,3.08 -6.14,6.14 -11.66,8.6 -5.52,2.15 -12.88,3.99 -22.7,5.21 -9.51,1.22 -21.48,1.84 -35.88,1.84 -15.34,0 -27.62,-0.62 -37.13,-1.84 -9.82,-1.22 -17.18,-3.06 -22.7,-5.21 -5.52,-2.46 -9.2,-5.52 -11.66,-8.6 -2.46,-3.37 -3.68,-7.36 -3.68,-12.25l0 -473.94c0,-46.01 -3.68,-83.42 -10.73,-111.33 -7.07,-28.24 -17.49,-52.46 -31.3,-73.01 -13.81,-20.26 -31.3,-35.88 -53.06,-46.63 -21.79,-10.73 -46.95,-16.24 -75.47,-16.24 -37.1,0 -73.92,13.19 -110.73,39.56 -37.1,26.37 -75.76,65.03 -116.25,115.94l0 565.65c0,4.9 -1.22,8.89 -3.68,12.25 -2.46,3.08 -6.14,6.14 -11.66,8.6 -5.52,2.15 -12.88,3.99 -22.7,5.21 -9.51,1.22 -21.79,1.84 -36.82,1.84 -14.72,0 -26.69,-0.62 -36.19,-1.84 -9.82,-1.22 -17.49,-3.06 -23.01,-5.21 -5.83,-2.46 -9.82,-5.52 -11.97,-8.6 -2.15,-3.37 -3.06,-7.36 -3.06,-12.25l0 -809.19c0,-4.92 0.91,-8.91 2.75,-12.28 1.84,-3.06 5.23,-6.14 10.75,-8.89 5.52,-2.77 12.25,-4.61 20.86,-5.52 8.29,-0.93 19.64,-1.24 33.42,-1.24 13.21,0 24.25,0.31 32.83,1.24 8.91,0.91 15.65,2.75 20.57,5.52 4.59,2.75 8.26,5.83 10.42,8.89 1.84,3.37 3.06,7.36 3.06,12.28l0 107.05c45.42,-51.25 90.5,-88.66 135.89,-112.29 45.11,-23.6 90.5,-35.57 136.51,-35.57 53.68,0 99.07,9.2 135.89,27.31 36.82,18.39 66.56,42.93 89.25,73.29 22.72,30.68 38.97,66.58 48.78,107.67 9.82,41.12 14.72,90.5 14.72,147.86l0 493.86z"/>
  <path id="_12" class="fil0" d="M18880.67 3625.24c0,4.9 -1.22,8.89 -3.68,12.25 -2.46,3.08 -6.14,6.14 -11.66,8.6 -5.52,2.15 -12.88,3.99 -22.7,5.21 -9.51,1.22 -21.79,1.84 -36.82,1.84 -14.72,0 -26.69,-0.62 -36.19,-1.84 -9.82,-1.22 -17.49,-3.06 -23.01,-5.21 -5.83,-2.46 -9.82,-5.52 -11.97,-8.6 -2.15,-3.37 -3.06,-7.36 -3.06,-12.25l0 -809.19c0,-4.3 0.91,-8.29 3.06,-11.66 2.15,-3.68 6.14,-6.76 11.97,-9.2 5.52,-2.15 13.19,-3.99 23.01,-5.23 9.51,-1.22 21.48,-1.84 36.19,-1.84 15.03,0 27.31,0.62 36.82,1.84 9.82,1.24 17.18,3.08 22.7,5.23 5.52,2.44 9.2,5.52 11.66,9.2 2.46,3.37 3.68,7.36 3.68,11.66l0 809.19zm16.56 -1081.9c0,34.98 -6.74,58.6 -19.92,71.17 -13.19,12.57 -37.44,19.02 -73.01,19.02 -34.98,0 -58.89,-6.14 -71.79,-18.39 -12.88,-12.28 -19.33,-35.6 -19.33,-69.95 0,-34.95 6.76,-58.58 19.95,-71.17 13.19,-12.57 37.41,-19.02 73.01,-19.02 34.98,0 58.89,6.14 71.77,18.42 12.9,12.25 19.33,35.57 19.33,69.93z"/>
  <path id="_13" class="fil0" d="M19762.01 3500.7c0,10.13 -0.31,19.02 -0.93,26.37 -0.6,7.67 -1.53,13.81 -3.06,19.02 -1.53,5.21 -3.37,9.51 -5.52,13.5 -2.15,3.99 -6.76,9.82 -14.43,17.18 -7.36,7.67 -20.23,16.87 -38.03,28.21 -18.08,11.06 -38.34,21.17 -60.73,29.77 -22.7,8.89 -46.92,15.93 -73.32,21.17 -26.37,5.52 -53.68,8.26 -81.9,8.26 -58.27,0 -109.8,-9.51 -154.59,-28.84 -45.11,-19.02 -82.83,-46.92 -112.88,-83.74 -30.36,-36.82 -53.37,-82.21 -69.33,-135.58 -15.93,-53.68 -23.91,-115.34 -23.91,-185.58 0,-79.43 9.82,-147.86 29.12,-205.22 19.64,-57.05 46.32,-103.97 80.08,-140.47 34.04,-36.5 73.92,-63.5 119.62,-81.3 46.01,-17.49 95.7,-26.37 149.08,-26.37 25.78,0 50.62,2.46 74.85,7.36 24.53,4.61 46.63,11.04 67.18,18.71 20.23,7.98 38.65,16.89 54.3,27.31 15.93,10.13 27.59,19.02 34.64,26.06 7.38,7.38 12.28,13.21 15.05,17.2 2.44,4.27 4.9,9.2 6.74,15.03 1.53,5.52 2.77,11.94 3.37,19.33 0.62,7.05 0.93,16.24 0.93,26.97 0,23.32 -2.77,39.59 -7.98,49.1 -5.52,9.2 -11.97,13.81 -19.95,13.81 -8.89,0 -19.33,-4.92 -30.96,-15.05 -11.66,-9.79 -26.4,-20.86 -44.48,-32.8 -18.11,-11.97 -39.87,-23.01 -65.34,-32.83 -25.47,-10.13 -55.52,-15.03 -90.19,-15.03 -71.48,0 -126.38,27.28 -164.41,82.21 -38.03,54.59 -57.05,134.05 -57.05,238.02 0,51.84 4.9,97.54 14.72,136.82 10.13,38.94 24.53,71.77 43.86,98.14 19.02,26.09 42.64,45.73 70.55,58.6 27.93,12.88 59.82,19.33 95.7,19.33 34.35,0 64.43,-5.52 90.19,-16.27 25.78,-10.73 47.85,-22.7 66.87,-35.88 19.02,-12.88 34.98,-24.53 47.85,-34.98 12.9,-10.73 22.7,-15.93 30.08,-15.93 3.96,0 7.67,1.22 10.73,3.68 3.06,2.44 5.52,6.43 7.67,11.94 2.15,5.83 3.68,12.9 4.59,21.79 0.93,8.6 1.24,19.02 1.24,30.99z"/>
  <path id="_14" class="fil0" d="M20720.63 3211.13c0,65.96 -8.58,126.69 -26.06,182.21 -17.18,55.21 -43.24,103.06 -77.59,143.25 -34.35,40.18 -77.62,71.48 -129.15,93.87 -51.84,22.38 -111.95,33.73 -180.06,33.73 -66.56,0 -124.54,-9.82 -173.92,-29.74 -49.38,-19.64 -90.5,-48.47 -123.3,-86.2 -32.83,-37.72 -57.36,-83.74 -73.63,-137.42 -16.24,-53.99 -24.22,-115.03 -24.22,-183.43 0,-65.96 8.58,-126.69 25.44,-181.9 17.18,-55.52 42.96,-103.37 77.31,-143.56 34.35,-40.18 77.31,-71.17 128.84,-93.55 51.53,-22.1 111.64,-33.14 180.35,-33.14 66.58,0 124.54,9.82 173.92,29.74 49.41,19.64 90.5,48.47 123.32,86.2 32.83,37.75 57.67,83.45 74.23,137.44 16.27,53.97 24.53,114.72 24.53,182.5zm-154.59 9.51c0,-43.86 -3.99,-85.26 -12.25,-124.23 -7.98,-38.97 -21.48,-73.01 -40.18,-102.44 -18.42,-29.46 -43.86,-52.77 -75.78,-69.64 -31.58,-17.18 -71.45,-25.75 -119.02,-25.75 -43.86,0 -81.58,7.67 -113.17,23.29 -31.61,15.65 -57.36,37.75 -77.93,66.27 -20.55,28.52 -35.57,62.26 -45.39,101.22 -10.13,38.94 -15.03,81.58 -15.03,127.6 0,44.48 3.99,86.2 12.25,125.16 7.98,38.94 21.48,73.01 40.49,102.13 19.02,28.84 44.48,52.15 76.09,69.02 31.89,17.18 71.77,25.78 119.31,25.78 43.27,0 80.68,-7.67 112.57,-23.32 31.92,-15.65 57.98,-37.41 78.53,-65.65 20.57,-28.21 35.6,-61.95 45.11,-100.91 9.51,-38.97 14.4,-81.9 14.4,-128.53z"/>
  <path class="fil1" d="M4847.17 0l584.18 0c195.17,0 354.86,159.67 354.86,354.86l0 549.17c-197.03,-399.89 -519.41,-719.68 -939.04,-904.04zm1059.98 2474.17l1998.34 0c195.17,0 354.86,159.67 354.86,354.86l0 2489.33c-89.9,16.89 -181.56,25.75 -274.73,25.75 -1127.5,0 -2045.39,-1276.96 -2078.48,-2869.95zm-649.02 5786.16l-2429.07 0c-195.19,0 -354.89,-159.67 -354.89,-354.86l0 -2005.34c1584,75.44 2830.8,1019.61 2805.05,2142.94 -1.68,73.53 -8.86,145.97 -21.09,217.27zm-4552.52 -2474.15l-350.72 0c-195.19,0 -354.89,-159.67 -354.89,-354.86l0 -385.36c139.52,342.45 403.65,583.81 705.61,740.22z"/>
  <path class="fil2" d="M354.89 2474.17l2119.28 0 0 -2119.31c0,-195.19 159.7,-354.86 354.89,-354.86l2018.11 0c419.63,184.36 742.01,504.15 939.04,904.04l0 1570.14 120.94 0c33.08,1592.99 950.98,2869.95 2078.48,2869.95 93.17,0 184.83,-8.86 274.73,-25.75l0 112.96c0,195.19 -159.7,354.86 -354.86,354.86l-1737.86 0c-591.74,-132.57 -836.34,-386.03 -821.62,-1310.69 6.35,-47 0.54,-94.93 0.54,-143.58 0,-783.75 9.15,-1597.6 9.15,-2405.83 0,-592.21 -484.51,-1076.72 -1076.72,-1076.72l-254.24 0c-592.21,0 -1076.72,484.51 -1076.72,1076.72l0 631.67c-55.99,271 -170.53,380.59 -380.02,405.15l-637.65 0c-601.82,0 -1094.2,492.38 -1094.2,1094.2l0 258.36c0,601.82 492.38,1094.2 1094.2,1094.2l2297.92 0c15.54,0 30.99,-0.41 46.38,-1.06l4.33 0c92,0 193.66,-2.51 269.96,-9.28 704.88,22.85 1008.68,275.25 1237.27,715.61l0 1790.54c0,195.19 -159.7,354.86 -354.86,354.86l-173.22 0c12.23,-71.3 19.41,-143.74 21.09,-217.27 25.75,-1123.32 -1221.05,-2067.49 -2805.05,-2142.94l0 -113.94 -1768.57 0c-301.96,-156.41 -566.09,-397.77 -705.61,-740.22l0 -2216.93c0,-195.19 159.7,-354.86 354.89,-354.86z"/>
 </g>
</svg>
